<?xml version="1.0" standalone="no"?>
<!DOCTYPE svg PUBLIC "-//W3C//DTD SVG 1.1//EN" "http://www.w3.org/Graphics/SVG/1.1/DTD/svg11.dtd" >
<svg xmlns="http://www.w3.org/2000/svg" xmlns:xlink="http://www.w3.org/1999/xlink" version="1.1">
<metadata>
Created by FontForge 20170731 at Fri Oct 23 22:49:44 2020
 By Aleksey,,,
Copyright (c) 2016 by Frere-Jones Type LLC. All rights reserved. |DCNT
</metadata>
<defs>
<font id="RetinaNarrow-Book" horiz-adv-x="0" >
  <font-face 
    font-family="Retina Narrow"
    font-weight="400"
    font-stretch="semi-condensed"
    units-per-em="2048"
    panose-1="2 11 6 6 4 5 2 2 3 4"
    ascent="1638"
    descent="-410"
    x-height="1051"
    cap-height="1434"
    bbox="-336 -492 1780 1997"
    underline-thickness="102"
    underline-position="-358"
    unicode-range="U+000D-FB02"
  />
<missing-glyph horiz-adv-x="1433" 
d="M1229 1966v-2458h-1024v2458h1024zM717 879l321 985h-645zM307 1790v-2105l350 1052zM1126 -315v2105l-352 -1053zM393 -389h645l-321 985z" />
    <glyph glyph-name="fi" unicode="fi" horiz-adv-x="1062" 
d="M489 1485q61 0 138 -15v-153q-53 16 -111 16q-156 0 -156 -174v-108h236v-154h-236v-897h-178v897h-137v154h137v108q0 161 77.5 243.5t229.5 82.5zM748 1427h190v-180h-190v180zM754 1051h178v-1051h-178v1051z" />
    <glyph glyph-name="fl" unicode="fl" horiz-adv-x="1062" 
d="M489 1485q61 0 138 -15v-153q-53 16 -111 16q-156 0 -156 -174v-108h236v-154h-236v-897h-178v897h-137v154h137v108q0 161 77.5 243.5t229.5 82.5zM754 1477h178v-1477h-178v1477z" />
    <glyph glyph-name="f_f" unicode="ff" horiz-adv-x="1245" 
d="M489 1485q89 0 175 -25l-25 -145q-77 18 -123 18q-156 0 -156 -174v-108h236v-154h-236v-897h-178v897h-137v154h137v108q0 161 77.5 243.5t229.5 82.5zM1114 1485q88 0 174 -25l-24 -145q-77 18 -123 18q-156 0 -156 -174v-108h236v-154h-236v-897h-178v897h-137v154
h137v108q0 161 77.5 243.5t229.5 82.5z" />
    <glyph glyph-name="f_f_i" unicode="ffi" horiz-adv-x="1687" 
d="M489 1485q89 0 175 -25l-25 -145q-77 18 -123 18q-156 0 -156 -174v-108h236v-154h-236v-897h-178v897h-137v154h137v108q0 161 77.5 243.5t229.5 82.5zM1114 1485q60 0 137 -15v-153q-53 16 -110 16q-156 0 -156 -174v-108h236v-154h-236v-897h-178v897h-137v154h137
v108q0 161 77.5 243.5t229.5 82.5zM1370 1427h191v-180h-191v180zM1376 1051h178v-1051h-178v1051z" />
    <glyph glyph-name="f_f_l" unicode="ffl" horiz-adv-x="1687" 
d="M489 1485q89 0 175 -25l-25 -145q-77 18 -123 18q-156 0 -156 -174v-108h236v-154h-236v-897h-178v897h-137v154h137v108q0 161 77.5 243.5t229.5 82.5zM1114 1485q60 0 137 -15v-153q-53 16 -110 16q-156 0 -156 -174v-108h236v-154h-236v-897h-178v897h-137v154h137
v108q0 161 77.5 243.5t229.5 82.5zM1376 1477h178v-1477h-178v1477z" />
    <glyph glyph-name=".notdef" horiz-adv-x="1433" 
d="M1229 1966v-2458h-1024v2458h1024zM717 879l321 985h-645zM307 1790v-2105l350 1052zM1126 -315v2105l-352 -1053zM393 -389h645l-321 985z" />
    <glyph glyph-name=".null" 
 />
    <glyph glyph-name="nonmarkingreturn" horiz-adv-x="682" 
 />
    <glyph glyph-name="NULL" 
 />
    <glyph glyph-name="NULL" 
 />
    <glyph glyph-name="CR" unicode="&#xd;" horiz-adv-x="325" 
 />
    <glyph glyph-name="space" unicode=" " horiz-adv-x="325" 
 />
    <glyph glyph-name="exclam" unicode="!" horiz-adv-x="462" 
d="M328 1434v-373l-47 -668h-99l-47 668v373h193zM135 219h193v-219h-193v219z" />
    <glyph glyph-name="quotedbl" unicode="&#x22;" horiz-adv-x="735" 
d="M498 1434h192v-2l-233 -521l-76 23zM182 1434h193v-2l-234 -521l-75 23z" />
    <glyph glyph-name="numbersign" unicode="#" horiz-adv-x="1138" 
d="M477 909l-61 -374l246 -11l61 375zM754 391l-66 -401h-113l66 405l-246 13l-67 -418h-113l68 422l-217 10v129l239 -10l60 374l-224 11v129l244 -13l66 402h114l-65 -406l243 -12l68 418h115l-70 -424l219 -10v-127l-239 10l-62 -375l225 -10v-129z" />
    <glyph glyph-name="dollar" unicode="$" horiz-adv-x="995" 
d="M289 1071q0 -79 45 -133.5t145 -97.5l58 444h-2q-110 0 -178 -59.5t-68 -153.5zM745 387q0 85 -48 142.5t-156 101.5l-60 -481q122 5 193 68.5t71 168.5zM475 0l-26 -201h-115l28 207q-169 25 -305 107l43 151q151 -86 295 -108l64 508q-180 69 -258 160.5t-78 234.5
q0 170 114.5 272.5t303.5 102.5l22 159h115l-23 -168q112 -14 242 -82l-43 -149q-117 63 -231 84l-60 -471q185 -72 266.5 -167t81.5 -241q0 -180 -117.5 -287t-318.5 -112z" />
    <glyph glyph-name="percent" unicode="%" horiz-adv-x="1245" 
d="M592 733l371 723l92 -43l-404 -713l-368 -723l-95 43zM326 1446q109 0 177 -101t68 -262q0 -164 -68 -264t-177 -100q-110 0 -179 100.5t-69 263.5q0 161 69.5 262t178.5 101zM326 827q57 0 91 69t34 187q0 117 -34 186.5t-91 69.5t-91 -69t-34 -187t34 -187t91 -69z
M920 715q109 0 178 -101t69 -264q0 -161 -69 -261.5t-178 -100.5t-177.5 100.5t-68.5 261.5q0 164 68.5 264.5t177.5 100.5zM920 94q57 0 90.5 69t33.5 187t-33.5 187t-90.5 69t-91 -69t-34 -187t34 -187t91 -69z" />
    <glyph glyph-name="ampersand" unicode="&#x26;" horiz-adv-x="1153" 
d="M250 389q0 -108 52 -175t134 -67q68 0 128.5 45t121.5 142l-260 381q-85 -62 -130.5 -147.5t-45.5 -178.5zM887 344l231 -344h-203l-139 199q-154 -215 -364 -215q-155 0 -248.5 105.5t-93.5 283.5q0 141 71.5 264t200.5 205q-90 143 -90 282q0 145 94 234.5t244 89.5
q156 0 311 -84l-55 -168q-132 82 -236 82q-78 0 -124 -48t-46 -128q0 -56 20.5 -109.5t69.5 -126.5l254 -370q63 121 113 309h168q-73 -281 -178 -461z" />
    <glyph glyph-name="quotesingle" unicode="'" horiz-adv-x="430" 
d="M180 1434h207v-2l-246 -521l-75 23z" />
    <glyph glyph-name="parenleft" unicode="(" horiz-adv-x="692" 
d="M274 623q0 -232 89.5 -419t279.5 -354l-80 -96q-463 340 -463 869q0 528 463 868l80 -96q-191 -167 -280 -353.5t-89 -418.5z" />
    <glyph glyph-name="parenright" unicode=")" horiz-adv-x="692" 
d="M129 -246l-80 96q190 167 279.5 354t89.5 419t-89 418.5t-280 353.5l80 96q463 -340 463 -868q0 -529 -463 -869z" />
    <glyph glyph-name="asterisk" unicode="*" horiz-adv-x="610" 
d="M246 1438h119l-48 -195h-24zM518 1323l37 -109l-199 -18l-8 25zM92 1323l168 -102l-8 -25l-197 18zM344 1159l152 -129l-95 -72l-77 187zM266 1159l21 -14l-78 -187l-94 72z" />
    <glyph glyph-name="plus" unicode="+" horiz-adv-x="999" 
d="M909 653h-334v-346h-153v346h-332v146h332v348h153v-348h334v-146z" />
    <glyph glyph-name="comma" unicode="," horiz-adv-x="331" 
d="M82 238h182v-25q0 -142 -54.5 -258.5t-178.5 -239.5l-62 45q69 115 88 209q25 103 25 269z" />
    <glyph glyph-name="hyphen" unicode="-" horiz-adv-x="612" 
d="M74 707h465v-166h-465v166z" />
    <glyph glyph-name="period" unicode="." horiz-adv-x="331" 
d="M72 238h190v-238h-190v238z" />
    <glyph glyph-name="slash" unicode="/" horiz-adv-x="684" 
d="M-29 -266l576 1894h143l-575 -1894h-144z" />
    <glyph glyph-name="zero" unicode="0" horiz-adv-x="1087" 
d="M543 1454q214 0 332 -193t118 -544t-118 -544t-332 -193q-212 0 -330.5 193.5t-118.5 543.5t118.5 543.5t330.5 193.5zM545 143q125 0 191.5 146t66.5 426t-67.5 427.5t-192.5 147.5t-191.5 -145.5t-66.5 -425.5t67.5 -428t192.5 -148z" />
    <glyph glyph-name="one" unicode="1" horiz-adv-x="724" 
d="M408 1442h129v-1442h-191v1233l-254 -94l-35 157z" />
    <glyph glyph-name="two" unicode="2" horiz-adv-x="964" 
d="M307 168h582v-168h-799l-29 143l463 609q80 107 113 178t33 139q0 92 -52.5 147.5t-140.5 55.5q-147 0 -315 -168l-74 156q188 188 412 188q167 0 265.5 -96t98.5 -260q0 -111 -45 -213t-157 -242z" />
    <glyph glyph-name="three" unicode="3" horiz-adv-x="956" 
d="M868 440q0 -204 -207.5 -322t-584.5 -130v168q293 12 445.5 85.5t152.5 202.5q0 100 -101 153t-311 60l-22 146q214 72 316.5 150.5t102.5 172.5q0 72 -53 114t-145 42q-148 0 -338 -111l-49 156q217 123 422 123q164 0 261 -81t97 -216q0 -121 -81 -215t-253 -172
q348 -59 348 -326z" />
    <glyph glyph-name="four" unicode="4" horiz-adv-x="1028" 
d="M973 326h-162v-326h-186v326h-553l-23 151l526 963h236v-953h162v-161zM627 1206l-383 -721h383v721z" />
    <glyph glyph-name="five" unicode="5" horiz-adv-x="974" 
d="M553 897q154 0 244 -91.5t90 -246.5q0 -495 -760 -584l-25 166q592 83 592 404q0 86 -48.5 135t-133.5 49q-111 0 -242 -92l-141 59l37 738h711v-166h-539l-23 -432q119 61 238 61z" />
    <glyph glyph-name="six" unicode="6" horiz-adv-x="995" 
d="M913 471q0 -225 -112 -358t-295 -133q-192 0 -303 150.5t-111 412.5q0 313 135.5 538t423.5 389l101 -143q-184 -105 -292 -227.5t-149 -270.5q130 76 256 76q160 0 253 -116t93 -318zM283 520q0 -177 60.5 -277t168.5 -100q94 0 151.5 85.5t57.5 224.5q0 140 -57.5 215
t-163.5 75q-92 0 -209 -65q-8 -63 -8 -158z" />
    <glyph glyph-name="seven" unicode="7" horiz-adv-x="933" 
d="M866 1434v-174l-540 -1278l-181 59l531 1225h-600v168h790z" />
    <glyph glyph-name="eight" unicode="8" horiz-adv-x="1026" 
d="M942 383q0 -174 -121 -289q-119 -110 -309 -110t-309 110q-119 113 -119 289q0 260 231 367q-200 108 -200 333q0 162 110 263q110 104 287 104q179 0 289 -104q110 -101 110 -263q0 -225 -200 -333q231 -107 231 -367zM305 1059q0 -100 59 -165t150 -65q88 0 146.5 65.5
t58.5 164.5q0 103 -56.5 165t-150.5 62q-92 0 -149.5 -63.5t-57.5 -163.5zM750 408q0 115 -66.5 187.5t-171.5 72.5q-103 0 -170.5 -74t-67.5 -186q0 -117 67 -189t173 -72t171 72t65 189z" />
    <glyph glyph-name="nine" unicode="9" horiz-adv-x="995" 
d="M82 963q0 224 111 356q114 135 296 135q192 0 303 -150.5t111 -412.5q0 -313 -136 -538.5t-423 -389.5l-100 143q184 105 291.5 227.5t148.5 270.5q-130 -76 -256 -76q-160 0 -253 116.5t-93 318.5zM713 913q0 177 -60.5 277t-169.5 100q-94 0 -151.5 -85t-57.5 -224
q0 -140 58 -215.5t164 -75.5q90 0 209 66q8 63 8 157z" />
    <glyph glyph-name="colon" unicode=":" horiz-adv-x="352" 
d="M82 1051h190v-236h-190v236zM82 238h190v-238h-190v238z" />
    <glyph glyph-name="semicolon" unicode=";" horiz-adv-x="352" 
d="M84 1051h190v-236h-190v236zM90 238h184v-25q0 -142 -54.5 -258.5t-178.5 -239.5l-61 45q69 118 88 209q22 104 22 269z" />
    <glyph glyph-name="less" unicode="&#x3c;" horiz-adv-x="999" 
d="M268 729l619 -270v-164l-791 364v136l791 366v-164z" />
    <glyph glyph-name="equal" unicode="=" horiz-adv-x="999" 
d="M104 987h789v-143h-789v143zM104 610h789v-143h-789v143z" />
    <glyph glyph-name="greater" unicode="&#x3e;" horiz-adv-x="999" 
d="M731 727l-618 268v166l790 -366v-136l-790 -364v162z" />
    <glyph glyph-name="question" unicode="?" horiz-adv-x="888" 
d="M465 1452q164 0 262 -93.5t98 -248.5q0 -136 -78.5 -240.5t-267.5 -212.5l-22 -264h-99l-28 355q173 96 243 174t70 172q0 85 -55.5 137.5t-143.5 52.5q-150 0 -317 -139l-72 143q187 164 410 164zM311 219h193v-219h-193v219z" />
    <glyph glyph-name="at" unicode="@" horiz-adv-x="1308" 
d="M686 -307q-291 0 -445.5 176t-154.5 508q0 410 186 713q113 183 269.5 284t328.5 101q173 0 270 -92.5t97 -256.5q0 -89 -31 -241l-153 -754h-99l-18 96q-59 -53 -107 -74.5t-104 -21.5q-105 0 -168 87.5t-63 236.5q0 250 131 415q131 168 327 168q69 0 119 -20
q10 69 10 112q0 111 -61 170.5t-176 59.5q-136 0 -268 -97t-224 -264q-149 -271 -149 -618q0 -289 126.5 -438.5t370.5 -149.5q112 0 215 33l19 -96q-124 -37 -248 -37zM651 467q0 -97 37 -151t103 -54q62 0 141 62l117 571q-50 16 -91 16q-131 0 -219 -131t-88 -313z" />
    <glyph glyph-name="A" unicode="A" horiz-adv-x="1171" 
d="M586 1241l-207 -752h412zM698 1448l426 -1448h-200l-88 322h-502l-88 -322h-197l426 1448h223z" />
    <glyph glyph-name="B" unicode="B" horiz-adv-x="1099" 
d="M1026 397q0 -186 -130 -291.5t-359 -105.5h-392v1434h406q206 0 321 -91t115 -253q0 -258 -268 -347q152 -35 229.5 -123t77.5 -223zM539 1266h-201v-445h162q131 0 211 67t80 177q0 97 -65.5 149t-186.5 52zM502 657h-164v-489h209q129 0 205.5 66t76.5 178
q0 115 -86.5 180t-240.5 65z" />
    <glyph glyph-name="C" unicode="C" horiz-adv-x="1001" 
d="M905 213l37 -170q-136 -59 -280 -59q-270 0 -423 193.5t-153 537.5q0 337 156 536t422 199q140 0 272 -55l-37 -174q-110 49 -221 49q-181 0 -289 -150q-106 -147 -106 -401q0 -263 105.5 -409t295.5 -146q111 0 221 49z" />
    <glyph glyph-name="D" unicode="D" horiz-adv-x="1173" 
d="M1085 719q0 -343 -166 -531t-466 -188h-308v1434h312q297 0 462.5 -187t165.5 -528zM465 1266h-127v-1098h129q203 0 312.5 141.5t109.5 405.5q0 265 -110.5 408t-313.5 143z" />
    <glyph glyph-name="E" unicode="E" horiz-adv-x="1028" 
d="M338 172h608v-172h-801v1434h791v-172h-598v-441h530v-170h-530v-479z" />
    <glyph glyph-name="F" unicode="F" horiz-adv-x="968" 
d="M793 602h-455v-602h-193v1434h781v-174h-588v-486h455v-172z" />
    <glyph glyph-name="G" unicode="G" horiz-adv-x="1165" 
d="M588 782h448v-690q-179 -106 -377 -106q-272 0 -422.5 191.5t-150.5 537.5q0 333 160 534q165 201 424 201q173 0 340 -80l-54 -172q-151 76 -284 76q-176 0 -285 -154q-104 -149 -104 -405q0 -270 100 -415.5t285 -145.5q106 0 180 47v409h-260v172z" />
    <glyph glyph-name="H" unicode="H" horiz-adv-x="1214" 
d="M874 0v645h-536v-645h-193v1434h193v-607h536v607h193v-1434h-193z" />
    <glyph glyph-name="I" unicode="I" horiz-adv-x="497" 
d="M154 1434h192v-1434h-192v1434z" />
    <glyph glyph-name="J" unicode="J" horiz-adv-x="806" 
d="M477 1434h193v-963q0 -239 -104 -361t-308 -122q-135 0 -223 32l28 168q74 -30 168 -30q121 0 183.5 78.5t62.5 230.5v967z" />
    <glyph glyph-name="K" unicode="K" horiz-adv-x="1085" 
d="M539 737l530 -737h-227l-494 696h-10v-696h-193v1434h193v-660h12l484 660h225z" />
    <glyph glyph-name="L" unicode="L" horiz-adv-x="909" 
d="M338 176h528v-176h-721v1434h193v-1258z" />
    <glyph glyph-name="M" unicode="M" horiz-adv-x="1581" 
d="M1401 1434l57 -1434h-188l-43 1192l-348 -1194h-189l-348 1194l-43 -1192h-176l57 1434h266l340 -1178l338 1178h277z" />
    <glyph glyph-name="N" unicode="N" horiz-adv-x="1220" 
d="M1073 0h-217l-530 1128v-1128h-181v1434h226l524 -1115v1115h178v-1434z" />
    <glyph glyph-name="O" unicode="O" horiz-adv-x="1212" 
d="M606 1454q235 0 377 -201q143 -198 143 -534q0 -338 -143 -539q-144 -200 -377 -200t-377 200q-143 198 -143 535t141 536q144 203 379 203zM608 147q148 0 235 153t87 415q0 263 -88 415q-88 156 -236 156q-149 0 -236 -152.5t-87 -414.5q0 -263 88 -418
q89 -154 237 -154z" />
    <glyph glyph-name="P" unicode="P" horiz-adv-x="1034" 
d="M465 467h-127v-467h-193v1434h328q246 0 378 -120.5t132 -346.5q0 -239 -136 -369.5t-382 -130.5zM471 1266h-133v-633h123q154 0 239.5 86.5t85.5 241.5q0 305 -315 305z" />
    <glyph glyph-name="Q" unicode="Q" horiz-adv-x="1212" 
d="M932 121l225 -275h-233l-140 172q-79 -36 -178 -36q-236 0 -379 198q-141 200 -141 537q0 336 143 534q144 203 377 203q232 0 377 -201q143 -198 143 -534q0 -192 -50 -346t-144 -252zM608 147q148 0 235 153t87 415q0 263 -88 415q-88 156 -236 156q-149 0 -236 -152.5
t-87 -414.5q0 -263 88 -418q89 -154 237 -154z" />
    <glyph glyph-name="R" unicode="R" horiz-adv-x="1128" 
d="M518 1266h-180v-557h137q150 0 241 81t91 216q0 127 -74 193.5t-215 66.5zM432 543h-94v-543h-193v1434h385q229 0 351.5 -105t122.5 -301q0 -155 -85 -261.5t-247 -156.5q60 -23 100 -64t94 -134l242 -412h-221l-211 371q-55 98 -108.5 135t-135.5 37z" />
    <glyph glyph-name="S" unicode="S" horiz-adv-x="1015" 
d="M571 829q210 -104 285 -198q82 -94 82 -242q0 -186 -122 -295.5t-327 -109.5q-221 0 -426 112l52 168q188 -108 377 -108q115 0 187.5 60.5t72.5 154.5q0 85 -60 151q-56 62 -215 146q-198 92 -282 186q-78 93 -78 225q0 167 112 267q114 102 301 102q185 0 357 -84
l-49 -168q-163 82 -312 82q-98 0 -160.5 -52t-62.5 -134q0 -73 59 -131t209 -132z" />
    <glyph glyph-name="T" unicode="T" horiz-adv-x="1038" 
d="M995 1260h-381v-1260h-192v1260h-381v174h954v-174z" />
    <glyph glyph-name="U" unicode="U" horiz-adv-x="1181" 
d="M856 1434h193v-949q0 -241 -119.5 -372t-339.5 -131q-217 0 -336 131t-119 372v949h193v-957q0 -155 69.5 -241t194.5 -86t194.5 85.5t69.5 239.5v959z" />
    <glyph glyph-name="V" unicode="V" horiz-adv-x="1146" 
d="M897 1434h201l-418 -1448h-213l-418 1448h205l321 -1198z" />
    <glyph glyph-name="W" unicode="W" horiz-adv-x="1714" 
d="M1659 1434l-311 -1444h-213l-279 1163l-278 -1163h-211l-310 1444h199l227 -1162l273 1162h215l270 -1162l227 1162h191z" />
    <glyph glyph-name="X" unicode="X" horiz-adv-x="1091" 
d="M664 739l380 -739h-208l-293 586l-291 -586h-205l381 739l-362 695h208l275 -549l272 549h205z" />
    <glyph glyph-name="Y" unicode="Y" horiz-adv-x="1087" 
d="M1059 1434l-420 -871v-563h-193v563l-419 871h204l314 -682l313 682h201z" />
    <glyph glyph-name="Z" unicode="Z" horiz-adv-x="1015" 
d="M291 172h651v-172h-870v158l651 1104h-619v172h838v-158z" />
    <glyph glyph-name="bracketleft" unicode="[" horiz-adv-x="724" 
d="M309 -92l348 18v-114l-503 -33v1687l503 -32v-115l-348 18v-1429z" />
    <glyph glyph-name="backslash" unicode="\" horiz-adv-x="684" 
d="M137 1628l574 -1894h-142l-575 1894h143z" />
    <glyph glyph-name="bracketright" unicode="]" horiz-adv-x="724" 
d="M66 1434l505 32v-1687l-505 33v114l348 -18v1429l-348 -18v115z" />
    <glyph glyph-name="asciicircum" unicode="^" horiz-adv-x="999" 
d="M500 1331l-238 -438h-160l320 590h156l319 -590h-164z" />
    <glyph glyph-name="underscore" unicode="_" horiz-adv-x="870" 
d="M-4 -113h878v-82h-878v82z" />
    <glyph glyph-name="grave" unicode="`" horiz-adv-x="1024" 
d="M442 1417l168 -235h-123l-266 235h221z" />
    <glyph glyph-name="a" unicode="a" horiz-adv-x="915" 
d="M240 322q0 -88 46 -136.5t130 -48.5q98 0 200 88v279q-68 10 -129 10q-141 0 -198 -57q-49 -49 -49 -135zM813 0h-151l-33 109q-135 -123 -277 -123q-134 0 -209 86.5t-75 240.5q0 162 86 248q51 51 123.5 73.5t181.5 22.5q79 0 157 -16v94q0 174 -184 174
q-119 0 -256 -61l-41 145q162 72 324 72q172 0 253 -78t81 -242v-559z" />
    <glyph glyph-name="b" unicode="b" horiz-adv-x="958" 
d="M883 530q0 -256 -95.5 -401t-261.5 -145q-119 0 -231 100l-29 -84h-139v1477h178v-504q99 92 225 92q165 0 259 -142.5t94 -392.5zM475 135q106 0 166.5 103t60.5 288t-59.5 287t-167.5 102q-92 0 -170 -75v-633q78 -72 170 -72z" />
    <glyph glyph-name="c" unicode="c" horiz-adv-x="768" 
d="M682 184l33 -151q-101 -49 -221 -49q-196 0 -309 143.5t-113 394.5q0 252 115.5 398.5t316.5 146.5q115 0 209 -43l-33 -158q-95 39 -164 39q-121 0 -191.5 -103t-70.5 -276q0 -178 70.5 -279.5t195.5 -101.5q77 0 162 39z" />
    <glyph glyph-name="d" unicode="d" horiz-adv-x="958" 
d="M256 524q0 -185 59.5 -287t167.5 -102q89 0 168 76v633q-81 71 -168 71q-106 0 -166.5 -103t-60.5 -288zM831 0h-141l-28 88q-118 -104 -236 -104q-162 0 -256 143.5t-94 394.5q0 254 97 398.5t267 144.5q114 0 211 -72v484h180v-1477z" />
    <glyph glyph-name="e" unicode="e" horiz-adv-x="897" 
d="M496 -16q-199 0 -310.5 140t-111.5 398q0 253 106 400q109 151 277 151q173 0 272.5 -147.5t99.5 -405.5v-74h-579q7 -145 77 -227t183 -82q123 0 242 68l45 -144q-148 -77 -301 -77zM455 922q-86 0 -142 -89t-67 -241h411q-8 155 -61 242.5t-141 87.5z" />
    <glyph glyph-name="f" unicode="f" horiz-adv-x="622" 
d="M489 1485q89 0 175 -25l-25 -145q-77 18 -123 18q-156 0 -156 -174v-108h236v-154h-236v-897h-178v897h-137v154h137v108q0 161 77.5 243.5t229.5 82.5z" />
    <glyph glyph-name="g" unicode="g" horiz-adv-x="958" 
d="M483 915q-106 0 -166.5 -99.5t-60.5 -278.5q0 -178 60 -276.5t169 -98.5q85 0 166 71v611q-81 71 -168 71zM664 967l26 84h141v-1006q0 -403 -409 -403q-167 0 -293 55l41 147q124 -51 246 -51q235 0 235 242v61q-109 -86 -221 -86q-166 0 -260 138t-94 384
q0 250 95 392.5t261 142.5q126 0 232 -100z" />
    <glyph glyph-name="h" unicode="h" horiz-adv-x="976" 
d="M508 907q-102 0 -203 -82v-825h-178v1477h178v-514q136 102 273 102q135 0 207.5 -80.5t72.5 -232.5v-752h-180v711q0 196 -170 196z" />
    <glyph glyph-name="i" unicode="i" horiz-adv-x="440" 
d="M125 1427h190v-180h-190v180zM131 1051h178v-1051h-178v1051z" />
    <glyph glyph-name="j" unicode="j" horiz-adv-x="440" 
d="M125 1427h192v-180h-192v180zM82 -367l-113 107q100 87 131 162q31 76 31 198v951h180v-949q0 -169 -45 -260q-43 -98 -184 -209z" />
    <glyph glyph-name="k" unicode="k" horiz-adv-x="878" 
d="M489 549l373 -549h-209l-344 528h-4v-528h-178v1477h178v-908h4l336 482h207z" />
    <glyph glyph-name="l" unicode="l" horiz-adv-x="440" 
d="M131 1477h178v-1477h-178v1477z" />
    <glyph glyph-name="m" unicode="m" horiz-adv-x="1507" 
d="M1389 756v-756h-179v715q0 94 -43 143t-125 49q-95 0 -206 -88q12 -35 12 -78v-741h-180v715q0 94 -42 143t-122 49q-98 0 -199 -82v-825h-178v1051h139l31 -95q138 109 274 109q169 0 234 -123q156 123 305 123q135 0 207 -80t72 -229z" />
    <glyph glyph-name="n" unicode="n" horiz-adv-x="976" 
d="M508 907q-102 0 -203 -82v-825h-178v1051h139l31 -95q138 109 281 109q135 0 207.5 -80.5t72.5 -232.5v-752h-180v711q0 196 -170 196z" />
    <glyph glyph-name="o" unicode="o" horiz-adv-x="935" 
d="M469 1073q178 0 285 -149q110 -149 110 -396q0 -250 -110 -399t-287 -149q-175 0 -285 149q-108 150 -108 395q0 248 108 398q112 151 287 151zM469 133q97 0 156 106.5t59 284.5t-59.5 286t-157.5 108q-97 0 -155 -106t-58 -286q0 -178 59 -285.5t156 -107.5z" />
    <glyph glyph-name="p" unicode="p" horiz-adv-x="958" 
d="M475 135q106 0 166.5 103t60.5 288t-59.5 287t-167.5 102q-92 0 -170 -75v-633q78 -72 170 -72zM518 -16q-106 0 -213 73v-407h-178v1401h139l29 -88q110 104 237 104q162 0 256.5 -143.5t94.5 -393.5q0 -256 -97 -401t-268 -145z" />
    <glyph glyph-name="q" unicode="q" horiz-adv-x="958" 
d="M690 1051h141v-1401h-180v430q-104 -96 -225 -96q-162 0 -256 143.5t-94 394.5q0 254 95 399.5t261 145.5q126 0 232 -100zM256 524q0 -185 59.5 -287t167.5 -102q89 0 168 76v633q-81 71 -168 71q-106 0 -166.5 -103t-60.5 -288z" />
    <glyph glyph-name="r" unicode="r" horiz-adv-x="649" 
d="M305 743v-743h-178v1051h137l33 -166q125 180 311 180v-188q-166 -9 -303 -134z" />
    <glyph glyph-name="s" unicode="s" horiz-adv-x="821" 
d="M463 610q159 -67 223 -139.5t64 -185.5q0 -139 -93.5 -220t-253.5 -81q-181 0 -350 94l47 153q166 -94 306 -94q76 0 124 38t48 99q0 57 -43 97.5t-156 91.5q-163 70 -223 139q-62 71 -62 178q0 130 89 208.5t237 78.5q154 0 297 -76l-45 -153q-135 75 -254 75
q-68 0 -109 -34t-41 -91q0 -51 41.5 -89t153.5 -89z" />
    <glyph glyph-name="t" unicode="t" horiz-adv-x="673" 
d="M463 -14q-146 0 -216.5 71t-70.5 219v621h-129v154h129v286h178v-286h256v-154h-256v-592q0 -80 39.5 -122t114.5 -42q38 0 104 17v-154q-63 -18 -149 -18z" />
    <glyph glyph-name="u" unicode="u" horiz-adv-x="976" 
d="M850 0h-139l-31 96q-139 -110 -281 -110q-135 0 -207.5 80.5t-72.5 232.5v752h180v-711q0 -197 170 -197q94 0 203 82v826h178v-1051z" />
    <glyph glyph-name="v" unicode="v" horiz-adv-x="884" 
d="M672 1051h176l-307 -1061h-195l-307 1061h180l227 -875z" />
    <glyph glyph-name="w" unicode="w" horiz-adv-x="1370" 
d="M1327 1051l-250 -1059h-188l-205 819l-203 -819h-190l-246 1059h176l172 -844l203 844h182l203 -840l172 840h174z" />
    <glyph glyph-name="x" unicode="x" horiz-adv-x="864" 
d="M537 541l288 -541h-186l-209 412l-207 -412h-186l287 543l-273 508h189l192 -389l197 389h184z" />
    <glyph glyph-name="y" unicode="y" horiz-adv-x="890" 
d="M125 -360l-47 145q188 71 272 215l-307 1051h182l228 -875l225 875h178l-276 -940q-61 -206 -158 -308q-90 -97 -297 -163z" />
    <glyph glyph-name="z" unicode="z" horiz-adv-x="819" 
d="M264 152h486v-152h-687v143l488 756h-465v152h664v-142z" />
    <glyph glyph-name="braceleft" unicode="{" horiz-adv-x="937" 
d="M881 -113l-21 -127q-312 42 -569 160l-17 105q172 109 172 254q0 125 -101 201.5t-284 88.5v107q182 12 283.5 89t101.5 202q0 145 -172 254l17 104q257 118 569 160l21 -127q-220 -24 -414 -105q158 -110 158 -278q0 -122 -84.5 -213t-239.5 -139q155 -48 239.5 -139.5
t84.5 -213.5q0 -168 -158 -278q194 -81 414 -105z" />
    <glyph glyph-name="bar" unicode="|" horiz-adv-x="534" 
d="M199 1628h135v-1894h-135v1894z" />
    <glyph glyph-name="braceright" unicode="}" horiz-adv-x="937" 
d="M80 -240l-21 127q224 25 414 105q-160 112 -160 278q0 122 85 214t241 139q-156 48 -241 139t-85 213q0 166 160 278q-190 80 -414 105l21 127q308 -42 567 -160l19 -104q-174 -106 -174 -254q0 -125 102 -202t285 -89v-107q-183 -12 -285 -88.5t-102 -201.5
q0 -148 174 -254l-19 -105q-259 -118 -567 -160z" />
    <glyph glyph-name="asciitilde" unicode="~" horiz-adv-x="999" 
d="M674 739q33 0 60 30.5t69 115.5l115 -45q-56 -141 -107.5 -201.5t-116.5 -60.5q-39 0 -80.5 15.5t-121.5 61.5q-75 42 -107.5 55t-58.5 13q-33 0 -61 -30.5t-70 -114.5l-113 43q56 142 106.5 202t116.5 60q37 0 79 -16t124 -60q70 -40 104.5 -54t61.5 -14z" />
    <glyph glyph-name="uni00A0" unicode="&#xa0;" horiz-adv-x="325" 
 />
    <glyph glyph-name="exclamdown" unicode="&#xa1;" horiz-adv-x="462" 
d="M135 0v373l47 667h99l47 -667v-373h-193zM328 1214h-193v220h193v-220z" />
    <glyph glyph-name="cent" unicode="&#xa2;" horiz-adv-x="831" 
d="M719 479l41 -137q-133 -74 -271 -74l-26 -276h-111l31 289q-139 35 -220 156t-81 294q0 200 106 324q109 130 285 139l25 248h110l-26 -252q85 -12 178 -57l-39 -142q-76 44 -164 58l-63 -635h8q108 0 217 65zM250 733q0 -110 41.5 -190t114.5 -111l63 615
q-100 -17 -159.5 -102t-59.5 -212z" />
    <glyph glyph-name="sterling" unicode="&#xa3;" horiz-adv-x="976" 
d="M291 164h596v-164h-778l-31 135q66 69 101.5 155.5t47.5 207.5l13 131h-150v153h164l22 240q20 210 127 317q109 109 293 109q107 0 203 -35l-29 -170q-98 31 -161 31q-100 0 -170 -64q-70 -77 -82 -219l-21 -209h334v-153h-348l-14 -148q-11 -107 -37.5 -179.5
t-79.5 -137.5z" />
    <glyph glyph-name="yen" unicode="&#xa5;" horiz-adv-x="1050" 
d="M621 354h294v-116h-294v-238h-191v238h-295v116h295v170h-295v117h273l-365 793h205l278 -682l281 682h201l-365 -793h272v-117h-294v-170z" />
    <glyph glyph-name="section" unicode="&#xa7;" horiz-adv-x="1019" 
d="M244 743q0 -59 51.5 -101t193.5 -105l101 -48q99 54 142.5 101.5t43.5 101.5q0 56 -52.5 99.5t-193.5 105.5l-100 47q-99 -54 -142.5 -100.5t-43.5 -100.5zM817 227q0 -106 -89.5 -172.5t-231.5 -66.5q-159 0 -314 61l37 146q155 -66 277 -66q72 0 113.5 26.5t41.5 71.5
q0 44 -49 78q-51 35 -199 105q-185 78 -253 143q-72 72 -72 172q0 87 53.5 156.5t173.5 136.5q-55 43 -78.5 86.5t-23.5 103.5q0 105 90.5 172.5t232.5 67.5q154 0 312 -64l-37 -145q-156 66 -277 66q-69 0 -112 -28t-43 -71q0 -40 47 -78q44 -31 200 -104q183 -77 254 -145
q72 -69 72 -170q0 -87 -53 -157t-174 -138q54 -41 78 -85.5t24 -101.5z" />
    <glyph glyph-name="dieresis" unicode="&#xa8;" horiz-adv-x="1024" 
d="M301 1364h143v-174h-143v174zM580 1364h143v-174h-143v174z" />
    <glyph glyph-name="copyright" unicode="&#xa9;" horiz-adv-x="1341" 
d="M1245 717q0 -344 -160 -557q-159 -211 -413 -211q-253 0 -416 211q-160 213 -160 557t160 557q163 211 416 211q254 0 413 -211q160 -213 160 -557zM1186 717q0 323 -144 516q-144 197 -370 197q-229 0 -373 -197q-143 -192 -143 -516q0 -323 143 -518q145 -195 373 -195
q225 0 370 195q144 197 144 518zM860 473l29 -104q-88 -43 -176 -43q-150 0 -237 105.5t-87 289.5q0 183 88 291t236 108q90 0 172 -39l-29 -108q-60 35 -133 35q-93 0 -149 -77t-56 -206q0 -135 55.5 -211t153.5 -76q67 0 133 35z" />
    <glyph glyph-name="ordfeminine" unicode="&#xaa;" horiz-adv-x="712" 
d="M223 989q0 -55 30 -86t81 -31q62 0 129 54v178q-48 6 -94 6q-69 0 -107.5 -32t-38.5 -89zM604 793h-106l-25 67q-86 -74 -182 -74q-86 0 -137.5 53t-51.5 144q0 97 63.5 151t180.5 54q79 0 117 -10v59q0 106 -117 106q-86 0 -170 -40l-33 94q114 47 222 47
q225 0 225 -201v-336zM88 668h533v-76h-533v76z" />
    <glyph glyph-name="guillemotleft" unicode="&#xab;" horiz-adv-x="911" 
d="M586 623l258 -375l-66 -53l-358 380v97l358 379l66 -52zM225 623l258 -375l-65 -53l-359 380v97l359 379l65 -52z" />
    <glyph glyph-name="registered" unicode="&#xae;" horiz-adv-x="696" 
d="M70 1128q0 141 78 230.5t200 89.5t200.5 -89.5t78.5 -230.5t-78.5 -230t-200.5 -89t-200 89t-78 230zM106 1128q0 -127 68 -206.5t174 -79.5t175 79.5t69 206.5t-69 207t-175 80t-174 -80t-68 -207zM340 1251h-41v-112h29q38 0 59 16t21 45q0 51 -68 51zM315 1087h-16
v-120h-66v338h111q61 0 97 -26.5t36 -70.5q0 -75 -86 -100q28 -10 47 -43l66 -98h-76l-61 92q-17 28 -52 28z" />
    <glyph glyph-name="overscore" unicode="&#xaf;" horiz-adv-x="1024" 
d="M281 1307h462v-105h-462v105z" />
    <glyph glyph-name="degree" unicode="&#xb0;" horiz-adv-x="745" 
d="M373 1448q124 0 211 -90q86 -89 86 -217q0 -132 -86 -221t-211 -89t-211 89t-86 219t86 219q87 90 211 90zM373 934q82 0 134 58t52 149q0 88 -53 146.5t-133 58.5t-133.5 -58.5t-53.5 -146.5t54 -147.5t133 -59.5z" />
    <glyph glyph-name="plusminus" unicode="&#xb1;" horiz-adv-x="999" 
d="M893 684h-318v-324h-153v324h-316v143h316v326h153v-326h318v-143zM106 141h787v-141h-787v141z" />
    <glyph glyph-name="uni00B2" unicode="&#xb2;" horiz-adv-x="739" 
d="M266 969h385v-119h-547l-20 102l311 348q101 112 101 183q0 49 -33.5 78.5t-87.5 29.5q-104 0 -217 -116l-56 100q130 139 287 139q109 0 177.5 -60.5t68.5 -158.5q0 -65 -32 -124.5t-111 -145.5z" />
    <glyph glyph-name="uni00B3" unicode="&#xb3;" horiz-adv-x="741" 
d="M647 1114q0 -124 -141 -194.5t-408 -77.5v114q406 15 406 162q0 57 -68 85.5t-211 33.5l-14 92q146 38 214.5 82t68.5 100q0 41 -34.5 64.5t-94.5 23.5q-104 0 -232 -67l-35 106q140 76 291 76q115 0 181.5 -49t66.5 -131q0 -75 -59 -131.5t-183 -99.5q252 -24 252 -189z
" />
    <glyph glyph-name="acute" unicode="&#xb4;" horiz-adv-x="1024" 
d="M582 1417h221l-266 -235h-123z" />
    <glyph glyph-name="uni00B5" unicode="&#xb5;" horiz-adv-x="985" 
d="M289 74l10 -131v-293h-172v1401h178v-709q0 -197 170 -197q102 0 203 82v824h180v-1051h-121l-28 96q-117 -108 -242 -108q-119 0 -178 86z" />
    <glyph glyph-name="paragraph" unicode="&#xb6;" horiz-adv-x="952" 
d="M498 1434h305v-1434h-129v1313h-178v-703q-198 -5 -317.5 106t-119.5 302q0 195 117.5 305.5t321.5 110.5z" />
    <glyph glyph-name="uni00B7" unicode="&#xb7;" horiz-adv-x="378" 
d="M94 741h191v-237h-191v237z" />
    <glyph glyph-name="cedilla" unicode="&#xb8;" horiz-adv-x="1024" 
d="M674 -160q0 -124 -318 -145l-10 69q94 11 135 26t41 40q0 49 -108 27l-27 39l84 122l115 -10l-64 -80q72 2 112 -21t40 -67z" />
    <glyph glyph-name="uni00B9" unicode="&#xb9;" horiz-adv-x="618" 
d="M358 1710h91v-860h-138v711l-205 -72l-24 115z" />
    <glyph glyph-name="ordmasculine" unicode="&#xba;" horiz-adv-x="714" 
d="M90 1112q0 148 74.5 240t193.5 92t193 -91.5t74 -240.5t-74 -240.5t-193 -91.5t-193.5 92t-74.5 240zM213 1112q0 -103 39.5 -166t105.5 -63q63 0 103.5 63.5t40.5 165.5q0 104 -40 166.5t-106 62.5q-64 0 -103.5 -63t-39.5 -166zM100 668h514v-76h-514v76z" />
    <glyph glyph-name="guillemotright" unicode="&#xbb;" horiz-adv-x="911" 
d="M492 672v-97l-359 -380l-67 53l260 375l-260 376l67 52zM852 672v-97l-358 -380l-66 53l258 375l-258 376l66 52z" />
    <glyph glyph-name="onequarter" unicode="&#xbc;" horiz-adv-x="1527" 
d="M328 1440h90v-860h-137v710l-205 -71l-25 114zM752 698l-373 -698h-98l405 735l373 699h98zM1487 184h-123v-184h-131v184h-393l-13 111l359 565h178v-567h123v-109zM1235 739l-279 -448h279v448z" />
    <glyph glyph-name="onehalf" unicode="&#xbd;" horiz-adv-x="1544" 
d="M328 1440h90v-860h-137v710l-205 -71l-25 114zM752 698l-373 -698h-98l405 735l373 699h98zM1102 119h385v-119h-547l-20 102l311 349q100 111 100 182q0 49 -33.5 78.5t-87.5 29.5q-104 0 -217 -116l-55 100q130 139 287 139q109 0 177 -60.5t68 -158.5
q0 -65 -32 -124.5t-111 -145.5z" />
    <glyph glyph-name="threequarters" unicode="&#xbe;" horiz-adv-x="1611" 
d="M616 844q0 -124 -140.5 -195t-407.5 -78v115q405 15 405 162q0 57 -67.5 85.5t-210.5 33.5l-15 92q146 38 214.5 82t68.5 100q0 41 -34.5 64.5t-94.5 23.5q-104 0 -232 -67l-34 106q140 76 290 76q115 0 181.5 -49t66.5 -131q0 -76 -58.5 -133t-182.5 -99
q251 -24 251 -188zM836 698l-373 -698h-98l405 735l373 699h98zM1571 184h-123v-184h-131v184h-393l-13 111l359 565h178v-567h123v-109zM1319 739l-279 -448h279v448z" />
    <glyph glyph-name="questiondown" unicode="&#xbf;" horiz-adv-x="888" 
d="M424 -18q-164 0 -262.5 93.5t-98.5 248.5q0 136 79 240t268 212l22 264h98l29 -354q-173 -96 -243 -174t-70 -172q0 -85 55 -137.5t143 -52.5q151 0 318 139l72 -144q-186 -163 -410 -163zM578 1214h-193v220h193v-220z" />
    <glyph glyph-name="Agrave" unicode="&#xc0;" horiz-adv-x="1171" 
d="M586 1241l-207 -752h412zM698 1448l426 -1448h-200l-88 322h-502l-88 -322h-197l426 1448h223zM520 1731l178 -197h-145l-266 197h233z" />
    <glyph glyph-name="Aacute" unicode="&#xc1;" horiz-adv-x="1171" 
d="M586 1241l-207 -752h412zM698 1448l426 -1448h-200l-88 322h-502l-88 -322h-197l426 1448h223zM651 1731h234l-267 -197h-145z" />
    <glyph glyph-name="Acircumflex" unicode="&#xc2;" horiz-adv-x="1171" 
d="M586 1241l-207 -752h412zM698 1448l426 -1448h-200l-88 322h-502l-88 -322h-197l426 1448h223zM836 1534h-127l-125 106l-123 -106h-125l170 203h160z" />
    <glyph glyph-name="Atilde" unicode="&#xc3;" horiz-adv-x="1171" 
d="M586 1241l-207 -752h412zM698 1448l426 -1448h-200l-88 322h-502l-88 -322h-197l426 1448h223zM475 1624q-24 0 -41.5 -20.5t-42.5 -77.5l-92 30q37 100 75.5 142.5t92.5 42.5q30 0 57.5 -10.5t77.5 -40.5q73 -45 109 -45q24 0 41.5 20.5t42.5 77.5l92 -31
q-37 -100 -75.5 -142t-92.5 -42q-30 0 -57.5 10.5t-77.5 40.5q-73 45 -109 45z" />
    <glyph glyph-name="Adieresis" unicode="&#xc4;" horiz-adv-x="1171" 
d="M586 1241l-207 -752h412zM698 1448l426 -1448h-200l-88 322h-502l-88 -322h-197l426 1448h223zM360 1704h154v-170h-154v170zM657 1704h154v-170h-154v170z" />
    <glyph glyph-name="Aring" unicode="&#xc5;" horiz-adv-x="1171" 
d="M586 1671q-56 0 -91.5 -34.5t-35.5 -88.5t35.5 -87.5t91.5 -33.5t91.5 33.5t35.5 87.5t-35.5 88.5t-91.5 34.5zM586 1241l-207 -752h412zM711 1405l413 -1405h-200l-88 322h-502l-88 -322h-197l412 1403q-72 54 -72 145q0 80 56 132.5t141 52.5q86 0 142 -52.5t56 -132.5
q0 -92 -73 -143z" />
    <glyph glyph-name="AE" unicode="&#xc6;" horiz-adv-x="1718" 
d="M821 1266l-364 -777h383v777h-19zM1634 172v-172h-794v322h-461l-152 -322h-202l684 1434h915v-172h-594v-441h526v-170h-526v-479h604z" />
    <glyph glyph-name="Ccedilla" unicode="&#xc7;" horiz-adv-x="1001" 
d="M770 -160q0 -124 -317 -145l-11 69q94 11 135 26t41 40q0 49 -108 27l-27 39l68 98q-221 38 -343 226.5t-122 494.5q0 337 156 536t422 199q140 0 272 -55l-37 -174q-110 49 -221 49q-181 0 -289 -150q-106 -147 -106 -401q0 -263 105.5 -409t295.5 -146q111 0 221 49
l37 -170q-136 -59 -280 -59l-44 -56q72 2 112 -21t40 -67z" />
    <glyph glyph-name="Egrave" unicode="&#xc8;" horiz-adv-x="1028" 
d="M338 172h608v-172h-801v1434h791v-172h-598v-441h530v-170h-530v-479zM483 1722l179 -196h-146l-266 196h233z" />
    <glyph glyph-name="Eacute" unicode="&#xc9;" horiz-adv-x="1028" 
d="M338 172h608v-172h-801v1434h791v-172h-598v-441h530v-170h-530v-479zM614 1722h234l-266 -196h-146z" />
    <glyph glyph-name="Ecircumflex" unicode="&#xca;" horiz-adv-x="1028" 
d="M338 172h608v-172h-801v1434h791v-172h-598v-441h530v-170h-530v-479zM799 1526h-127l-125 106l-123 -106h-125l170 203h160z" />
    <glyph glyph-name="Edieresis" unicode="&#xcb;" horiz-adv-x="1028" 
d="M338 172h608v-172h-801v1434h791v-172h-598v-441h530v-170h-530v-479zM324 1696h153v-170h-153v170zM621 1696h153v-170h-153v170z" />
    <glyph glyph-name="Igrave" unicode="&#xcc;" horiz-adv-x="497" 
d="M154 1434h192v-1434h-192v1434zM184 1722l178 -196h-145l-266 196h233z" />
    <glyph glyph-name="Iacute" unicode="&#xcd;" horiz-adv-x="497" 
d="M154 1434h192v-1434h-192v1434zM315 1722h234l-266 -196h-146z" />
    <glyph glyph-name="Icircumflex" unicode="&#xce;" horiz-adv-x="497" 
d="M154 1434h192v-1434h-192v1434zM500 1526h-127l-125 106l-123 -106h-125l170 203h160z" />
    <glyph glyph-name="Idieresis" unicode="&#xcf;" horiz-adv-x="497" 
d="M154 1434h192v-1434h-192v1434zM25 1696h153v-170h-153v170zM322 1696h153v-170h-153v170z" />
    <glyph glyph-name="Eth" unicode="&#xd0;" horiz-adv-x="1191" 
d="M1106 719q0 -343 -166.5 -531t-466.5 -188h-307v664h-125v141h125v629h311q298 0 463.5 -187t165.5 -528zM612 664h-258v-496h133q202 0 312 142t110 405t-111.5 407t-314.5 144h-129v-463h258v-139z" />
    <glyph glyph-name="Ntilde" unicode="&#xd1;" horiz-adv-x="1220" 
d="M1073 0h-217l-530 1128v-1128h-181v1434h226l524 -1115v1115h178v-1434zM514 1616q-24 0 -41.5 -20.5t-42.5 -77.5l-92 30q37 100 75.5 142.5t92.5 42.5q29 0 56.5 -10.5t78.5 -41.5q73 -45 109 -45q24 0 41 21t43 78l92 -31q-37 -100 -75.5 -142t-92.5 -42
q-30 0 -57.5 10.5t-77.5 40.5q-73 45 -109 45z" />
    <glyph glyph-name="Ograve" unicode="&#xd2;" horiz-adv-x="1212" 
d="M606 1454q235 0 377 -201q143 -198 143 -534q0 -338 -143 -539q-144 -200 -377 -200t-377 200q-143 198 -143 535t141 536q144 203 379 203zM608 147q148 0 235 153t87 415q0 263 -88 415q-88 156 -236 156q-149 0 -236 -152.5t-87 -414.5q0 -263 88 -418
q89 -154 237 -154zM541 1735l178 -197h-146l-266 197h234z" />
    <glyph glyph-name="Oacute" unicode="&#xd3;" horiz-adv-x="1212" 
d="M606 1454q235 0 377 -201q143 -198 143 -534q0 -338 -143 -539q-144 -200 -377 -200t-377 200q-143 198 -143 535t141 536q144 203 379 203zM608 147q148 0 235 153t87 415q0 263 -88 415q-88 156 -236 156q-149 0 -236 -152.5t-87 -414.5q0 -263 88 -418
q89 -154 237 -154zM672 1735h233l-266 -197h-145z" />
    <glyph glyph-name="Ocircumflex" unicode="&#xd4;" horiz-adv-x="1212" 
d="M606 1454q235 0 377 -201q143 -198 143 -534q0 -338 -143 -539q-144 -200 -377 -200t-377 200q-143 198 -143 535t141 536q144 203 379 203zM608 147q148 0 235 153t87 415q0 263 -88 415q-88 156 -236 156q-149 0 -236 -152.5t-87 -414.5q0 -263 88 -418
q89 -154 237 -154zM856 1538h-127l-125 107l-123 -107h-125l170 203h160z" />
    <glyph glyph-name="Otilde" unicode="&#xd5;" horiz-adv-x="1212" 
d="M606 1454q235 0 377 -201q143 -198 143 -534q0 -338 -143 -539q-144 -200 -377 -200t-377 200q-143 198 -143 535t141 536q144 203 379 203zM608 147q148 0 235 153t87 415q0 263 -88 415q-88 156 -236 156q-149 0 -236 -152.5t-87 -414.5q0 -263 88 -418
q89 -154 237 -154zM496 1628q-24 0 -41.5 -20.5t-42.5 -77.5l-93 31q37 100 75.5 142t92.5 42q30 0 58 -10.5t78 -40.5q73 -45 108 -45q24 0 41.5 20.5t42.5 77.5l92 -31q-37 -100 -75.5 -142t-92.5 -42q-30 0 -57.5 10.5t-77.5 40.5q-73 45 -108 45z" />
    <glyph glyph-name="Odieresis" unicode="&#xd6;" horiz-adv-x="1212" 
d="M606 1454q235 0 377 -201q143 -198 143 -534q0 -338 -143 -539q-144 -200 -377 -200t-377 200q-143 198 -143 535t141 536q144 203 379 203zM608 147q148 0 235 153t87 415q0 263 -88 415q-88 156 -236 156q-149 0 -236 -152.5t-87 -414.5q0 -263 88 -418
q89 -154 237 -154zM381 1708h154v-170h-154v170zM678 1708h153v-170h-153v170z" />
    <glyph glyph-name="multiply" unicode="&#xd7;" horiz-adv-x="999" 
d="M602 727l287 -285l-107 -104l-282 287l-287 -287l-102 102l286 287l-286 283l104 106l285 -289l284 289l105 -104z" />
    <glyph glyph-name="Oslash" unicode="&#xd8;" horiz-adv-x="1212" 
d="M606 1288q-150 0 -237.5 -153t-87.5 -416q0 -238 71 -389l441 872q-77 86 -187 86zM608 145q147 0 236 154q88 152 88 416q0 243 -74 391l-440 -875q77 -86 190 -86zM1126 719q0 -338 -143 -539q-144 -200 -377 -200q-154 0 -270 90l-90 -166h-150l144 260
q-154 202 -154 551q0 337 141 536q144 203 379 203q151 0 273 -90l88 166h149l-145 -260q155 -200 155 -551z" />
    <glyph glyph-name="Ugrave" unicode="&#xd9;" horiz-adv-x="1181" 
d="M856 1434h193v-949q0 -241 -119.5 -372t-339.5 -131q-217 0 -336 131t-119 372v949h193v-957q0 -155 69.5 -241t194.5 -86t194.5 85.5t69.5 239.5v959zM524 1714l178 -196h-145l-266 196h233z" />
    <glyph glyph-name="Uacute" unicode="&#xda;" horiz-adv-x="1181" 
d="M856 1434h193v-949q0 -241 -119.5 -372t-339.5 -131q-217 0 -336 131t-119 372v949h193v-957q0 -155 69.5 -241t194.5 -86t194.5 85.5t69.5 239.5v959zM655 1714h234l-266 -196h-146z" />
    <glyph glyph-name="Ucircumflex" unicode="&#xdb;" horiz-adv-x="1181" 
d="M856 1434h193v-949q0 -241 -119.5 -372t-339.5 -131q-217 0 -336 131t-119 372v949h193v-957q0 -155 69.5 -241t194.5 -86t194.5 85.5t69.5 239.5v959zM840 1526h-127l-125 106l-123 -106h-125l170 203h160z" />
    <glyph glyph-name="Udieresis" unicode="&#xdc;" horiz-adv-x="1181" 
d="M856 1434h193v-949q0 -241 -119.5 -372t-339.5 -131q-217 0 -336 131t-119 372v949h193v-957q0 -155 69.5 -241t194.5 -86t194.5 85.5t69.5 239.5v959zM365 1696h153v-170h-153v170zM662 1696h153v-170h-153v170z" />
    <glyph glyph-name="Yacute" unicode="&#xdd;" horiz-adv-x="1087" 
d="M1059 1434l-420 -871v-563h-193v563l-419 871h204l314 -682l313 682h201zM608 1714h234l-267 -196h-145z" />
    <glyph glyph-name="Thorn" unicode="&#xde;" horiz-adv-x="1054" 
d="M465 242h-127v-242h-193v1434h193v-226h137q246 0 377 -120.5t131 -346.5q0 -238 -136.5 -368.5t-381.5 -130.5zM471 1042h-133v-632h123q154 0 239.5 85t85.5 240q0 152 -80 229.5t-235 77.5z" />
    <glyph glyph-name="germandbls" unicode="&#xdf;" horiz-adv-x="1081" 
d="M1010 309q0 -149 -85 -235t-231 -86q-110 0 -205 39v159q91 -43 173 -43q78 0 123.5 47t45.5 129q0 212 -307 347v143q115 55 176.5 136.5t61.5 178.5q0 92 -53.5 149.5t-141.5 57.5q-97 0 -152 -71.5t-55 -198.5v-1061h-178v897h-137v154h137v16q0 198 101.5 308
t287.5 110q166 0 267.5 -97t101.5 -255q0 -123 -60 -222.5t-175 -165.5h2q303 -149 303 -436z" />
    <glyph glyph-name="agrave" unicode="&#xe0;" horiz-adv-x="915" 
d="M240 322q0 -88 46 -136.5t130 -48.5q98 0 200 88v279q-68 10 -129 10q-141 0 -198 -57q-49 -49 -49 -135zM813 0h-151l-33 109q-135 -123 -277 -123q-134 0 -209 86.5t-75 240.5q0 162 86 248q51 51 123.5 73.5t181.5 22.5q79 0 157 -16v94q0 174 -184 174
q-119 0 -256 -61l-41 145q162 72 324 72q172 0 253 -78t81 -242v-559zM389 1419l168 -235h-123l-266 235h221z" />
    <glyph glyph-name="aacute" unicode="&#xe1;" horiz-adv-x="915" 
d="M240 322q0 -88 46 -136.5t130 -48.5q98 0 200 88v279q-68 10 -129 10q-141 0 -198 -57q-49 -49 -49 -135zM813 0h-151l-33 109q-135 -123 -277 -123q-134 0 -209 86.5t-75 240.5q0 162 86 248q51 51 123.5 73.5t181.5 22.5q79 0 157 -16v94q0 174 -184 174
q-119 0 -256 -61l-41 145q162 72 324 72q172 0 253 -78t81 -242v-559zM528 1419h222l-267 -235h-123z" />
    <glyph glyph-name="acircumflex" unicode="&#xe2;" horiz-adv-x="915" 
d="M240 322q0 -88 46 -136.5t130 -48.5q98 0 200 88v279q-68 10 -129 10q-141 0 -198 -57q-49 -49 -49 -135zM813 0h-151l-33 109q-135 -123 -277 -123q-134 0 -209 86.5t-75 240.5q0 162 86 248q51 51 123.5 73.5t181.5 22.5q79 0 157 -16v94q0 174 -184 174
q-119 0 -256 -61l-41 145q162 72 324 72q172 0 253 -78t81 -242v-559zM700 1184h-116l-125 133l-127 -133h-115l172 237h139z" />
    <glyph glyph-name="atilde" unicode="&#xe3;" horiz-adv-x="915" 
d="M240 322q0 -88 46 -136.5t130 -48.5q98 0 200 88v279q-68 10 -129 10q-141 0 -198 -57q-49 -49 -49 -135zM813 0h-151l-33 109q-135 -123 -277 -123q-134 0 -209 86.5t-75 240.5q0 162 86 248q51 51 123.5 73.5t181.5 22.5q79 0 157 -16v94q0 174 -184 174
q-119 0 -256 -61l-41 145q162 72 324 72q172 0 253 -78t81 -242v-559zM350 1276q-24 0 -41 -21t-43 -79l-88 28q37 105 74.5 149t91.5 44q29 0 55.5 -10.5t77.5 -43.5q48 -29 67.5 -37t37.5 -8q24 0 41 21.5t43 79.5l88 -29q-37 -105 -74.5 -148.5t-91.5 -43.5
q-48 0 -133 53q-48 29 -67.5 37t-37.5 8z" />
    <glyph glyph-name="adieresis" unicode="&#xe4;" horiz-adv-x="915" 
d="M240 322q0 -88 46 -136.5t130 -48.5q98 0 200 88v279q-68 10 -129 10q-141 0 -198 -57q-49 -49 -49 -135zM813 0h-151l-33 109q-135 -123 -277 -123q-134 0 -209 86.5t-75 240.5q0 162 86 248q51 51 123.5 73.5t181.5 22.5q79 0 157 -16v94q0 174 -184 174
q-119 0 -256 -61l-41 145q162 72 324 72q172 0 253 -78t81 -242v-559zM248 1366h143v-174h-143v174zM526 1366h144v-174h-144v174z" />
    <glyph glyph-name="aring" unicode="&#xe5;" horiz-adv-x="915" 
d="M240 322q0 -88 46 -136.5t130 -48.5q98 0 200 88v279q-68 10 -129 10q-141 0 -198 -57q-49 -49 -49 -135zM813 0h-151l-33 109q-135 -123 -277 -123q-134 0 -209 86.5t-75 240.5q0 162 86 248q51 51 123.5 73.5t181.5 22.5q79 0 157 -16v94q0 174 -184 174
q-119 0 -256 -61l-41 145q162 72 324 72q172 0 253 -78t81 -242v-559zM459 1171q-79 0 -132 52.5t-53 130.5t53 130t132 52t131.5 -52t52.5 -130t-52.5 -130.5t-131.5 -52.5zM459 1477q-51 0 -84 -34.5t-33 -88.5t33 -88.5t84 -34.5t83.5 34.5t32.5 88.5t-32.5 88.5
t-83.5 34.5z" />
    <glyph glyph-name="ae" unicode="&#xe6;" horiz-adv-x="1435" 
d="M993 922q-88 0 -144 -89t-63 -241h410q-6 156 -59.5 243t-143.5 87zM1036 -16q-198 0 -313 143q-178 -141 -344 -141q-148 0 -229.5 86t-81.5 241q0 162 86 248q51 51 123.5 73.5t181.5 22.5q79 0 157 -16v94q0 174 -184 174q-119 0 -256 -61l-41 145q162 72 320 72
q115 0 182 -37t96 -117q96 162 273 162q166 0 264 -149q100 -147 100 -404v-74h-582q10 -147 79 -228t182 -81t243 68l43 -144q-148 -77 -299 -77zM240 322q0 -90 45.5 -137.5t132.5 -47.5q116 0 237 109q-40 113 -43 258q-78 10 -125 10q-141 0 -198 -57q-49 -49 -49 -135z
" />
    <glyph glyph-name="ccedilla" unicode="&#xe7;" horiz-adv-x="768" 
d="M629 -160q0 -124 -318 -145l-10 69q94 11 135 26t41 40q0 49 -108 27l-27 39l66 96q-159 31 -247.5 170.5t-88.5 359.5q0 252 115.5 398.5t316.5 146.5q115 0 209 -43l-33 -158q-95 39 -164 39q-121 0 -191.5 -103t-70.5 -276q0 -178 70.5 -279.5t195.5 -101.5
q77 0 162 39l33 -151q-98 -46 -193 -49l-45 -56q72 2 112 -21t40 -67z" />
    <glyph glyph-name="egrave" unicode="&#xe8;" horiz-adv-x="897" 
d="M496 -16q-199 0 -310.5 140t-111.5 398q0 253 106 400q109 151 277 151q173 0 272.5 -147.5t99.5 -405.5v-74h-579q7 -145 77 -227t183 -82q123 0 242 68l45 -144q-148 -77 -301 -77zM455 922q-86 0 -142 -89t-67 -241h411q-8 155 -61 242.5t-141 87.5zM393 1419
l168 -235h-123l-266 235h221z" />
    <glyph glyph-name="eacute" unicode="&#xe9;" horiz-adv-x="897" 
d="M496 -16q-199 0 -310.5 140t-111.5 398q0 253 106 400q109 151 277 151q173 0 272.5 -147.5t99.5 -405.5v-74h-579q7 -145 77 -227t183 -82q123 0 242 68l45 -144q-148 -77 -301 -77zM455 922q-86 0 -142 -89t-67 -241h411q-8 155 -61 242.5t-141 87.5zM532 1419h222
l-267 -235h-122z" />
    <glyph glyph-name="ecircumflex" unicode="&#xea;" horiz-adv-x="897" 
d="M496 -16q-199 0 -310.5 140t-111.5 398q0 253 106 400q109 151 277 151q173 0 272.5 -147.5t99.5 -405.5v-74h-579q7 -145 77 -227t183 -82q123 0 242 68l45 -144q-148 -77 -301 -77zM455 922q-86 0 -142 -89t-67 -241h411q-8 155 -61 242.5t-141 87.5zM705 1184h-117
l-125 133l-127 -133h-115l172 237h139z" />
    <glyph glyph-name="edieresis" unicode="&#xeb;" horiz-adv-x="897" 
d="M496 -16q-199 0 -310.5 140t-111.5 398q0 253 106 400q109 151 277 151q173 0 272.5 -147.5t99.5 -405.5v-74h-579q7 -145 77 -227t183 -82q123 0 242 68l45 -144q-148 -77 -301 -77zM455 922q-86 0 -142 -89t-67 -241h411q-8 155 -61 242.5t-141 87.5zM252 1366h143
v-174h-143v174zM530 1366h144v-174h-144v174z" />
    <glyph glyph-name="igrave" unicode="&#xec;" horiz-adv-x="440" 
d="M131 1051h178v-1051h-178v1051zM150 1417l167 -235h-122l-267 235h222z" />
    <glyph glyph-name="iacute" unicode="&#xed;" horiz-adv-x="440" 
d="M131 1051h178v-1051h-178v1051zM289 1417h221l-266 -235h-123z" />
    <glyph glyph-name="icircumflex" unicode="&#xee;" horiz-adv-x="440" 
d="M131 1051h178v-1051h-178v1051zM461 1182h-117l-125 133l-127 -133h-115l173 237h139z" />
    <glyph glyph-name="idieresis" unicode="&#xef;" horiz-adv-x="440" 
d="M131 1051h178v-1051h-178v1051zM8 1364h144v-174h-144v174zM287 1364h143v-174h-143v174z" />
    <glyph glyph-name="eth" unicode="&#xf0;" horiz-adv-x="927" 
d="M846 602q0 -295 -102.5 -458.5t-288.5 -163.5q-173 0 -277 137t-104 366q0 214 96 348q95 136 252 136q111 0 209 -56q-39 157 -146 267l-106 -107h-160l182 176q-85 62 -194 109l88 133q123 -49 227 -123l113 111h160l-191 -181q242 -233 242 -694zM252 481
q0 -158 56 -252t149 -94q100 0 154.5 114.5t54.5 325.5q0 101 -9 175q-103 67 -196 67q-94 0 -151.5 -93t-57.5 -243z" />
    <glyph glyph-name="ntilde" unicode="&#xf1;" horiz-adv-x="976" 
d="M508 907q-102 0 -203 -82v-825h-178v1051h139l31 -95q138 109 281 109q135 0 207.5 -80.5t72.5 -232.5v-752h-180v711q0 196 -170 196zM379 1276q-24 0 -41 -21t-43 -79l-88 28q37 105 74.5 149t91.5 44q29 0 55.5 -10.5t77.5 -43.5q49 -29 67.5 -37t36.5 -8
q24 0 41 21.5t43 79.5l88 -29q-37 -105 -74.5 -148.5t-91.5 -43.5q-48 0 -133 53q-49 29 -68 37t-36 8z" />
    <glyph glyph-name="ograve" unicode="&#xf2;" horiz-adv-x="935" 
d="M469 1073q178 0 285 -149q110 -149 110 -396q0 -250 -110 -399t-287 -149q-175 0 -285 149q-108 150 -108 395q0 248 108 398q112 151 287 151zM469 133q97 0 156 106.5t59 284.5t-59.5 286t-157.5 108q-97 0 -155 -106t-58 -286q0 -178 59 -285.5t156 -107.5zM399 1419
l168 -235h-123l-266 235h221z" />
    <glyph glyph-name="oacute" unicode="&#xf3;" horiz-adv-x="935" 
d="M469 1073q178 0 285 -149q110 -149 110 -396q0 -250 -110 -399t-287 -149q-175 0 -285 149q-108 150 -108 395q0 248 108 398q112 151 287 151zM469 133q97 0 156 106.5t59 284.5t-59.5 286t-157.5 108q-97 0 -155 -106t-58 -286q0 -178 59 -285.5t156 -107.5zM539 1419
h221l-266 -235h-123z" />
    <glyph glyph-name="ocircumflex" unicode="&#xf4;" horiz-adv-x="935" 
d="M469 1073q178 0 285 -149q110 -149 110 -396q0 -250 -110 -399t-287 -149q-175 0 -285 149q-108 150 -108 395q0 248 108 398q112 151 287 151zM469 133q97 0 156 106.5t59 284.5t-59.5 286t-157.5 108q-97 0 -155 -106t-58 -286q0 -178 59 -285.5t156 -107.5zM711 1184
h-117l-125 133l-127 -133h-115l172 237h140z" />
    <glyph glyph-name="otilde" unicode="&#xf5;" horiz-adv-x="935" 
d="M469 1073q178 0 285 -149q110 -149 110 -396q0 -250 -110 -399t-287 -149q-175 0 -285 149q-108 150 -108 395q0 248 108 398q112 151 287 151zM469 133q97 0 156 106.5t59 284.5t-59.5 286t-157.5 108q-97 0 -155 -106t-58 -286q0 -178 59 -285.5t156 -107.5zM360 1276
q-24 0 -41 -21t-43 -79l-88 28q37 105 74.5 149t91.5 44q29 0 55.5 -10.5t77.5 -43.5q48 -29 67.5 -37t37.5 -8q24 0 41 21.5t43 79.5l88 -29q-37 -105 -74.5 -148.5t-91.5 -43.5q-48 0 -133 53q-48 29 -67.5 37t-37.5 8z" />
    <glyph glyph-name="odieresis" unicode="&#xf6;" horiz-adv-x="935" 
d="M469 1073q178 0 285 -149q110 -149 110 -396q0 -250 -110 -399t-287 -149q-175 0 -285 149q-108 150 -108 395q0 248 108 398q112 151 287 151zM469 133q97 0 156 106.5t59 284.5t-59.5 286t-157.5 108q-97 0 -155 -106t-58 -286q0 -178 59 -285.5t156 -107.5zM258 1366
h143v-174h-143v174zM537 1366h143v-174h-143v174z" />
    <glyph glyph-name="divide" unicode="&#xf7;" horiz-adv-x="999" 
d="M410 1167h178v-174h-178v174zM90 799h819v-146l-409 2l-410 -2v146zM410 461h178v-174h-178v174z" />
    <glyph glyph-name="oslash" unicode="&#xf8;" horiz-adv-x="935" 
d="M469 920q-98 0 -157.5 -107t-59.5 -287q0 -146 43 -254l291 596q-52 52 -117 52zM469 131q97 0 156 107.5t59 285.5q0 159 -45 258l-289 -596q52 -55 119 -55zM864 528q0 -250 -110 -399t-287 -149q-105 0 -188 57l-68 -133h-129l113 211q-121 148 -121 409
q0 248 108 398q112 151 287 151q105 0 188 -57l68 131h129l-111 -211q121 -145 121 -408z" />
    <glyph glyph-name="ugrave" unicode="&#xf9;" horiz-adv-x="976" 
d="M850 0h-139l-31 96q-139 -110 -281 -110q-135 0 -207.5 80.5t-72.5 232.5v752h180v-711q0 -197 170 -197q94 0 203 82v826h178v-1051zM416 1409l168 -235h-123l-266 235h221z" />
    <glyph glyph-name="uacute" unicode="&#xfa;" horiz-adv-x="976" 
d="M850 0h-139l-31 96q-139 -110 -281 -110q-135 0 -207.5 80.5t-72.5 232.5v752h180v-711q0 -197 170 -197q94 0 203 82v826h178v-1051zM555 1409h221l-266 -235h-123z" />
    <glyph glyph-name="ucircumflex" unicode="&#xfb;" horiz-adv-x="976" 
d="M850 0h-139l-31 96q-139 -110 -281 -110q-135 0 -207.5 80.5t-72.5 232.5v752h180v-711q0 -197 170 -197q94 0 203 82v826h178v-1051zM727 1182h-117l-125 133l-127 -133h-114l172 237h139z" />
    <glyph glyph-name="udieresis" unicode="&#xfc;" horiz-adv-x="976" 
d="M850 0h-139l-31 96q-139 -110 -281 -110q-135 0 -207.5 80.5t-72.5 232.5v752h180v-711q0 -197 170 -197q94 0 203 82v826h178v-1051zM274 1364h144v-174h-144v174zM553 1364h143v-174h-143v174z" />
    <glyph glyph-name="yacute" unicode="&#xfd;" horiz-adv-x="890" 
d="M125 -360l-47 145q188 71 272 215l-307 1051h182l228 -875l225 875h178l-276 -940q-61 -206 -158 -308q-90 -97 -297 -163zM518 1409h221l-266 -235h-123z" />
    <glyph glyph-name="thorn" unicode="&#xfe;" horiz-adv-x="958" 
d="M475 135q106 0 166.5 103t60.5 288t-59.5 287t-167.5 102q-92 0 -170 -75v-633q78 -72 170 -72zM518 -16q-106 0 -213 73v-407h-178v1827h178v-504q99 92 225 92q165 0 259 -142.5t94 -392.5q0 -256 -97 -401t-268 -145z" />
    <glyph glyph-name="ydieresis" unicode="&#xff;" horiz-adv-x="890" 
d="M125 -360l-47 145q188 71 272 215l-307 1051h182l228 -875l225 875h178l-276 -940q-61 -206 -158 -308q-90 -97 -297 -163zM238 1364h143v-174h-143v174zM516 1364h143v-174h-143v174z" />
    <glyph glyph-name="Amacron" unicode="&#x100;" horiz-adv-x="1171" 
d="M586 1241l-207 -752h412zM698 1448l426 -1448h-200l-88 322h-502l-88 -322h-197l426 1448h223zM326 1651h520v-107h-520v107z" />
    <glyph glyph-name="amacron" unicode="&#x101;" horiz-adv-x="915" 
d="M240 322q0 -88 46 -136.5t130 -48.5q98 0 200 88v279q-68 10 -129 10q-141 0 -198 -57q-49 -49 -49 -135zM813 0h-151l-33 109q-135 -123 -277 -123q-134 0 -209 86.5t-75 240.5q0 162 86 248q51 51 123.5 73.5t181.5 22.5q79 0 157 -16v94q0 174 -184 174
q-119 0 -256 -61l-41 145q162 72 324 72q172 0 253 -78t81 -242v-559zM227 1309h463v-105h-463v105z" />
    <glyph glyph-name="Abreve" unicode="&#x102;" horiz-adv-x="1171" 
d="M586 1241l-207 -752h412zM698 1448l426 -1448h-200l-88 322h-502l-88 -322h-197l426 1448h223zM586 1638q112 0 139 113h104q-11 -104 -75.5 -164.5t-167.5 -60.5t-168 60.5t-76 164.5h104q13 -55 49.5 -84t90.5 -29z" />
    <glyph glyph-name="abreve" unicode="&#x103;" horiz-adv-x="915" 
d="M240 322q0 -88 46 -136.5t130 -48.5q98 0 200 88v279q-68 10 -129 10q-141 0 -198 -57q-49 -49 -49 -135zM813 0h-151l-33 109q-135 -123 -277 -123q-134 0 -209 86.5t-75 240.5q0 162 86 248q51 51 123.5 73.5t181.5 22.5q79 0 157 -16v94q0 174 -184 174
q-119 0 -256 -61l-41 145q162 72 324 72q172 0 253 -78t81 -242v-559zM459 1286q110 0 137 133h96q-5 -113 -67.5 -179t-165.5 -66q-104 0 -166.5 66t-67.5 179h97q27 -133 137 -133z" />
    <glyph glyph-name="Aogonek" unicode="&#x104;" horiz-adv-x="1171" 
d="M586 1241l-207 -752h412zM1008 -135q0 -24 25 -37t95 -25l-12 -84q-143 8 -204.5 33.5t-61.5 79.5q0 32 24.5 69t86.5 99h-37l-88 322h-502l-88 -322h-197l426 1448h223l426 -1448h-45q-44 -69 -57.5 -93.5t-13.5 -41.5z" />
    <glyph glyph-name="aogonek" unicode="&#x105;" horiz-adv-x="915" 
d="M240 322q0 -88 46 -136.5t130 -48.5q98 0 200 88v279q-68 10 -129 10q-141 0 -198 -57q-49 -49 -49 -135zM723 -135q0 -24 25.5 -37t95.5 -25l-13 -84q-143 8 -204.5 33.5t-61.5 79.5q0 32 24.5 69t86.5 99h-14l-33 109q-135 -123 -277 -123q-134 0 -209 86.5t-75 240.5
q0 162 86 248q51 51 123.5 73.5t181.5 22.5q79 0 157 -16v94q0 174 -184 174q-119 0 -256 -61l-41 145q162 72 324 72q172 0 253 -78t81 -242v-559l20 -186h-18q-46 -71 -59 -95t-13 -40z" />
    <glyph glyph-name="Cacute" unicode="&#x106;" horiz-adv-x="1001" 
d="M905 213l37 -170q-136 -59 -280 -59q-270 0 -423 193.5t-153 537.5q0 337 156 536t422 199q140 0 272 -55l-37 -174q-110 49 -221 49q-181 0 -289 -150q-106 -147 -106 -401q0 -263 105.5 -409t295.5 -146q111 0 221 49zM686 1735h234l-267 -197h-145z" />
    <glyph glyph-name="cacute" unicode="&#x107;" horiz-adv-x="768" 
d="M682 184l33 -151q-101 -49 -221 -49q-196 0 -309 143.5t-113 394.5q0 252 115.5 398.5t316.5 146.5q115 0 209 -43l-33 -158q-95 39 -164 39q-121 0 -191.5 -103t-70.5 -276q0 -178 70.5 -279.5t195.5 -101.5q77 0 162 39zM539 1419h221l-266 -235h-123z" />
    <glyph glyph-name="Ccircumflex" unicode="&#x108;" horiz-adv-x="1001" 
d="M905 213l37 -170q-136 -59 -280 -59q-270 0 -423 193.5t-153 537.5q0 337 156 536t422 199q140 0 272 -55l-37 -174q-110 49 -221 49q-181 0 -289 -150q-106 -147 -106 -401q0 -263 105.5 -409t295.5 -146q111 0 221 49zM870 1538h-127l-125 107l-122 -107h-125l170 203
h159z" />
    <glyph glyph-name="ccircumflex" unicode="&#x109;" horiz-adv-x="768" 
d="M682 184l33 -151q-101 -49 -221 -49q-196 0 -309 143.5t-113 394.5q0 252 115.5 398.5t316.5 146.5q115 0 209 -43l-33 -158q-95 39 -164 39q-121 0 -191.5 -103t-70.5 -276q0 -178 70.5 -279.5t195.5 -101.5q77 0 162 39zM711 1184h-117l-125 133l-127 -133h-115
l172 237h140z" />
    <glyph glyph-name="Cdotaccent" unicode="&#x10a;" horiz-adv-x="1001" 
d="M905 213l37 -170q-136 -59 -280 -59q-270 0 -423 193.5t-153 537.5q0 337 156 536t422 199q140 0 272 -55l-37 -174q-110 49 -221 49q-181 0 -289 -150q-106 -147 -106 -401q0 -263 105.5 -409t295.5 -146q111 0 221 49zM541 1708h159v-170h-159v170z" />
    <glyph glyph-name="cdotaccent" unicode="&#x10b;" horiz-adv-x="768" 
d="M682 184l33 -151q-101 -49 -221 -49q-196 0 -309 143.5t-113 394.5q0 252 115.5 398.5t316.5 146.5q115 0 209 -43l-33 -158q-95 39 -164 39q-121 0 -191.5 -103t-70.5 -276q0 -178 70.5 -279.5t195.5 -101.5q77 0 162 39zM393 1366h152v-174h-152v174z" />
    <glyph glyph-name="Ccaron" unicode="&#x10c;" horiz-adv-x="1001" 
d="M905 213l37 -170q-136 -59 -280 -59q-270 0 -423 193.5t-153 537.5q0 337 156 536t422 199q140 0 272 -55l-37 -174q-110 49 -221 49q-181 0 -289 -150q-106 -147 -106 -401q0 -263 105.5 -409t295.5 -146q111 0 221 49zM371 1741h127l125 -107l122 107h125l-170 -203
h-159z" />
    <glyph glyph-name="ccaron" unicode="&#x10d;" horiz-adv-x="768" 
d="M682 184l33 -151q-101 -49 -221 -49q-196 0 -309 143.5t-113 394.5q0 252 115.5 398.5t316.5 146.5q115 0 209 -43l-33 -158q-95 39 -164 39q-121 0 -191.5 -103t-70.5 -276q0 -178 70.5 -279.5t195.5 -101.5q77 0 162 39zM227 1421h117l125 -135l127 135h115l-172 -237
h-140z" />
    <glyph glyph-name="Dcaron" unicode="&#x10e;" horiz-adv-x="1173" 
d="M1085 719q0 -343 -166 -531t-466 -188h-308v1434h312q297 0 462.5 -187t165.5 -528zM465 1266h-127v-1098h129q203 0 312.5 141.5t109.5 405.5q0 265 -110.5 408t-313.5 143zM322 1729h127l124 -107l123 107h125l-170 -203h-159z" />
    <glyph glyph-name="dcaron" unicode="&#x10f;" horiz-adv-x="958" 
d="M256 524q0 -185 59.5 -287t167.5 -102q89 0 168 76v633q-81 71 -168 71q-106 0 -166.5 -103t-60.5 -288zM831 0h-141l-28 88q-118 -104 -236 -104q-162 0 -256 143.5t-94 394.5q0 254 97 398.5t267 144.5q114 0 211 -72v484h180v-1477zM958 1415v62h125v-43
q0 -80 -24.5 -144.5t-83.5 -130.5l-57 31q40 98 40 225z" />
    <glyph glyph-name="Dcroat" unicode="&#x110;" horiz-adv-x="1191" 
d="M1106 719q0 -343 -166.5 -531t-466.5 -188h-307v664h-125v141h125v629h311q298 0 463.5 -187t165.5 -528zM612 664h-258v-496h133q202 0 312 142t110 405t-111.5 407t-314.5 144h-129v-463h258v-139z" />
    <glyph glyph-name="dslash" unicode="&#x111;" horiz-adv-x="958" 
d="M256 520q0 -182 60.5 -283.5t166.5 -101.5q89 0 168 76v625q-81 71 -168 71q-106 0 -166.5 -102t-60.5 -285zM831 0h-141l-28 88q-118 -104 -236 -104q-161 0 -255.5 143.5t-94.5 390.5q0 253 97 397t267 144q108 0 211 -74v215h-245v115h245v162h180v-162h103v-115h-103
v-1200z" />
    <glyph glyph-name="Emacron" unicode="&#x112;" horiz-adv-x="1028" 
d="M338 172h608v-172h-801v1434h791v-172h-598v-441h530v-170h-530v-479zM289 1642h520v-106h-520v106z" />
    <glyph glyph-name="emacron" unicode="&#x113;" horiz-adv-x="897" 
d="M496 -16q-199 0 -310.5 140t-111.5 398q0 253 106 400q109 151 277 151q173 0 272.5 -147.5t99.5 -405.5v-74h-579q7 -145 77 -227t183 -82q123 0 242 68l45 -144q-148 -77 -301 -77zM455 922q-86 0 -142 -89t-67 -241h411q-8 155 -61 242.5t-141 87.5zM231 1309h463
v-105h-463v105z" />
    <glyph glyph-name="Ebreve" unicode="&#x114;" horiz-adv-x="1028" 
d="M338 172h608v-172h-801v1434h791v-172h-598v-441h530v-170h-530v-479zM549 1630q112 0 139 113h105q-11 -104 -76 -164.5t-168 -60.5t-168 60.5t-76 164.5h105q27 -113 139 -113z" />
    <glyph glyph-name="ebreve" unicode="&#x115;" horiz-adv-x="897" 
d="M496 -16q-199 0 -310.5 140t-111.5 398q0 253 106 400q109 151 277 151q173 0 272.5 -147.5t99.5 -405.5v-74h-579q7 -145 77 -227t183 -82q123 0 242 68l45 -144q-148 -77 -301 -77zM455 922q-86 0 -142 -89t-67 -241h411q-8 155 -61 242.5t-141 87.5zM463 1286
q110 0 137 133h96q-5 -113 -67.5 -179t-165.5 -66q-104 0 -166.5 66t-67.5 179h97q27 -133 137 -133z" />
    <glyph glyph-name="Edotaccent" unicode="&#x116;" horiz-adv-x="1028" 
d="M338 172h608v-172h-801v1434h791v-172h-598v-441h530v-170h-530v-479zM469 1696h160v-170h-160v170z" />
    <glyph glyph-name="edotaccent" unicode="&#x117;" horiz-adv-x="897" 
d="M496 -16q-199 0 -310.5 140t-111.5 398q0 253 106 400q109 151 277 151q173 0 272.5 -147.5t99.5 -405.5v-74h-579q7 -145 77 -227t183 -82q123 0 242 68l45 -144q-148 -77 -301 -77zM455 922q-86 0 -142 -89t-67 -241h411q-8 155 -61 242.5t-141 87.5zM387 1366h152
v-174h-152v174z" />
    <glyph glyph-name="Eogonek" unicode="&#x118;" horiz-adv-x="1028" 
d="M821 -135q0 -24 25.5 -37t95.5 -25l-12 -84q-143 8 -204.5 33.5t-61.5 79.5q0 32 24.5 69.5t85.5 98.5h-629v1434h791v-172h-598v-441h530v-170h-530v-479h608v-172h-53q-46 -71 -59 -95t-13 -40z" />
    <glyph glyph-name="eogonek" unicode="&#x119;" horiz-adv-x="897" 
d="M791 -197l-11 -84q-143 8 -204.5 33.5t-61.5 79.5q0 31 24.5 68t90.5 106q-67 -20 -131 -20q-202 0 -313 139t-111 397q0 253 106 400q109 151 277 151q173 0 272.5 -147.5t99.5 -405.5v-74h-579q7 -145 77 -227t183 -82q123 0 242 68l41 -133q-72 -103 -96.5 -145
t-24.5 -62q0 -24 25 -37t94 -25zM246 592h411q-8 155 -61 242.5t-141 87.5q-86 0 -142 -89t-67 -241z" />
    <glyph glyph-name="Ecaron" unicode="&#x11a;" horiz-adv-x="1028" 
d="M338 172h608v-172h-801v1434h791v-172h-598v-441h530v-170h-530v-479zM299 1729h127l125 -107l123 107h125l-170 -203h-160z" />
    <glyph glyph-name="ecaron" unicode="&#x11b;" horiz-adv-x="897" 
d="M496 -16q-199 0 -310.5 140t-111.5 398q0 253 106 400q109 151 277 151q173 0 272.5 -147.5t99.5 -405.5v-74h-579q7 -145 77 -227t183 -82q123 0 242 68l45 -144q-148 -77 -301 -77zM455 922q-86 0 -142 -89t-67 -241h411q-8 155 -61 242.5t-141 87.5zM221 1421h117
l125 -135l127 135h115l-173 -237h-139z" />
    <glyph glyph-name="Gcircumflex" unicode="&#x11c;" horiz-adv-x="1165" 
d="M588 782h448v-690q-179 -106 -377 -106q-272 0 -422.5 191.5t-150.5 537.5q0 333 160 534q165 201 424 201q173 0 340 -80l-54 -172q-151 76 -284 76q-176 0 -285 -154q-104 -149 -104 -405q0 -270 100 -415.5t285 -145.5q106 0 180 47v409h-260v172zM885 1538h-127
l-125 107l-123 -107h-125l170 203h160z" />
    <glyph glyph-name="gcircumflex" unicode="&#x11d;" horiz-adv-x="958" 
d="M483 915q-106 0 -166.5 -99.5t-60.5 -278.5q0 -178 60 -276.5t169 -98.5q85 0 166 71v611q-81 71 -168 71zM664 967l26 84h141v-1006q0 -403 -409 -403q-167 0 -293 55l41 147q124 -51 246 -51q235 0 235 242v61q-109 -86 -221 -86q-166 0 -260 138t-94 384
q0 250 95 392.5t261 142.5q126 0 232 -100zM735 1184h-117l-124 133l-127 -133h-115l172 237h139z" />
    <glyph glyph-name="Gbreve" unicode="&#x11e;" horiz-adv-x="1165" 
d="M588 782h448v-690q-179 -106 -377 -106q-272 0 -422.5 191.5t-150.5 537.5q0 333 160 534q165 201 424 201q173 0 340 -80l-54 -172q-151 76 -284 76q-176 0 -285 -154q-104 -149 -104 -405q0 -270 100 -415.5t285 -145.5q106 0 180 47v409h-260v172zM635 1642
q112 0 139 113h105q-11 -104 -76 -164.5t-168 -60.5t-168 60.5t-76 164.5h105q27 -113 139 -113z" />
    <glyph glyph-name="gbreve" unicode="&#x11f;" horiz-adv-x="958" 
d="M483 915q-106 0 -166.5 -99.5t-60.5 -278.5q0 -178 60 -276.5t169 -98.5q85 0 166 71v611q-81 71 -168 71zM664 967l26 84h141v-1006q0 -403 -409 -403q-167 0 -293 55l41 147q124 -51 246 -51q235 0 235 242v61q-109 -86 -221 -86q-166 0 -260 138t-94 384
q0 250 95 392.5t261 142.5q126 0 232 -100zM494 1286q110 0 137 133h96q-5 -113 -67.5 -179t-165.5 -66q-104 0 -166.5 66t-67.5 179h96q27 -133 138 -133z" />
    <glyph glyph-name="Gdotaccent" unicode="&#x120;" horiz-adv-x="1165" 
d="M588 782h448v-690q-179 -106 -377 -106q-272 0 -422.5 191.5t-150.5 537.5q0 333 160 534q165 201 424 201q173 0 340 -80l-54 -172q-151 76 -284 76q-176 0 -285 -154q-104 -149 -104 -405q0 -270 100 -415.5t285 -145.5q106 0 180 47v409h-260v172zM555 1708h160v-170
h-160v170z" />
    <glyph glyph-name="gdotaccent" unicode="&#x121;" horiz-adv-x="958" 
d="M483 915q-106 0 -166.5 -99.5t-60.5 -278.5q0 -178 60 -276.5t169 -98.5q85 0 166 71v611q-81 71 -168 71zM664 967l26 84h141v-1006q0 -403 -409 -403q-167 0 -293 55l41 147q124 -51 246 -51q235 0 235 242v61q-109 -86 -221 -86q-166 0 -260 138t-94 384
q0 250 95 392.5t261 142.5q126 0 232 -100zM418 1366h151v-174h-151v174z" />
    <glyph glyph-name="uni0122" unicode="&#x122;" horiz-adv-x="1165" 
d="M588 782h448v-690q-179 -106 -377 -106q-272 0 -422.5 191.5t-150.5 537.5q0 333 160 534q165 201 424 201q173 0 340 -80l-54 -172q-151 76 -284 76q-176 0 -285 -154q-104 -149 -104 -405q0 -270 100 -415.5t285 -145.5q106 0 180 47v409h-260v172zM578 -225
q0 38 -43 96l149 41q39 -62 39 -113q0 -111 -145 -188l-60 51q34 36 47 61t13 52z" />
    <glyph glyph-name="uni0123" unicode="&#x123;" horiz-adv-x="958" 
d="M483 915q-106 0 -166.5 -99.5t-60.5 -278.5q0 -178 60 -276.5t169 -98.5q85 0 166 71v611q-81 71 -168 71zM664 967l26 84h141v-1006q0 -403 -409 -403q-167 0 -293 55l41 147q124 -51 246 -51q235 0 235 242v61q-109 -86 -221 -86q-166 0 -260 138t-94 384
q0 250 95 392.5t261 142.5q126 0 232 -100zM545 1311q0 -39 43 -97l-150 -40q-39 62 -39 112q0 111 146 189l59 -52q-34 -36 -46.5 -60.5t-12.5 -51.5z" />
    <glyph glyph-name="Hcircumflex" unicode="&#x124;" horiz-adv-x="1214" 
d="M874 0v645h-536v-645h-193v1434h193v-607h536v607h193v-1434h-193zM856 1526h-127l-125 106l-123 -106h-125l170 203h160z" />
    <glyph glyph-name="hcircumflex" unicode="&#x125;" horiz-adv-x="976" 
d="M508 907q-102 0 -203 -82v-825h-178v1477h178v-514q136 102 273 102q135 0 207.5 -80.5t72.5 -232.5v-752h-180v711q0 196 -170 196zM459 1550h-117l-125 133l-127 -133h-115l172 238h140z" />
    <glyph glyph-name="Hbar" unicode="&#x126;" horiz-adv-x="1251" 
d="M895 1087h-539v-278h539v278zM895 0v637h-537v-637h-192v1083h-125v138h125v213h190v-215h539v215h192v-213h123v-138h-123v-1083h-192z" />
    <glyph glyph-name="hbar" unicode="&#x127;" horiz-adv-x="976" 
d="M508 899q-102 0 -203 -82v-817h-178v1200h-102v115h102v162h178v-162h248v-115h-248v-246q137 103 273 103q135 0 207.5 -81t72.5 -233v-743h-180v702q0 197 -170 197z" />
    <glyph glyph-name="Itilde" unicode="&#x128;" horiz-adv-x="497" 
d="M154 1434h192v-1434h-192v1434zM139 1616q-24 0 -41.5 -20.5t-42.5 -77.5l-92 30q37 100 75.5 142.5t92.5 42.5q29 0 56.5 -10.5t78.5 -41.5q73 -45 109 -45q24 0 41 21t43 78l92 -31q-37 -100 -75.5 -142t-92.5 -42q-30 0 -57.5 10.5t-77.5 40.5q-73 45 -109 45z" />
    <glyph glyph-name="itilde" unicode="&#x129;" horiz-adv-x="440" 
d="M131 1051h178v-1051h-178v1051zM111 1274q-24 0 -41 -21t-43 -79l-88 28q37 105 74 149t91 44q29 0 56 -11t78 -43q49 -29 67.5 -37t36.5 -8q24 0 41 21.5t43 79.5l88 -29q-37 -105 -74.5 -148.5t-91.5 -43.5q-48 0 -133 53q-49 29 -68 37t-36 8z" />
    <glyph glyph-name="Imacron" unicode="&#x12a;" horiz-adv-x="497" 
d="M154 1434h192v-1434h-192v1434zM23 1642h454v-106h-454v106z" />
    <glyph glyph-name="imacron" unicode="&#x12b;" horiz-adv-x="440" 
d="M131 1051h178v-1051h-178v1051zM12 1307h414v-105h-414v105z" />
    <glyph glyph-name="Ibreve" unicode="&#x12c;" horiz-adv-x="497" 
d="M154 1434h192v-1434h-192v1434zM250 1630q112 0 139 113h105q-11 -104 -76 -164.5t-168 -60.5t-168 60.5t-76 164.5h105q27 -113 139 -113z" />
    <glyph glyph-name="ibreve" unicode="&#x12d;" horiz-adv-x="440" 
d="M131 1051h178v-1051h-178v1051zM219 1284q110 0 137 133h97q-5 -113 -68 -179.5t-166 -66.5q-104 0 -166 66.5t-67 179.5h96q27 -133 137 -133z" />
    <glyph glyph-name="Iogonek" unicode="&#x12e;" horiz-adv-x="497" 
d="M248 -135q0 -24 25.5 -37t95.5 -25l-13 -84q-143 8 -204.5 33.5t-61.5 79.5q0 32 24.5 69t86.5 99h-47v1434h192v-1434h-27q-44 -69 -57.5 -93.5t-13.5 -41.5z" />
    <glyph glyph-name="iogonek" unicode="&#x12f;" horiz-adv-x="440" 
d="M125 1427h190v-180h-190v180zM217 -135q0 -24 25.5 -37t95.5 -25l-12 -84q-143 8 -205 33.5t-62 79.5q0 32 24.5 69t86.5 99h-39v1051h178v-1051h-20q-46 -71 -59 -95t-13 -40z" />
    <glyph glyph-name="Idot" unicode="&#x130;" horiz-adv-x="497" 
d="M154 1434h192v-1434h-192v1434zM170 1696h160v-170h-160v170z" />
    <glyph glyph-name="dotlessi" unicode="&#x131;" horiz-adv-x="440" 
d="M131 1051h178v-1051h-178v1051z" />
    <glyph glyph-name="Jcircumflex" unicode="&#x134;" horiz-adv-x="806" 
d="M477 1434h193v-963q0 -239 -104 -361t-308 -122q-135 0 -223 32l28 168q74 -30 168 -30q121 0 183.5 78.5t62.5 230.5v967zM823 1526h-127l-125 106l-122 -106h-125l170 203h159z" />
    <glyph glyph-name="jcircumflex" unicode="&#x135;" horiz-adv-x="440" 
d="M82 -367l-113 107q100 87 131 162q31 76 31 198v951h180v-949q0 -169 -45 -260q-43 -98 -184 -209zM463 1182h-117l-125 133l-127 -133h-114l172 237h139z" />
    <glyph glyph-name="uni0136" unicode="&#x136;" horiz-adv-x="1085" 
d="M539 737l530 -737h-227l-494 696h-10v-696h-193v1434h193v-660h12l484 660h225zM512 -205q0 38 -43 96l149 41q39 -62 39 -112q0 -112 -145 -189l-59 52q34 36 46.5 60.5t12.5 51.5z" />
    <glyph glyph-name="uni0137" unicode="&#x137;" horiz-adv-x="878" 
d="M489 549l373 -549h-209l-344 528h-4v-528h-178v1477h178v-908h4l336 482h207zM416 -205q0 38 -43 96l149 41q39 -62 39 -112q0 -112 -145 -189l-60 52q34 36 47 60.5t13 51.5z" />
    <glyph glyph-name="Lacute" unicode="&#x139;" horiz-adv-x="909" 
d="M338 176h528v-176h-721v1434h193v-1258zM309 1722h234l-267 -196h-145z" />
    <glyph glyph-name="lacute" unicode="&#x13a;" horiz-adv-x="440" 
d="M131 1477h178v-1477h-178v1477zM291 1810h221l-266 -235h-123z" />
    <glyph glyph-name="uni013B" unicode="&#x13b;" horiz-adv-x="909" 
d="M338 176h528v-176h-721v1434h193v-1258zM449 -213q0 38 -43 96l149 41q39 -62 39 -112q0 -112 -145 -189l-60 51q34 36 47 61t13 52z" />
    <glyph glyph-name="uni013C" unicode="&#x13c;" horiz-adv-x="440" 
d="M131 1477h178v-1477h-178v1477zM168 -213q0 38 -43 96l149 41q39 -62 39 -112q0 -112 -145 -189l-59 51q34 35 46.5 60.5t12.5 52.5z" />
    <glyph glyph-name="Lcaron" unicode="&#x13d;" horiz-adv-x="909" 
d="M338 176h528v-176h-721v1434h193v-1258zM485 1372v62h125v-43q0 -80 -24.5 -144.5t-83.5 -130.5l-58 31q41 100 41 225z" />
    <glyph glyph-name="lcaron" unicode="&#x13e;" horiz-adv-x="440" 
d="M131 1477h178v-1477h-178v1477zM436 1415v62h125v-43q0 -80 -24.5 -144.5t-83.5 -130.5l-58 31q41 100 41 225z" />
    <glyph glyph-name="Lslash" unicode="&#x141;" horiz-adv-x="935" 
d="M356 176h537v-176h-727v567l-125 -67v164l125 63v707h190v-609l265 148v-164l-265 -143v-490z" />
    <glyph glyph-name="lslash" unicode="&#x142;" horiz-adv-x="499" 
d="M340 711v-709l-180 -4v616l-123 -71v149l123 72v711l180 4v-619l123 72v-152z" />
    <glyph glyph-name="Nacute" unicode="&#x143;" horiz-adv-x="1220" 
d="M1073 0h-217l-530 1128v-1128h-181v1434h226l524 -1115v1115h178v-1434zM690 1714h234l-267 -196h-145z" />
    <glyph glyph-name="nacute" unicode="&#x144;" horiz-adv-x="976" 
d="M508 907q-102 0 -203 -82v-825h-178v1051h139l31 -95q138 109 281 109q135 0 207.5 -80.5t72.5 -232.5v-752h-180v711q0 196 -170 196zM557 1419h221l-266 -235h-123z" />
    <glyph glyph-name="uni0145" unicode="&#x145;" horiz-adv-x="1220" 
d="M1073 0h-217l-530 1128v-1128h-181v1434h226l524 -1115v1115h178v-1434zM549 -205q0 38 -43 96l149 41q39 -62 39 -112q0 -112 -145 -189l-60 52q34 36 47 60.5t13 51.5z" />
    <glyph glyph-name="uni0146" unicode="&#x146;" horiz-adv-x="976" 
d="M508 907q-102 0 -203 -82v-825h-178v1051h139l31 -95q138 109 281 109q135 0 207.5 -80.5t72.5 -232.5v-752h-180v711q0 196 -170 196zM440 -205q0 38 -43 96l150 41q39 -62 39 -112q0 -111 -146 -189l-59 52q34 36 46.5 60.5t12.5 51.5z" />
    <glyph glyph-name="Ncaron" unicode="&#x147;" horiz-adv-x="1220" 
d="M1073 0h-217l-530 1128v-1128h-181v1434h226l524 -1115v1115h178v-1434zM375 1720h127l125 -106l123 106h124l-169 -202h-160z" />
    <glyph glyph-name="ncaron" unicode="&#x148;" horiz-adv-x="976" 
d="M508 907q-102 0 -203 -82v-825h-178v1051h139l31 -95q138 109 281 109q135 0 207.5 -80.5t72.5 -232.5v-752h-180v711q0 196 -170 196zM246 1421h116l125 -135l127 135h115l-172 -237h-139z" />
    <glyph glyph-name="Eng" unicode="&#x14a;" horiz-adv-x="1220" 
d="M760 -360q-58 0 -146 18v170q62 -16 117 -16q78 0 120 50.5t42 143.5v8l-567 1092v-1106h-181v1434h213l537 -1065v1065h178v-1434q0 -174 -80.5 -267t-232.5 -93z" />
    <glyph glyph-name="eng" unicode="&#x14b;" horiz-adv-x="976" 
d="M641 -367l-113 103q95 95 121 168q29 79 29 194v613q0 196 -170 196q-102 0 -203 -82v-825h-178v1051h139l31 -95q138 109 281 109q135 0 207.5 -80.5t72.5 -232.5v-654q0 -161 -45 -260t-172 -205z" />
    <glyph glyph-name="Omacron" unicode="&#x14c;" horiz-adv-x="1212" 
d="M606 1454q235 0 377 -201q143 -198 143 -534q0 -338 -143 -539q-144 -200 -377 -200t-377 200q-143 198 -143 535t141 536q144 203 379 203zM608 147q148 0 235 153t87 415q0 263 -88 415q-88 156 -236 156q-149 0 -236 -152.5t-87 -414.5q0 -263 88 -418
q89 -154 237 -154zM346 1655h520v-107h-520v107z" />
    <glyph glyph-name="omacron" unicode="&#x14d;" horiz-adv-x="935" 
d="M469 1073q178 0 285 -149q110 -149 110 -396q0 -250 -110 -399t-287 -149q-175 0 -285 149q-108 150 -108 395q0 248 108 398q112 151 287 151zM469 133q97 0 156 106.5t59 284.5t-59.5 286t-157.5 108q-97 0 -155 -106t-58 -286q0 -178 59 -285.5t156 -107.5zM238 1309
h462v-105h-462v105z" />
    <glyph glyph-name="Obreve" unicode="&#x14e;" horiz-adv-x="1212" 
d="M606 1454q235 0 377 -201q143 -198 143 -534q0 -338 -143 -539q-144 -200 -377 -200t-377 200q-143 198 -143 535t141 536q144 203 379 203zM608 147q148 0 235 153t87 415q0 263 -88 415q-88 156 -236 156q-149 0 -236 -152.5t-87 -414.5q0 -263 88 -418
q89 -154 237 -154zM606 1642q112 0 139 113h105q-11 -104 -76 -164.5t-168 -60.5t-168 60.5t-76 164.5h105q27 -113 139 -113z" />
    <glyph glyph-name="obreve" unicode="&#x14f;" horiz-adv-x="935" 
d="M469 1073q178 0 285 -149q110 -149 110 -396q0 -250 -110 -399t-287 -149q-175 0 -285 149q-108 150 -108 395q0 248 108 398q112 151 287 151zM469 133q97 0 156 106.5t59 284.5t-59.5 286t-157.5 108q-97 0 -155 -106t-58 -286q0 -178 59 -285.5t156 -107.5zM469 1286
q110 0 137 133h96q-5 -113 -67.5 -179t-165.5 -66q-104 0 -166 66t-67 179h96q27 -133 137 -133z" />
    <glyph glyph-name="Ohungarumlaut" unicode="&#x150;" horiz-adv-x="1212" 
d="M606 1454q235 0 377 -201q143 -198 143 -534q0 -338 -143 -539q-144 -200 -377 -200t-377 200q-143 198 -143 535t141 536q144 203 379 203zM608 147q148 0 235 153t87 415q0 263 -88 415q-88 156 -236 156q-149 0 -236 -152.5t-87 -414.5q0 -263 88 -418
q89 -154 237 -154zM567 1735h197l-250 -197h-131zM827 1735h197l-250 -197h-131z" />
    <glyph glyph-name="ohungarumlaut" unicode="&#x151;" horiz-adv-x="935" 
d="M469 1073q178 0 285 -149q110 -149 110 -396q0 -250 -110 -399t-287 -149q-175 0 -285 149q-108 150 -108 395q0 248 108 398q112 151 287 151zM469 133q97 0 156 106.5t59 284.5t-59.5 286t-157.5 108q-97 0 -155 -106t-58 -286q0 -178 59 -285.5t156 -107.5zM436 1419
h189l-248 -235h-117zM690 1419h189l-246 -235h-119z" />
    <glyph glyph-name="OE" unicode="&#x152;" horiz-adv-x="1714" 
d="M86 715q0 343 166.5 531t466.5 188h901v-172h-594v-441h528v-170h-528v-479h604v-172h-915q-298 0 -463.5 187t-165.5 528zM283 719q0 -263 111.5 -407t314.5 -144h127v1098h-131q-202 0 -312 -142t-110 -405z" />
    <glyph glyph-name="oe" unicode="&#x153;" horiz-adv-x="1517" 
d="M1075 922q-88 0 -144 -89t-63 -241h410q-7 155 -61 242.5t-142 87.5zM469 133q97 0 156 106.5t59 284.5t-59.5 286t-157.5 108q-97 0 -155 -106t-58 -286q0 -178 59 -285.5t156 -107.5zM1122 -16q-243 0 -344 215q-50 -106 -130.5 -162.5t-184.5 -56.5q-176 0 -283 149
q-106 147 -106 395t108 398q109 151 283 151q102 0 182.5 -56.5t130.5 -162.5q47 106 125 162.5t178 56.5q171 0 270 -148t99 -405v-74h-580q7 -145 77 -227t183 -82q115 0 242 68l45 -144q-148 -77 -295 -77z" />
    <glyph glyph-name="Racute" unicode="&#x154;" horiz-adv-x="1128" 
d="M518 1266h-180v-557h137q150 0 241 81t91 216q0 127 -74 193.5t-215 66.5zM432 543h-94v-543h-193v1434h385q229 0 351.5 -105t122.5 -301q0 -155 -85 -261.5t-247 -156.5q60 -23 100 -64t94 -134l242 -412h-221l-211 371q-55 98 -108.5 135t-135.5 37zM606 1722h234
l-267 -196h-145z" />
    <glyph glyph-name="racute" unicode="&#x155;" horiz-adv-x="649" 
d="M305 743v-743h-178v1051h137l33 -166q125 180 311 180v-188q-166 -9 -303 -134zM424 1417h221l-266 -235h-123z" />
    <glyph glyph-name="uni0156" unicode="&#x156;" horiz-adv-x="1128" 
d="M518 1266h-180v-557h137q150 0 241 81t91 216q0 127 -74 193.5t-215 66.5zM432 543h-94v-543h-193v1434h385q229 0 351.5 -105t122.5 -301q0 -155 -85 -261.5t-247 -156.5q60 -23 100 -64t94 -134l242 -412h-221l-211 371q-55 98 -108.5 135t-135.5 37zM526 -205
q0 38 -43 96l150 41q39 -62 39 -112q0 -111 -146 -189l-59 52q34 36 46.5 60.5t12.5 51.5z" />
    <glyph glyph-name="uni0157" unicode="&#x157;" horiz-adv-x="649" 
d="M305 743v-743h-178v1051h137l33 -166q125 180 311 180v-188q-166 -9 -303 -134zM166 -213q0 38 -43 96l149 41q39 -62 39 -112q0 -112 -145 -189l-60 51q34 36 47 61t13 52z" />
    <glyph glyph-name="Rcaron" unicode="&#x158;" horiz-adv-x="1128" 
d="M518 1266h-180v-557h137q150 0 241 81t91 216q0 127 -74 193.5t-215 66.5zM432 543h-94v-543h-193v1434h385q229 0 351.5 -105t122.5 -301q0 -155 -85 -261.5t-247 -156.5q60 -23 100 -64t94 -134l242 -412h-221l-211 371q-55 98 -108.5 135t-135.5 37zM291 1729h127
l125 -107l123 107h125l-170 -203h-160z" />
    <glyph glyph-name="rcaron" unicode="&#x159;" horiz-adv-x="649" 
d="M305 743v-743h-178v1051h137l33 -166q125 180 311 180v-188q-166 -9 -303 -134zM113 1419h116l125 -135l127 135h115l-172 -237h-139z" />
    <glyph glyph-name="Sacute" unicode="&#x15a;" horiz-adv-x="1015" 
d="M571 829q210 -104 285 -198q82 -94 82 -242q0 -186 -122 -295.5t-327 -109.5q-221 0 -426 112l52 168q188 -108 377 -108q115 0 187.5 60.5t72.5 154.5q0 85 -60 151q-56 62 -215 146q-198 92 -282 186q-78 93 -78 225q0 167 112 267q114 102 301 102q185 0 357 -84
l-49 -168q-163 82 -312 82q-98 0 -160.5 -52t-62.5 -134q0 -73 59 -131t209 -132zM596 1735h233l-266 -197h-145z" />
    <glyph glyph-name="sacute" unicode="&#x15b;" horiz-adv-x="821" 
d="M463 610q159 -67 223 -139.5t64 -185.5q0 -139 -93.5 -220t-253.5 -81q-181 0 -350 94l47 153q166 -94 306 -94q76 0 124 38t48 99q0 57 -43 97.5t-156 91.5q-163 70 -223 139q-62 71 -62 178q0 130 89 208.5t237 78.5q154 0 297 -76l-45 -153q-135 75 -254 75
q-68 0 -109 -34t-41 -91q0 -51 41.5 -89t153.5 -89zM494 1419h221l-266 -235h-123z" />
    <glyph glyph-name="Scircumflex" unicode="&#x15c;" horiz-adv-x="1015" 
d="M571 829q210 -104 285 -198q82 -94 82 -242q0 -186 -122 -295.5t-327 -109.5q-221 0 -426 112l52 168q188 -108 377 -108q115 0 187.5 60.5t72.5 154.5q0 85 -60 151q-56 62 -215 146q-198 92 -282 186q-78 93 -78 225q0 167 112 267q114 102 301 102q185 0 357 -84
l-49 -168q-163 82 -312 82q-98 0 -160.5 -52t-62.5 -134q0 -73 59 -131t209 -132zM780 1538h-127l-125 107l-122 -107h-125l170 203h159z" />
    <glyph glyph-name="scircumflex" unicode="&#x15d;" horiz-adv-x="821" 
d="M463 610q159 -67 223 -139.5t64 -185.5q0 -139 -93.5 -220t-253.5 -81q-181 0 -350 94l47 153q166 -94 306 -94q76 0 124 38t48 99q0 57 -43 97.5t-156 91.5q-163 70 -223 139q-62 71 -62 178q0 130 89 208.5t237 78.5q154 0 297 -76l-45 -153q-135 75 -254 75
q-68 0 -109 -34t-41 -91q0 -51 41.5 -89t153.5 -89zM666 1184h-117l-125 133l-127 -133h-115l172 237h140z" />
    <glyph glyph-name="uni015E" unicode="&#x15e;" horiz-adv-x="1015" 
d="M664 -160q0 -124 -318 -145l-10 69q94 11 135 26t41 40q0 23 -29 30.5t-80 -3.5l-26 39l61 90q-193 12 -375 110l52 168q188 -108 377 -108q115 0 187.5 60.5t72.5 154.5q0 85 -60 151q-56 62 -215 146q-198 92 -282 186q-78 93 -78 225q0 167 112 267q114 102 301 102
q185 0 357 -84l-49 -168q-163 82 -312 82q-98 0 -160.5 -52t-62.5 -134q0 -73 59 -131t209 -132q210 -104 285 -198q82 -94 82 -242q0 -170 -101 -276t-278 -125l-47 -60q72 2 112 -21t40 -67z" />
    <glyph glyph-name="uni015F" unicode="&#x15f;" horiz-adv-x="821" 
d="M565 -160q0 -124 -317 -145l-10 69q94 11 135 26t41 40q0 23 -29 30.5t-80 -3.5l-26 39l61 90q-149 15 -287 92l47 153q166 -94 306 -94q76 0 124 38t48 99q0 57 -43 97.5t-156 91.5q-163 70 -223 139q-62 71 -62 178q0 130 89 208.5t237 78.5q154 0 297 -76l-45 -153
q-135 75 -254 75q-68 0 -109 -34t-41 -91q0 -51 41.5 -89t153.5 -89q159 -67 223 -139.5t64 -185.5q0 -127 -77 -206t-212 -93l-47 -58q72 2 111.5 -21t39.5 -67z" />
    <glyph glyph-name="Scaron" unicode="&#x160;" horiz-adv-x="1015" 
d="M571 829q210 -104 285 -198q82 -94 82 -242q0 -186 -122 -295.5t-327 -109.5q-221 0 -426 112l52 168q188 -108 377 -108q115 0 187.5 60.5t72.5 154.5q0 85 -60 151q-56 62 -215 146q-198 92 -282 186q-78 93 -78 225q0 167 112 267q114 102 301 102q185 0 357 -84
l-49 -168q-163 82 -312 82q-98 0 -160.5 -52t-62.5 -134q0 -73 59 -131t209 -132zM281 1741h127l124 -107l123 107h125l-170 -203h-159z" />
    <glyph glyph-name="scaron" unicode="&#x161;" horiz-adv-x="821" 
d="M463 610q159 -67 223 -139.5t64 -185.5q0 -139 -93.5 -220t-253.5 -81q-181 0 -350 94l47 153q166 -94 306 -94q76 0 124 38t48 99q0 57 -43 97.5t-156 91.5q-163 70 -223 139q-62 71 -62 178q0 130 89 208.5t237 78.5q154 0 297 -76l-45 -153q-135 75 -254 75
q-68 0 -109 -34t-41 -91q0 -51 41.5 -89t153.5 -89zM182 1421h117l125 -135l127 135h115l-172 -237h-140z" />
    <glyph glyph-name="uni0162" unicode="&#x162;" horiz-adv-x="1038" 
d="M682 -160q0 -124 -317 -145l-11 69q94 11 135 26t41 40q0 49 -108 27l-27 39l72 104h-45v1260h-381v174h954v-174h-381v-1260h-26l-58 -72q72 2 112 -21t40 -67z" />
    <glyph glyph-name="uni0163" unicode="&#x163;" horiz-adv-x="673" 
d="M571 -160q0 -124 -317 -145l-10 69q94 11 135 26t41 40q0 23 -29 30.5t-80 -3.5l-26 39l69 102q-91 25 -134.5 93t-43.5 185v621h-129v154h129v286h178v-286h256v-154h-256v-592q0 -80 39.5 -122t114.5 -42q38 0 104 17v-154q-63 -18 -147 -18l-45 -58q72 2 111.5 -21
t39.5 -67z" />
    <glyph glyph-name="Tcaron" unicode="&#x164;" horiz-adv-x="1038" 
d="M995 1260h-381v-1260h-192v1260h-381v174h954v-174zM268 1729h127l125 -107l123 107h125l-170 -203h-160z" />
    <glyph glyph-name="tcaron" unicode="&#x165;" horiz-adv-x="673" 
d="M463 -14q-146 0 -216.5 71t-70.5 219v621h-129v154h129v286h178v-286h256v-154h-256v-592q0 -80 39.5 -122t114.5 -42q38 0 104 17v-154q-63 -18 -149 -18zM485 1409v61h125v-43q0 -80 -24.5 -144t-83.5 -130l-58 31q41 100 41 225z" />
    <glyph glyph-name="Tbar" unicode="&#x166;" horiz-adv-x="1038" 
d="M614 774h211v-143h-211v-631h-192v631h-209v143h209v486h-381v174h954v-174h-381v-486z" />
    <glyph glyph-name="tbar" unicode="&#x167;" horiz-adv-x="673" 
d="M612 156v-152q-63 -18 -149 -18q-146 0 -216.5 71t-70.5 219v211h-113v117h113v295h-129v152h129v286h178v-286h256v-152h-256v-295h195v-117h-195v-184q0 -80 39.5 -122t114.5 -42q38 0 104 17z" />
    <glyph glyph-name="Utilde" unicode="&#x168;" horiz-adv-x="1181" 
d="M856 1434h193v-949q0 -241 -119.5 -372t-339.5 -131q-217 0 -336 131t-119 372v949h193v-957q0 -155 69.5 -241t194.5 -86t194.5 85.5t69.5 239.5v959zM479 1616q-24 0 -41.5 -20.5t-42.5 -77.5l-92 30q37 100 75.5 142.5t92.5 42.5q29 0 56.5 -10.5t78.5 -41.5
q73 -45 109 -45q24 0 41 21t43 78l92 -31q-37 -100 -75.5 -142t-92.5 -42q-30 0 -57.5 10.5t-77.5 40.5q-73 45 -109 45z" />
    <glyph glyph-name="utilde" unicode="&#x169;" horiz-adv-x="976" 
d="M850 0h-139l-31 96q-139 -110 -281 -110q-135 0 -207.5 80.5t-72.5 232.5v752h180v-711q0 -197 170 -197q94 0 203 82v826h178v-1051zM377 1274q-24 0 -41 -21t-43 -79l-88 28q37 105 74.5 149t91.5 44q29 0 55.5 -10.5t77.5 -43.5q49 -29 67.5 -37t36.5 -8q24 0 41 21.5
t43 79.5l88 -29q-37 -105 -74.5 -148.5t-91.5 -43.5q-48 0 -133 53q-49 29 -68 37t-36 8z" />
    <glyph glyph-name="Umacron" unicode="&#x16a;" horiz-adv-x="1181" 
d="M856 1434h193v-949q0 -241 -119.5 -372t-339.5 -131q-217 0 -336 131t-119 372v949h193v-957q0 -155 69.5 -241t194.5 -86t194.5 85.5t69.5 239.5v959zM330 1642h520v-106h-520v106z" />
    <glyph glyph-name="umacron" unicode="&#x16b;" horiz-adv-x="976" 
d="M850 0h-139l-31 96q-139 -110 -281 -110q-135 0 -207.5 80.5t-72.5 232.5v752h180v-711q0 -197 170 -197q94 0 203 82v826h178v-1051zM254 1307h463v-105h-463v105z" />
    <glyph glyph-name="Ubreve" unicode="&#x16c;" horiz-adv-x="1181" 
d="M856 1434h193v-949q0 -241 -119.5 -372t-339.5 -131q-217 0 -336 131t-119 372v949h193v-957q0 -155 69.5 -241t194.5 -86t194.5 85.5t69.5 239.5v959zM590 1622q112 0 139 113h105q-11 -104 -76 -165t-168 -61t-168 61t-76 165h105q27 -113 139 -113z" />
    <glyph glyph-name="ubreve" unicode="&#x16d;" horiz-adv-x="976" 
d="M850 0h-139l-31 96q-139 -110 -281 -110q-135 0 -207.5 80.5t-72.5 232.5v752h180v-711q0 -197 170 -197q94 0 203 82v826h178v-1051zM485 1276q111 0 138 133h96q-5 -113 -68 -179.5t-166 -66.5q-104 0 -166 66.5t-67 179.5h96q27 -133 137 -133z" />
    <glyph glyph-name="Uring" unicode="&#x16e;" horiz-adv-x="1181" 
d="M856 1434h193v-949q0 -241 -119.5 -372t-339.5 -131q-217 0 -336 131t-119 372v949h193v-957q0 -155 69.5 -241t194.5 -86t194.5 85.5t69.5 239.5v959zM590 1505q-86 0 -142.5 52.5t-56.5 132.5t56.5 132t142.5 52t142 -52t56 -132t-56 -132.5t-142 -52.5zM590 1810
q-56 0 -91.5 -33t-35.5 -87t35.5 -88.5t91.5 -34.5t91.5 34.5t35.5 88.5t-35.5 87t-91.5 33z" />
    <glyph glyph-name="uring" unicode="&#x16f;" horiz-adv-x="976" 
d="M850 0h-139l-31 96q-139 -110 -281 -110q-135 0 -207.5 80.5t-72.5 232.5v752h180v-711q0 -197 170 -197q94 0 203 82v826h178v-1051zM485 1161q-79 0 -131.5 52t-52.5 130t52.5 130.5t131.5 52.5t132 -52.5t53 -130.5t-53 -130t-132 -52zM485 1466q-51 0 -83.5 -34.5
t-32.5 -88.5t32.5 -88t83.5 -34t84 34t33 88t-33 88.5t-84 34.5z" />
    <glyph glyph-name="Uhungarumlaut" unicode="&#x170;" horiz-adv-x="1181" 
d="M856 1434h193v-949q0 -241 -119.5 -372t-339.5 -131q-217 0 -336 131t-119 372v949h193v-957q0 -155 69.5 -241t194.5 -86t194.5 85.5t69.5 239.5v959zM551 1722h197l-250 -196h-131zM811 1722h197l-250 -196h-131z" />
    <glyph glyph-name="uhungarumlaut" unicode="&#x171;" horiz-adv-x="976" 
d="M850 0h-139l-31 96q-139 -110 -281 -110q-135 0 -207.5 80.5t-72.5 232.5v752h180v-711q0 -197 170 -197q94 0 203 82v826h178v-1051zM453 1417h188l-248 -235h-117zM707 1417h188l-246 -235h-119z" />
    <glyph glyph-name="Uogonek" unicode="&#x172;" horiz-adv-x="1181" 
d="M737 -197l-12 -84q-143 8 -204.5 33.5t-61.5 79.5q0 31 20.5 65t73.5 87q-201 12 -309.5 142t-108.5 359v949h193v-957q0 -155 69.5 -241t194.5 -86t194.5 85.5t69.5 239.5v959h193v-949q0 -215 -95 -343t-274 -154q-38 -58 -51 -82.5t-13 -40.5q0 -24 25.5 -37t95.5 -25
z" />
    <glyph glyph-name="uogonek" unicode="&#x173;" horiz-adv-x="976" 
d="M766 -135q0 -24 25.5 -37t95.5 -25l-13 -84q-143 8 -204.5 33.5t-61.5 79.5q0 32 24.5 69t86.5 99h-8l-31 96q-139 -110 -281 -110q-135 0 -207.5 80.5t-72.5 232.5v752h180v-711q0 -197 170 -197q94 0 203 82v826h178v-1051h-12q-46 -71 -59 -95t-13 -40z" />
    <glyph glyph-name="Wcircumflex" unicode="&#x174;" horiz-adv-x="1714" 
d="M1659 1434l-311 -1444h-213l-279 1163l-278 -1163h-211l-310 1444h199l227 -1162l273 1162h215l270 -1162l227 1162h191zM1106 1526h-127l-125 106l-123 -106h-125l170 203h160z" />
    <glyph glyph-name="wcircumflex" unicode="&#x175;" horiz-adv-x="1370" 
d="M1327 1051l-250 -1059h-188l-205 819l-203 -819h-190l-246 1059h176l172 -844l203 844h182l203 -840l172 840h174zM926 1182h-117l-125 133l-127 -133h-115l172 237h140z" />
    <glyph glyph-name="Ycircumflex" unicode="&#x176;" horiz-adv-x="1087" 
d="M1059 1434l-420 -871v-563h-193v563l-419 871h204l314 -682l313 682h201zM793 1526h-127l-125 106l-123 -106h-125l170 203h160z" />
    <glyph glyph-name="ycircumflex" unicode="&#x177;" horiz-adv-x="890" 
d="M125 -360l-47 145q188 71 272 215l-307 1051h182l228 -875l225 875h178l-276 -940q-61 -206 -158 -308q-90 -97 -297 -163zM690 1182h-117l-124 133l-127 -133h-115l172 237h139z" />
    <glyph glyph-name="Ydieresis" unicode="&#x178;" horiz-adv-x="1087" 
d="M1059 1434l-420 -871v-563h-193v563l-419 871h204l314 -682l313 682h201zM317 1696h154v-170h-154v170zM614 1696h154v-170h-154v170z" />
    <glyph glyph-name="Zacute" unicode="&#x179;" horiz-adv-x="1015" 
d="M291 172h651v-172h-870v158l651 1104h-619v172h838v-158zM575 1722h234l-266 -196h-146z" />
    <glyph glyph-name="zacute" unicode="&#x17a;" horiz-adv-x="819" 
d="M264 152h486v-152h-687v143l488 756h-465v152h664v-142zM485 1417h222l-267 -235h-123z" />
    <glyph glyph-name="Zdotaccent" unicode="&#x17b;" horiz-adv-x="1015" 
d="M291 172h651v-172h-870v158l651 1104h-619v172h838v-158zM430 1696h160v-170h-160v170z" />
    <glyph glyph-name="zdotaccent" unicode="&#x17c;" horiz-adv-x="819" 
d="M264 152h486v-152h-687v143l488 756h-465v152h664v-142zM340 1364h152v-174h-152v174z" />
    <glyph glyph-name="Zcaron" unicode="&#x17d;" horiz-adv-x="1015" 
d="M291 172h651v-172h-870v158l651 1104h-619v172h838v-158zM260 1729h127l125 -107l123 107h125l-170 -203h-160z" />
    <glyph glyph-name="zcaron" unicode="&#x17e;" horiz-adv-x="819" 
d="M264 152h486v-152h-687v143l488 756h-465v152h664v-142zM174 1419h117l125 -135l127 135h114l-172 -237h-139z" />
    <glyph glyph-name="uni018F" unicode="&#x18f;" horiz-adv-x="1148" 
d="M1061 721q0 -340 -137 -541q-135 -200 -359 -200q-219 0 -350 198t-131 537v98h776q-17 229 -109 351t-247 122q-146 0 -283 -90l-61 152q165 106 362 106q254 0 396.5 -192.5t142.5 -540.5zM567 147q129 0 208.5 134t86.5 368h-579q10 -237 85.5 -369.5t198.5 -132.5z
" />
    <glyph glyph-name="Ohorn" unicode="&#x1a0;" horiz-adv-x="1212" 
d="M1126 719q0 -338 -143 -539q-144 -200 -377 -200t-377 200q-143 198 -143 535q0 333 141 532q145 201 379 201q5 0 27.5 -1t46.5 -1q16 -1 32.5 -2t25.5 -1.5t16 -0.5q233 0 233 145q0 30 -16 80l127 37q26 -56 26 -123q0 -97 -65 -157t-182 -72q121 -92 185 -254.5
t64 -378.5zM608 147q148 0 235 153t87 415q0 263 -88 415q-89 154 -236 154q-149 0 -236 -151.5t-87 -413.5q0 -263 88 -418q89 -154 237 -154z" />
    <glyph glyph-name="ohorn" unicode="&#x1a1;" horiz-adv-x="935" 
d="M864 526q0 -248 -110 -397t-287 -149q-175 0 -285 149q-108 150 -108 395q0 244 108 391q111 150 287 150q18 0 43 -2t43 -2q94 0 144.5 35t50.5 102q0 34 -15 72l119 37q27 -53 27 -113q0 -88 -52.5 -145t-146.5 -70q88 -68 135 -184t47 -269zM469 133q97 0 156 106.5
t59 284.5q0 177 -59.5 283t-157.5 106q-97 0 -155 -105t-58 -282q0 -178 59 -285.5t156 -107.5z" />
    <glyph glyph-name="Uhorn" unicode="&#x1af;" horiz-adv-x="1236" 
d="M590 -18q-217 0 -336 131t-119 372v949h193v-957q0 -155 69.5 -241t194.5 -86t194.5 85.5t69.5 239.5v959h29q243 0 243 153q0 40 -16 80l129 37q27 -64 27 -123q0 -86 -57 -146t-162 -85v-865q0 -241 -119.5 -372t-339.5 -131z" />
    <glyph glyph-name="uhorn" unicode="&#x1b0;" horiz-adv-x="1017" 
d="M850 0h-139l-31 96q-134 -108 -281 -108q-135 0 -207.5 80.5t-72.5 232.5v750h180v-711q0 -195 170 -195q102 0 203 82v824h18q106 0 162.5 37.5t56.5 109.5q0 29 -16 72l121 37q26 -51 26 -113q0 -82 -49 -138.5t-141 -82.5v-973z" />
    <glyph glyph-name="uni01CD" unicode="&#x1cd;" horiz-adv-x="1171" 
d="M586 1241l-207 -752h412zM698 1448l426 -1448h-200l-88 322h-502l-88 -322h-197l426 1448h223zM336 1737h127l125 -107l123 107h125l-170 -203h-160z" />
    <glyph glyph-name="uni01CE" unicode="&#x1ce;" horiz-adv-x="915" 
d="M240 322q0 -88 46 -136.5t130 -48.5q98 0 200 88v279q-68 10 -129 10q-141 0 -198 -57q-49 -49 -49 -135zM813 0h-151l-33 109q-135 -123 -277 -123q-134 0 -209 86.5t-75 240.5q0 162 86 248q51 51 123.5 73.5t181.5 22.5q79 0 157 -16v94q0 174 -184 174
q-119 0 -256 -61l-41 145q162 72 324 72q172 0 253 -78t81 -242v-559zM217 1421h117l125 -135l127 135h114l-172 -237h-139z" />
    <glyph glyph-name="uni01CF" unicode="&#x1cf;" horiz-adv-x="497" 
d="M154 1434h192v-1434h-192v1434zM0 1729h127l125 -107l123 107h125l-170 -203h-160z" />
    <glyph glyph-name="uni01D0" unicode="&#x1d0;" horiz-adv-x="440" 
d="M131 1051h178v-1051h-178v1051zM-23 1419h117l125 -135l127 135h115l-172 -237h-139z" />
    <glyph glyph-name="uni01D1" unicode="&#x1d1;" horiz-adv-x="1212" 
d="M606 1454q235 0 377 -201q143 -198 143 -534q0 -338 -143 -539q-144 -200 -377 -200t-377 200q-143 198 -143 535t141 536q144 203 379 203zM608 147q148 0 235 153t87 415q0 263 -88 415q-88 156 -236 156q-149 0 -236 -152.5t-87 -414.5q0 -263 88 -418
q89 -154 237 -154zM356 1741h127l125 -107l123 107h125l-170 -203h-160z" />
    <glyph glyph-name="uni01D2" unicode="&#x1d2;" horiz-adv-x="935" 
d="M469 1073q178 0 285 -149q110 -149 110 -396q0 -250 -110 -399t-287 -149q-175 0 -285 149q-108 150 -108 395q0 248 108 398q112 151 287 151zM469 133q97 0 156 106.5t59 284.5t-59.5 286t-157.5 108q-97 0 -155 -106t-58 -286q0 -178 59 -285.5t156 -107.5zM227 1421
h117l125 -135l127 135h115l-172 -237h-140z" />
    <glyph glyph-name="uni01D3" unicode="&#x1d3;" horiz-adv-x="1181" 
d="M856 1434h193v-949q0 -241 -119.5 -372t-339.5 -131q-217 0 -336 131t-119 372v949h193v-957q0 -155 69.5 -241t194.5 -86t194.5 85.5t69.5 239.5v959zM340 1720h127l125 -106l123 106h125l-170 -202h-160z" />
    <glyph glyph-name="uni01D4" unicode="&#x1d4;" horiz-adv-x="976" 
d="M850 0h-139l-31 96q-139 -110 -281 -110q-135 0 -207.5 80.5t-72.5 232.5v752h180v-711q0 -197 170 -197q94 0 203 82v826h178v-1051zM244 1411h116l125 -135l127 135h115l-172 -237h-139z" />
    <glyph glyph-name="uni01D5" unicode="&#x1d5;" horiz-adv-x="1181" 
d="M856 1434h193v-949q0 -241 -119.5 -372t-339.5 -131q-217 0 -336 131t-119 372v949h193v-957q0 -155 69.5 -241t194.5 -86t194.5 85.5t69.5 239.5v959zM348 1870h483v-105h-483v105zM365 1694h153v-168h-153v168zM662 1694h153v-168h-153v168z" />
    <glyph glyph-name="uni01D6" unicode="&#x1d6;" horiz-adv-x="976" 
d="M850 0h-139l-31 96q-139 -110 -281 -110q-135 0 -207.5 80.5t-72.5 232.5v752h180v-711q0 -197 170 -197q94 0 203 82v826h178v-1051zM260 1542h451v-102h-451v102zM274 1362h144v-172h-144v172zM553 1362h143v-172h-143v172z" />
    <glyph glyph-name="uni01D7" unicode="&#x1d7;" horiz-adv-x="1181" 
d="M856 1434h193v-949q0 -241 -119.5 -372t-339.5 -131q-217 0 -336 131t-119 372v949h193v-957q0 -155 69.5 -241t194.5 -86t194.5 85.5t69.5 239.5v959zM645 1925h232l-244 -170h-144zM365 1694h153v-168h-153v168zM662 1694h153v-168h-153v168z" />
    <glyph glyph-name="uni01D8" unicode="&#x1d8;" horiz-adv-x="976" 
d="M850 0h-139l-31 96q-139 -110 -281 -110q-135 0 -207.5 80.5t-72.5 232.5v752h180v-711q0 -197 170 -197q94 0 203 82v826h178v-1051zM537 1626h219l-240 -196h-119zM274 1362h144v-172h-144v172zM553 1362h143v-172h-143v172z" />
    <glyph glyph-name="uni01D9" unicode="&#x1d9;" horiz-adv-x="1181" 
d="M856 1434h193v-949q0 -241 -119.5 -372t-339.5 -131q-217 0 -336 131t-119 372v949h193v-957q0 -155 69.5 -241t194.5 -86t194.5 85.5t69.5 239.5v959zM717 1931h127l-174 -176h-160l-174 176h129l127 -82zM365 1694h153v-168h-153v168zM662 1694h153v-168h-153v168z" />
    <glyph glyph-name="uni01DA" unicode="&#x1da;" horiz-adv-x="976" 
d="M850 0h-139l-31 96q-139 -110 -281 -110q-135 0 -207.5 80.5t-72.5 232.5v752h180v-711q0 -197 170 -197q94 0 203 82v826h178v-1051zM614 1628h117l-176 -198h-139l-176 198h118l127 -100zM274 1362h144v-172h-144v172zM553 1362h143v-172h-143v172z" />
    <glyph glyph-name="uni01DB" unicode="&#x1db;" horiz-adv-x="1181" 
d="M856 1434h193v-949q0 -241 -119.5 -372t-339.5 -131q-217 0 -336 131t-119 372v949h193v-957q0 -155 69.5 -241t194.5 -86t194.5 85.5t69.5 239.5v959zM303 1925h232l155 -170h-143zM365 1694h153v-168h-153v168zM662 1694h153v-168h-153v168z" />
    <glyph glyph-name="uni01DC" unicode="&#x1dc;" horiz-adv-x="976" 
d="M850 0h-139l-31 96q-139 -110 -281 -110q-135 0 -207.5 80.5t-72.5 232.5v752h180v-711q0 -197 170 -197q94 0 203 82v826h178v-1051zM434 1626l139 -196h-118l-240 196h219zM274 1362h144v-172h-144v172zM553 1362h143v-172h-143v172z" />
    <glyph glyph-name="Gcaron" unicode="&#x1e6;" horiz-adv-x="1165" 
d="M588 782h448v-690q-179 -106 -377 -106q-272 0 -422.5 191.5t-150.5 537.5q0 333 160 534q165 201 424 201q173 0 340 -80l-54 -172q-151 76 -284 76q-176 0 -285 -154q-104 -149 -104 -405q0 -270 100 -415.5t285 -145.5q106 0 180 47v409h-260v172zM385 1741h127
l125 -107l123 107h125l-170 -203h-160z" />
    <glyph glyph-name="gcaron" unicode="&#x1e7;" horiz-adv-x="958" 
d="M483 915q-106 0 -166.5 -99.5t-60.5 -278.5q0 -178 60 -276.5t169 -98.5q85 0 166 71v611q-81 71 -168 71zM664 967l26 84h141v-1006q0 -403 -409 -403q-167 0 -293 55l41 147q124 -51 246 -51q235 0 235 242v61q-109 -86 -221 -86q-166 0 -260 138t-94 384
q0 250 95 392.5t261 142.5q126 0 232 -100zM252 1421h117l125 -135l127 135h114l-172 -237h-139z" />
    <glyph glyph-name="uni01EA" unicode="&#x1ea;" horiz-adv-x="1212" 
d="M754 -197l-13 -84q-143 8 -204.5 33.5t-61.5 79.5q0 30 20 62.5t72 87.5q-218 18 -350 215q-131 198 -131 518q0 337 141 536q144 203 379 203t377 -201q143 -198 143 -534q0 -303 -116 -498q-113 -192 -314 -233q-37 -57 -50 -81.5t-13 -41.5q0 -24 25.5 -37t95.5 -25z
M608 147q148 0 235 153t87 415q0 263 -88 415q-88 156 -236 156q-149 0 -236 -152.5t-87 -414.5q0 -263 88 -418q89 -154 237 -154z" />
    <glyph glyph-name="uni01EB" unicode="&#x1eb;" horiz-adv-x="935" 
d="M614 -197l-12 -84q-143 8 -204.5 33.5t-61.5 79.5q0 30 20 62.5t72 87.5q-158 18 -258 163q-96 149 -96 379q0 248 108 398q112 151 287 151q178 0 285 -149q110 -149 110 -396q0 -210 -81.5 -354t-221.5 -182q-39 -59 -53 -85t-14 -42q0 -24 25 -37t95 -25zM469 133
q97 0 156 106.5t59 284.5t-59.5 286t-157.5 108q-97 0 -155 -106t-58 -286q0 -178 59 -285.5t156 -107.5z" />
    <glyph glyph-name="uni01F0" unicode="&#x1f0;" horiz-adv-x="440" 
d="M82 -367l-113 107q100 87 131 162q31 76 31 198v951h180v-949q0 -169 -45 -260q-43 -98 -184 -209zM-20 1419h116l125 -135l127 135h115l-172 -237h-139z" />
    <glyph glyph-name="uni01F8" unicode="&#x1f8;" horiz-adv-x="1220" 
d="M1073 0h-217l-530 1128v-1128h-181v1434h226l524 -1115v1115h178v-1434zM559 1714l178 -196h-145l-266 196h233z" />
    <glyph glyph-name="uni01F9" unicode="&#x1f9;" horiz-adv-x="976" 
d="M508 907q-102 0 -203 -82v-825h-178v1051h139l31 -95q138 109 281 109q135 0 207.5 -80.5t72.5 -232.5v-752h-180v711q0 196 -170 196zM418 1419l168 -235h-123l-266 235h221z" />
    <glyph glyph-name="Aringacute" unicode="&#x1fa;" horiz-adv-x="1171" 
d="M623 1939h233l-229 -151h-148zM586 1671q-56 0 -91.5 -34.5t-35.5 -88.5t35.5 -87.5t91.5 -33.5t91.5 33.5t35.5 87.5t-35.5 88.5t-91.5 34.5zM586 1241l-207 -752h412zM711 1405l413 -1405h-200l-88 322h-502l-88 -322h-197l412 1403q-72 54 -72 145q0 80 56 132.5
t141 52.5q86 0 142 -52.5t56 -132.5q0 -92 -73 -143z" />
    <glyph glyph-name="aringacute" unicode="&#x1fb;" horiz-adv-x="915" 
d="M240 322q0 -88 46 -136.5t130 -48.5q98 0 200 88v279q-68 10 -129 10q-141 0 -198 -57q-49 -49 -49 -135zM813 0h-151l-33 109q-135 -123 -277 -123q-134 0 -209 86.5t-75 240.5q0 162 86 248q51 51 123.5 73.5t181.5 22.5q79 0 157 -16v94q0 174 -184 174
q-119 0 -256 -61l-41 145q162 72 324 72q172 0 253 -78t81 -242v-559zM362 1577l138 154h217l-223 -154h-132zM459 1171q-79 0 -132 50.5t-53 124.5q0 75 53 125.5t132 50.5t131.5 -50.5t52.5 -125.5q0 -74 -52.5 -124.5t-131.5 -50.5zM459 1462q-51 0 -84 -32.5t-33 -83.5
q0 -50 33 -82.5t84 -32.5t83.5 32.5t32.5 82.5q0 51 -32.5 83.5t-83.5 32.5z" />
    <glyph glyph-name="AEacute" unicode="&#x1fc;" horiz-adv-x="1718" 
d="M821 1266l-364 -777h383v777h-19zM1634 172v-172h-794v322h-461l-152 -322h-202l684 1434h915v-172h-594v-441h526v-170h-526v-479h604zM1075 1722h234l-267 -196h-145z" />
    <glyph glyph-name="aeacute" unicode="&#x1fd;" horiz-adv-x="1435" 
d="M993 922q-88 0 -144 -89t-63 -241h410q-6 156 -59.5 243t-143.5 87zM1036 -16q-198 0 -313 143q-178 -141 -344 -141q-148 0 -229.5 86t-81.5 241q0 162 86 248q51 51 123.5 73.5t181.5 22.5q79 0 157 -16v94q0 174 -184 174q-119 0 -256 -61l-41 145q162 72 320 72
q115 0 182 -37t96 -117q96 162 273 162q166 0 264 -149q100 -147 100 -404v-74h-582q10 -147 79 -228t182 -81t243 68l43 -144q-148 -77 -299 -77zM240 322q0 -90 45.5 -137.5t132.5 -47.5q116 0 237 109q-40 113 -43 258q-78 10 -125 10q-141 0 -198 -57q-49 -49 -49 -135z
M823 1417h221l-266 -235h-123z" />
    <glyph glyph-name="Oslashacute" unicode="&#x1fe;" horiz-adv-x="1212" 
d="M606 1288q-150 0 -237.5 -153t-87.5 -416q0 -238 71 -389l441 872q-77 86 -187 86zM608 145q147 0 236 154q88 152 88 416q0 243 -74 391l-440 -875q77 -86 190 -86zM1126 719q0 -338 -143 -539q-144 -200 -377 -200q-154 0 -270 90l-90 -166h-150l144 260
q-154 202 -154 551q0 337 141 536q144 203 379 203q151 0 273 -90l88 166h149l-145 -260q155 -200 155 -551zM672 1735h233l-266 -197h-145z" />
    <glyph glyph-name="oslashacute" unicode="&#x1ff;" horiz-adv-x="935" 
d="M469 920q-98 0 -157.5 -107t-59.5 -287q0 -146 43 -254l291 596q-52 52 -117 52zM469 131q97 0 156 107.5t59 285.5q0 159 -45 258l-289 -596q52 -55 119 -55zM864 528q0 -250 -110 -399t-287 -149q-105 0 -188 57l-68 -133h-129l113 211q-121 148 -121 409
q0 248 108 398q112 151 287 151q105 0 188 -57l68 131h129l-111 -211q121 -145 121 -408zM539 1419h221l-266 -235h-123z" />
    <glyph glyph-name="uni0218" unicode="&#x218;" horiz-adv-x="1015" 
d="M571 829q210 -104 285 -198q82 -94 82 -242q0 -186 -122 -295.5t-327 -109.5q-221 0 -426 112l52 168q188 -108 377 -108q115 0 187.5 60.5t72.5 154.5q0 85 -60 151q-56 62 -215 146q-198 92 -282 186q-78 93 -78 225q0 167 112 267q114 102 301 102q185 0 357 -84
l-49 -168q-163 82 -312 82q-98 0 -160.5 -52t-62.5 -134q0 -73 59 -131t209 -132zM459 -225q0 38 -43 96l149 41q39 -62 39 -113q0 -111 -145 -188l-60 51q34 36 47 61t13 52z" />
    <glyph glyph-name="uni0219" unicode="&#x219;" horiz-adv-x="821" 
d="M463 610q159 -67 223 -139.5t64 -185.5q0 -139 -93.5 -220t-253.5 -81q-181 0 -350 94l47 153q166 -94 306 -94q76 0 124 38t48 99q0 57 -43 97.5t-156 91.5q-163 70 -223 139q-62 71 -62 178q0 130 89 208.5t237 78.5q154 0 297 -76l-45 -153q-135 75 -254 75
q-68 0 -109 -34t-41 -91q0 -51 41.5 -89t153.5 -89zM365 -215q0 38 -43 96l149 41q39 -62 39 -112q0 -112 -145 -189l-60 51q34 36 47 61t13 52z" />
    <glyph glyph-name="uni021A" unicode="&#x21a;" horiz-adv-x="1038" 
d="M995 1260h-381v-1260h-192v1260h-381v174h954v-174zM467 -213q0 38 -43 96l149 41q39 -62 39 -112q0 -112 -145 -189l-59 51q34 35 46.5 60.5t12.5 52.5z" />
    <glyph glyph-name="uni021B" unicode="&#x21b;" horiz-adv-x="673" 
d="M463 -14q-146 0 -216.5 71t-70.5 219v621h-129v154h129v286h178v-286h256v-154h-256v-592q0 -80 39.5 -122t114.5 -42q38 0 104 17v-154q-63 -18 -149 -18zM350 -215q0 38 -43 96l150 41q39 -62 39 -112q0 -111 -146 -189l-59 51q34 35 46.5 60.5t12.5 52.5z" />
    <glyph glyph-name="uni0226" unicode="&#x226;" horiz-adv-x="1171" 
d="M586 1241l-207 -752h412zM698 1448l426 -1448h-200l-88 322h-502l-88 -322h-197l426 1448h223zM506 1704h160v-170h-160v170z" />
    <glyph glyph-name="uni0227" unicode="&#x227;" horiz-adv-x="915" 
d="M240 322q0 -88 46 -136.5t130 -48.5q98 0 200 88v279q-68 10 -129 10q-141 0 -198 -57q-49 -49 -49 -135zM813 0h-151l-33 109q-135 -123 -277 -123q-134 0 -209 86.5t-75 240.5q0 162 86 248q51 51 123.5 73.5t181.5 22.5q79 0 157 -16v94q0 174 -184 174
q-119 0 -256 -61l-41 145q162 72 324 72q172 0 253 -78t81 -242v-559zM383 1366h152v-174h-152v174z" />
    <glyph glyph-name="uni022E" unicode="&#x22e;" horiz-adv-x="1212" 
d="M606 1454q235 0 377 -201q143 -198 143 -534q0 -338 -143 -539q-144 -200 -377 -200t-377 200q-143 198 -143 535t141 536q144 203 379 203zM608 147q148 0 235 153t87 415q0 263 -88 415q-88 156 -236 156q-149 0 -236 -152.5t-87 -414.5q0 -263 88 -418
q89 -154 237 -154zM526 1708h160v-170h-160v170z" />
    <glyph glyph-name="uni022F" unicode="&#x22f;" horiz-adv-x="935" 
d="M469 1073q178 0 285 -149q110 -149 110 -396q0 -250 -110 -399t-287 -149q-175 0 -285 149q-108 150 -108 395q0 248 108 398q112 151 287 151zM469 133q97 0 156 106.5t59 284.5t-59.5 286t-157.5 108q-97 0 -155 -106t-58 -286q0 -178 59 -285.5t156 -107.5zM393 1366
h152v-174h-152v174z" />
    <glyph glyph-name="uni0232" unicode="&#x232;" horiz-adv-x="1087" 
d="M1059 1434l-420 -871v-563h-193v563l-419 871h204l314 -682l313 682h201zM283 1642h520v-106h-520v106z" />
    <glyph glyph-name="uni0233" unicode="&#x233;" horiz-adv-x="890" 
d="M125 -360l-47 145q188 71 272 215l-307 1051h182l228 -875l225 875h178l-276 -940q-61 -206 -158 -308q-90 -97 -297 -163zM217 1307h463v-105h-463v105z" />
    <glyph glyph-name="uni0237" unicode="&#x237;" horiz-adv-x="440" 
d="M82 -367l-113 107q100 87 131 162q31 76 31 198v951h180v-949q0 -169 -45 -260q-43 -98 -184 -209z" />
    <glyph glyph-name="uni0259" unicode="&#x259;" horiz-adv-x="897" 
d="M401 1067q199 0 310.5 -140.5t111.5 -398.5q0 -252 -106 -399q-109 -152 -277 -152q-173 0 -272.5 147.5t-99.5 405.5v74h579q-7 145 -77 227t-183 82q-125 0 -242 -67l-45 143q150 78 301 78zM442 129q86 0 142 89t67 241h-411q8 -155 61 -242.5t141 -87.5z" />
    <glyph glyph-name="uni02B9" unicode="&#x2b9;" horiz-adv-x="430" 
d="M180 1477h207v-2l-246 -521l-75 23z" />
    <glyph glyph-name="uni02BA" unicode="&#x2ba;" horiz-adv-x="735" 
d="M498 1477h192v-2l-233 -521l-76 23zM182 1477h193v-2l-234 -521l-75 23z" />
    <glyph glyph-name="uni02BB" unicode="&#x2bb;" horiz-adv-x="376" 
d="M236 965h-183v22q0 143 55 260t179 240l61 -45q-67 -113 -90 -209q-22 -104 -22 -268z" />
    <glyph glyph-name="uni02BC" unicode="&#x2bc;" horiz-adv-x="376" 
d="M143 1477h183v-23q0 -142 -55.5 -259.5t-180.5 -240.5l-61 45q70 116 90 211q24 102 24 267z" />
    <glyph glyph-name="uni02BE" unicode="&#x2be;" horiz-adv-x="364" 
d="M49 1106v121q68 2 109 42t41 107q0 66 -41 106t-109 42v121q127 0 204 -73.5t77 -195.5q0 -121 -78 -195.5t-203 -74.5z" />
    <glyph glyph-name="uni02BF" unicode="&#x2bf;" horiz-adv-x="364" 
d="M315 1645v-121q-67 -1 -107 -41.5t-40 -106.5q0 -67 39.5 -107t107.5 -42v-121q-127 0 -202.5 73.5t-75.5 196.5q0 121 76.5 195t201.5 74z" />
    <glyph glyph-name="circumflex" unicode="&#x2c6;" horiz-adv-x="1024" 
d="M754 1182h-117l-125 133l-127 -133h-115l172 237h140z" />
    <glyph glyph-name="caron" unicode="&#x2c7;" horiz-adv-x="1024" 
d="M270 1419h117l125 -135l127 135h115l-172 -237h-140z" />
    <glyph glyph-name="uni02C8" unicode="&#x2c8;" horiz-adv-x="284" 
d="M211 1632v-514h-137v514h137z" />
    <glyph glyph-name="uni02CC" unicode="&#x2cc;" horiz-adv-x="284" 
d="M211 315v-514h-137v514h137z" />
    <glyph glyph-name="uni02CD" unicode="&#x2cd;" horiz-adv-x="1024" 
d="M281 -102h462v-105h-462v105z" />
    <glyph glyph-name="breve" unicode="&#x2d8;" horiz-adv-x="1024" 
d="M512 1284q110 0 137 133h96q-5 -113 -67.5 -179.5t-165.5 -66.5q-104 0 -166 66.5t-67 179.5h96q27 -133 137 -133z" />
    <glyph glyph-name="dotaccent" unicode="&#x2d9;" horiz-adv-x="1024" 
d="M436 1364h152v-174h-152v174z" />
    <glyph glyph-name="ring" unicode="&#x2da;" horiz-adv-x="1024" 
d="M512 1169q-79 0 -131.5 52.5t-52.5 130.5t52.5 130t131.5 52t131.5 -52t52.5 -130t-52.5 -130.5t-131.5 -52.5zM512 1475q-51 0 -84 -34.5t-33 -88.5t33 -88.5t84 -34.5t84 34.5t33 88.5t-33 88.5t-84 34.5z" />
    <glyph glyph-name="ogonek" unicode="&#x2db;" horiz-adv-x="1024" 
d="M510 -135q0 -24 25.5 -37t95.5 -25l-13 -84q-143 8 -204.5 33.5t-61.5 79.5q0 36 29 77.5t106 115.5l101 -17q-48 -71 -63 -98t-15 -45z" />
    <glyph glyph-name="tilde" unicode="&#x2dc;" horiz-adv-x="1024" 
d="M403 1274q-24 0 -41 -21t-43 -79l-88 28q37 105 74.5 149t91.5 44q29 0 55.5 -10.5t77.5 -43.5q48 -29 67.5 -37t37.5 -8q24 0 41 21.5t43 79.5l88 -29q-37 -105 -74.5 -148.5t-91.5 -43.5q-48 0 -133 53q-48 29 -67.5 37t-37.5 8z" />
    <glyph glyph-name="hungarumlaut" unicode="&#x2dd;" horiz-adv-x="1024" 
d="M479 1417h189l-248 -235h-117zM733 1417h189l-246 -235h-119z" />
    <glyph glyph-name="uni0300" unicode="&#x300;" 
d="M-70 1417l168 -235h-123l-266 235h221z" />
    <glyph glyph-name="uni0301" unicode="&#x301;" 
d="M70 1417h221l-266 -235h-123z" />
    <glyph glyph-name="uni0302" unicode="&#x302;" 
d="M242 1182h-117l-125 133l-127 -133h-115l172 237h140z" />
    <glyph glyph-name="uni0303" unicode="&#x303;" 
d="M-109 1274q-24 0 -41 -21t-43 -79l-88 28q37 105 74.5 149t91.5 44q29 0 55.5 -10.5t77.5 -43.5q48 -29 67.5 -37t37.5 -8q24 0 41 21.5t43 79.5l88 -29q-37 -105 -74.5 -148.5t-91.5 -43.5q-48 0 -133 53q-48 29 -67.5 37t-37.5 8z" />
    <glyph glyph-name="uni0304" unicode="&#x304;" 
d="M-231 1307h462v-105h-462v105z" />
    <glyph glyph-name="uni0306" unicode="&#x306;" 
d="M0 1284q110 0 137 133h96q-5 -113 -67.5 -179.5t-165.5 -66.5q-104 0 -166 66.5t-67 179.5h96q27 -133 137 -133z" />
    <glyph glyph-name="uni0307" unicode="&#x307;" 
d="M-76 1364h152v-174h-152v174z" />
    <glyph glyph-name="uni0308" unicode="&#x308;" 
d="M-211 1364h143v-174h-143v174zM68 1364h143v-174h-143v174z" />
    <glyph glyph-name="uni0309" unicode="&#x309;" 
d="M-182 1346l-27 98q101 35 209 35q96 0 150.5 -32.5t54.5 -88.5q0 -55 -53 -98.5t-183 -94.5l-32 76q82 37 111.5 57t29.5 39q0 39 -90 39q-65 0 -170 -30z" />
    <glyph glyph-name="uni030A" unicode="&#x30a;" 
d="M0 1169q-79 0 -131.5 52.5t-52.5 130.5t52.5 130t131.5 52t131.5 -52t52.5 -130t-52.5 -130.5t-131.5 -52.5zM0 1475q-51 0 -84 -34.5t-33 -88.5t33 -88.5t84 -34.5t84 34.5t33 88.5t-33 88.5t-84 34.5z" />
    <glyph glyph-name="uni030B" unicode="&#x30b;" 
d="M-33 1417h189l-248 -235h-117zM221 1417h189l-246 -235h-119z" />
    <glyph glyph-name="uni030C" unicode="&#x30c;" 
d="M-242 1419h117l125 -135l127 135h115l-172 -237h-140z" />
    <glyph glyph-name="uni0312" unicode="&#x312;" 
d="M51 1309q0 -39 43 -97l-149 -41q-39 62 -39 113q0 112 145 189l60 -52q-34 -36 -47 -60.5t-13 -51.5z" />
    <glyph glyph-name="uni0315" unicode="&#x315;" 
d="M0 1415v62h125v-43q0 -80 -25 -144.5t-84 -130.5l-57 31q41 100 41 225z" />
    <glyph glyph-name="uni0323" unicode="&#x323;" 
d="M-76 -92h152v-174h-152v174z" />
    <glyph glyph-name="uni0324" unicode="&#x324;" 
d="M-211 -92h143v-174h-143v174zM68 -92h143v-174h-143v174z" />
    <glyph glyph-name="uni0326" unicode="&#x326;" 
d="M-51 -213q0 38 -43 96l149 41q39 -62 39 -112q0 -112 -145 -189l-60 51q34 36 47 61t13 52z" />
    <glyph glyph-name="uni0327" unicode="&#x327;" 
d="M162 -160q0 -124 -318 -145l-10 69q94 11 135 26t41 40q0 49 -108 27l-27 39l84 122l115 -10l-64 -80q72 2 112 -21t40 -67z" />
    <glyph glyph-name="uni0328" unicode="&#x328;" 
d="M-2 -135q0 -24 25.5 -37t95.5 -25l-13 -84q-143 8 -204.5 33.5t-61.5 79.5q0 36 29 77.5t106 115.5l101 -17q-48 -71 -63 -98t-15 -45z" />
    <glyph glyph-name="uni032D" unicode="&#x32d;" 
d="M242 -330h-117l-125 133l-127 -133h-115l172 238h140z" />
    <glyph glyph-name="uni032E" unicode="&#x32e;" 
d="M0 -225q110 0 137 133h96q-5 -113 -67.5 -179.5t-165.5 -66.5q-104 0 -166 66.5t-67 179.5h96q27 -133 137 -133z" />
    <glyph glyph-name="uni0331" unicode="&#x331;" 
d="M-231 -102h462v-105h-462v105z" />
    <glyph glyph-name="uni0E3F" unicode="&#xe3f;" horiz-adv-x="1142" 
d="M635 2v-203h-115v201h-375v1434h375v159h115v-159q190 -7 291.5 -96.5t101.5 -247.5q0 -259 -268 -347q307 -65 307 -346q0 -178 -112.5 -280.5t-319.5 -114.5zM535 1282h-211v-471h211v471zM850 1069q0 97 -60 152t-172 61v-467q109 17 170.5 83.5t61.5 170.5zM535 668
h-213v-518h213v518zM887 412q0 109 -70 174.5t-199 77.5v-514q125 6 197 75.5t72 186.5z" />
    <glyph glyph-name="uni1E06" unicode="&#x1e06;" horiz-adv-x="1099" 
d="M1026 397q0 -186 -130 -291.5t-359 -105.5h-392v1434h406q206 0 321 -91t115 -253q0 -258 -268 -347q152 -35 229.5 -123t77.5 -223zM539 1266h-201v-445h162q131 0 211 67t80 177q0 97 -65.5 149t-186.5 52zM502 657h-164v-489h209q129 0 205.5 66t76.5 178
q0 115 -86.5 180t-240.5 65zM346 -102h463v-105h-463v105z" />
    <glyph glyph-name="uni1E07" unicode="&#x1e07;" horiz-adv-x="958" 
d="M883 530q0 -256 -95.5 -401t-261.5 -145q-119 0 -231 100l-29 -84h-139v1477h178v-504q99 92 225 92q165 0 259 -142.5t94 -392.5zM475 135q106 0 166.5 103t60.5 288t-59.5 287t-167.5 102q-92 0 -170 -75v-633q78 -72 170 -72zM233 -104h463v-105h-463v105z" />
    <glyph glyph-name="uni1E0C" unicode="&#x1e0c;" horiz-adv-x="1173" 
d="M1085 719q0 -343 -166 -531t-466 -188h-308v1434h312q297 0 462.5 -187t165.5 -528zM465 1266h-127v-1098h129q203 0 312.5 141.5t109.5 405.5q0 265 -110.5 408t-313.5 143zM494 -92h151v-174h-151v174z" />
    <glyph glyph-name="uni1E0D" unicode="&#x1e0d;" horiz-adv-x="958" 
d="M256 524q0 -185 59.5 -287t167.5 -102q89 0 168 76v633q-81 71 -168 71q-106 0 -166.5 -103t-60.5 -288zM831 0h-141l-28 88q-118 -104 -236 -104q-162 0 -256 143.5t-94 394.5q0 254 97 398.5t267 144.5q114 0 211 -72v484h180v-1477zM418 -94h151v-174h-151v174z" />
    <glyph glyph-name="uni1E0E" unicode="&#x1e0e;" horiz-adv-x="1173" 
d="M1085 719q0 -343 -166 -531t-466 -188h-308v1434h312q297 0 462.5 -187t165.5 -528zM465 1266h-127v-1098h129q203 0 312.5 141.5t109.5 405.5q0 265 -110.5 408t-313.5 143zM338 -102h463v-105h-463v105z" />
    <glyph glyph-name="uni1E0F" unicode="&#x1e0f;" horiz-adv-x="958" 
d="M256 524q0 -185 59.5 -287t167.5 -102q89 0 168 76v633q-81 71 -168 71q-106 0 -166.5 -103t-60.5 -288zM831 0h-141l-28 88q-118 -104 -236 -104q-162 0 -256 143.5t-94 394.5q0 254 97 398.5t267 144.5q114 0 211 -72v484h180v-1477zM262 -104h463v-105h-463v105z" />
    <glyph glyph-name="uni1E12" unicode="&#x1e12;" horiz-adv-x="1173" 
d="M1085 719q0 -343 -166 -531t-466 -188h-308v1434h312q297 0 462.5 -187t165.5 -528zM465 1266h-127v-1098h129q203 0 312.5 141.5t109.5 405.5q0 265 -110.5 408t-313.5 143zM811 -330h-117l-125 133l-127 -133h-114l172 238h139z" />
    <glyph glyph-name="uni1E13" unicode="&#x1e13;" horiz-adv-x="958" 
d="M256 524q0 -185 59.5 -287t167.5 -102q89 0 168 76v633q-81 71 -168 71q-106 0 -166.5 -103t-60.5 -288zM831 0h-141l-28 88q-118 -104 -236 -104q-162 0 -256 143.5t-94 394.5q0 254 97 398.5t267 144.5q114 0 211 -72v484h180v-1477zM735 -332h-117l-124 133l-127 -133
h-115l172 238h139z" />
    <glyph glyph-name="uni1E20" unicode="&#x1e20;" horiz-adv-x="1165" 
d="M588 782h448v-690q-179 -106 -377 -106q-272 0 -422.5 191.5t-150.5 537.5q0 333 160 534q165 201 424 201q173 0 340 -80l-54 -172q-151 76 -284 76q-176 0 -285 -154q-104 -149 -104 -405q0 -270 100 -415.5t285 -145.5q106 0 180 47v409h-260v172zM375 1655h520v-107
h-520v107z" />
    <glyph glyph-name="uni1E21" unicode="&#x1e21;" horiz-adv-x="958" 
d="M483 915q-106 0 -166.5 -99.5t-60.5 -278.5q0 -178 60 -276.5t169 -98.5q85 0 166 71v611q-81 71 -168 71zM664 967l26 84h141v-1006q0 -403 -409 -403q-167 0 -293 55l41 147q124 -51 246 -51q235 0 235 242v61q-109 -86 -221 -86q-166 0 -260 138t-94 384
q0 250 95 392.5t261 142.5q126 0 232 -100zM262 1309h463v-105h-463v105z" />
    <glyph glyph-name="uni1E24" unicode="&#x1e24;" horiz-adv-x="1214" 
d="M874 0v645h-536v-645h-193v1434h193v-607h536v607h193v-1434h-193zM530 -84h152v-174h-152v174z" />
    <glyph glyph-name="uni1E25" unicode="&#x1e25;" horiz-adv-x="976" 
d="M508 907q-102 0 -203 -82v-825h-178v1477h178v-514q136 102 273 102q135 0 207.5 -80.5t72.5 -232.5v-752h-180v711q0 196 -170 196zM416 -84h151v-174h-151v174z" />
    <glyph glyph-name="uni1E28" unicode="&#x1e28;" horiz-adv-x="1214" 
d="M406 -160q0 -124 -318 -145l-10 69q94 11 135 26t41 40q0 23 -29 30.5t-80 -3.5l-26 39l71 104h-45v1434h193v-607h536v607h193v-1434h-193v645h-536v-645h-27l-57 -72q72 2 112 -21t40 -67z" />
    <glyph glyph-name="uni1E29" unicode="&#x1e29;" horiz-adv-x="976" 
d="M379 -160q0 -124 -318 -145l-10 69q94 11 135 26t41 40q0 49 -108 27l-27 39l72 104h-37v1477h178v-514q136 102 273 102q135 0 207.5 -80.5t72.5 -232.5v-752h-180v711q0 196 -170 196q-102 0 -203 -82v-825h-20l-58 -72q72 2 112 -21t40 -67z" />
    <glyph glyph-name="uni1E2A" unicode="&#x1e2a;" horiz-adv-x="1214" 
d="M874 0v645h-536v-645h-193v1434h193v-607h536v607h193v-1434h-193zM606 -225q110 0 137 133h97q-5 -113 -68 -179.5t-166 -66.5q-104 0 -166 66.5t-67 179.5h96q27 -133 137 -133z" />
    <glyph glyph-name="uni1E2B" unicode="&#x1e2b;" horiz-adv-x="976" 
d="M508 907q-102 0 -203 -82v-825h-178v1477h178v-514q136 102 273 102q135 0 207.5 -80.5t72.5 -232.5v-752h-180v711q0 196 -170 196zM492 -225q110 0 137 133h96q-5 -113 -67.5 -179.5t-165.5 -66.5q-104 0 -166.5 66.5t-67.5 179.5h96q27 -133 138 -133z" />
    <glyph glyph-name="uni1E32" unicode="&#x1e32;" horiz-adv-x="1085" 
d="M539 737l530 -737h-227l-494 696h-10v-696h-193v1434h193v-660h12l484 660h225zM487 -84h152v-174h-152v174z" />
    <glyph glyph-name="uni1E33" unicode="&#x1e33;" horiz-adv-x="878" 
d="M489 549l373 -549h-209l-344 528h-4v-528h-178v1477h178v-908h4l336 482h207zM391 -84h152v-174h-152v174z" />
    <glyph glyph-name="uni1E34" unicode="&#x1e34;" horiz-adv-x="1085" 
d="M539 737l530 -737h-227l-494 696h-10v-696h-193v1434h193v-660h12l484 660h225zM332 -102h463v-105h-463v105z" />
    <glyph glyph-name="uni1E35" unicode="&#x1e35;" horiz-adv-x="878" 
d="M489 549l373 -549h-209l-344 528h-4v-528h-178v1477h178v-908h4l336 482h207zM236 -102h462v-105h-462v105z" />
    <glyph glyph-name="uni1E36" unicode="&#x1e36;" horiz-adv-x="909" 
d="M338 176h528v-176h-721v1434h193v-1258zM424 -92h151v-174h-151v174z" />
    <glyph glyph-name="uni1E37" unicode="&#x1e37;" horiz-adv-x="440" 
d="M131 1477h178v-1477h-178v1477zM143 -92h152v-174h-152v174z" />
    <glyph glyph-name="uni1E38" unicode="&#x1e38;" horiz-adv-x="909" 
d="M338 176h528v-176h-721v1434h193v-1258zM16 1642h455v-106h-455v106zM424 -92h151v-174h-151v174z" />
    <glyph glyph-name="uni1E39" unicode="&#x1e39;" horiz-adv-x="440" 
d="M131 1477h178v-1477h-178v1477zM14 1700h414v-105h-414v105zM143 -92h152v-174h-152v174z" />
    <glyph glyph-name="uni1E3A" unicode="&#x1e3a;" horiz-adv-x="909" 
d="M338 176h528v-176h-721v1434h193v-1258zM268 -102h463v-105h-463v105z" />
    <glyph glyph-name="uni1E3B" unicode="&#x1e3b;" horiz-adv-x="440" 
d="M131 1477h178v-1477h-178v1477zM12 -102h414v-105h-414v105z" />
    <glyph glyph-name="uni1E3C" unicode="&#x1e3c;" horiz-adv-x="909" 
d="M338 176h528v-176h-721v1434h193v-1258zM741 -330h-116l-125 133l-127 -133h-115l172 238h139z" />
    <glyph glyph-name="uni1E3D" unicode="&#x1e3d;" horiz-adv-x="440" 
d="M131 1477h178v-1477h-178v1477zM461 -330h-117l-125 133l-127 -133h-115l173 238h139z" />
    <glyph glyph-name="uni1E3E" unicode="&#x1e3e;" horiz-adv-x="1581" 
d="M1401 1434l57 -1434h-188l-43 1192l-348 -1194h-189l-348 1194l-43 -1192h-176l57 1434h266l340 -1178l338 1178h277zM854 1714h233l-266 -196h-145z" />
    <glyph glyph-name="uni1E3F" unicode="&#x1e3f;" horiz-adv-x="1507" 
d="M1389 756v-756h-179v715q0 94 -43 143t-125 49q-95 0 -206 -88q12 -35 12 -78v-741h-180v715q0 94 -42 143t-122 49q-98 0 -199 -82v-825h-178v1051h139l31 -95q138 109 274 109q169 0 234 -123q156 123 305 123q135 0 207 -80t72 -229zM827 1419h222l-267 -235h-123z
" />
    <glyph glyph-name="uni1E40" unicode="&#x1e40;" horiz-adv-x="1581" 
d="M1401 1434l57 -1434h-188l-43 1192l-348 -1194h-189l-348 1194l-43 -1192h-176l57 1434h266l340 -1178l338 1178h277zM709 1688h159v-170h-159v170z" />
    <glyph glyph-name="uni1E41" unicode="&#x1e41;" horiz-adv-x="1507" 
d="M1389 756v-756h-179v715q0 94 -43 143t-125 49q-95 0 -206 -88q12 -35 12 -78v-741h-180v715q0 94 -42 143t-122 49q-98 0 -199 -82v-825h-178v1051h139l31 -95q138 109 274 109q169 0 234 -123q156 123 305 123q135 0 207 -80t72 -229zM682 1366h152v-174h-152v174z" />
    <glyph glyph-name="uni1E42" unicode="&#x1e42;" horiz-adv-x="1581" 
d="M1401 1434l57 -1434h-188l-43 1192l-348 -1194h-189l-348 1194l-43 -1192h-176l57 1434h266l340 -1178l338 1178h277zM709 -92h151v-174h-151v174z" />
    <glyph glyph-name="uni1E43" unicode="&#x1e43;" horiz-adv-x="1507" 
d="M1389 756v-756h-179v715q0 94 -43 143t-125 49q-95 0 -206 -88q12 -35 12 -78v-741h-180v715q0 94 -42 143t-122 49q-98 0 -199 -82v-825h-178v1051h139l31 -95q138 109 274 109q169 0 234 -123q156 123 305 123q135 0 207 -80t72 -229zM682 -92h152v-174h-152v174z" />
    <glyph glyph-name="uni1E44" unicode="&#x1e44;" horiz-adv-x="1220" 
d="M1073 0h-217l-530 1128v-1128h-181v1434h226l524 -1115v1115h178v-1434zM545 1688h160v-170h-160v170z" />
    <glyph glyph-name="uni1E45" unicode="&#x1e45;" horiz-adv-x="976" 
d="M508 907q-102 0 -203 -82v-825h-178v1051h139l31 -95q138 109 281 109q135 0 207.5 -80.5t72.5 -232.5v-752h-180v711q0 196 -170 196zM412 1366h151v-174h-151v174z" />
    <glyph glyph-name="uni1E46" unicode="&#x1e46;" horiz-adv-x="1220" 
d="M1073 0h-217l-530 1128v-1128h-181v1434h226l524 -1115v1115h178v-1434zM524 -84h152v-174h-152v174z" />
    <glyph glyph-name="uni1E47" unicode="&#x1e47;" horiz-adv-x="976" 
d="M508 907q-102 0 -203 -82v-825h-178v1051h139l31 -95q138 109 281 109q135 0 207.5 -80.5t72.5 -232.5v-752h-180v711q0 196 -170 196zM416 -84h151v-174h-151v174z" />
    <glyph glyph-name="uni1E48" unicode="&#x1e48;" horiz-adv-x="1220" 
d="M1073 0h-217l-530 1128v-1128h-181v1434h226l524 -1115v1115h178v-1434zM369 -102h462v-105h-462v105z" />
    <glyph glyph-name="uni1E49" unicode="&#x1e49;" horiz-adv-x="976" 
d="M508 907q-102 0 -203 -82v-825h-178v1051h139l31 -95q138 109 281 109q135 0 207.5 -80.5t72.5 -232.5v-752h-180v711q0 196 -170 196zM260 -102h463v-105h-463v105z" />
    <glyph glyph-name="uni1E4A" unicode="&#x1e4a;" horiz-adv-x="1220" 
d="M1073 0h-217l-530 1128v-1128h-181v1434h226l524 -1115v1115h178v-1434zM842 -322h-117l-125 134l-127 -134h-115l172 238h140z" />
    <glyph glyph-name="uni1E4B" unicode="&#x1e4b;" horiz-adv-x="976" 
d="M508 907q-102 0 -203 -82v-825h-178v1051h139l31 -95q138 109 281 109q135 0 207.5 -80.5t72.5 -232.5v-752h-180v711q0 196 -170 196zM733 -322h-117l-124 134l-127 -134h-115l172 238h139z" />
    <glyph glyph-name="uni1E58" unicode="&#x1e58;" horiz-adv-x="1128" 
d="M518 1266h-180v-557h137q150 0 241 81t91 216q0 127 -74 193.5t-215 66.5zM432 543h-94v-543h-193v1434h385q229 0 351.5 -105t122.5 -301q0 -155 -85 -261.5t-247 -156.5q60 -23 100 -64t94 -134l242 -412h-221l-211 371q-55 98 -108.5 135t-135.5 37zM461 1696h160
v-170h-160v170z" />
    <glyph glyph-name="uni1E59" unicode="&#x1e59;" horiz-adv-x="649" 
d="M305 743v-743h-178v1051h137l33 -166q125 180 311 180v-188q-166 -9 -303 -134zM279 1364h151v-174h-151v174z" />
    <glyph glyph-name="uni1E5A" unicode="&#x1e5a;" horiz-adv-x="1128" 
d="M518 1266h-180v-557h137q150 0 241 81t91 216q0 127 -74 193.5t-215 66.5zM432 543h-94v-543h-193v1434h385q229 0 351.5 -105t122.5 -301q0 -155 -85 -261.5t-247 -156.5q60 -23 100 -64t94 -134l242 -412h-221l-211 371q-55 98 -108.5 135t-135.5 37zM502 -84h151v-174
h-151v174z" />
    <glyph glyph-name="uni1E5B" unicode="&#x1e5b;" horiz-adv-x="649" 
d="M305 743v-743h-178v1051h137l33 -166q125 180 311 180v-188q-166 -9 -303 -134zM141 -92h152v-174h-152v174z" />
    <glyph glyph-name="uni1E5C" unicode="&#x1e5c;" horiz-adv-x="1128" 
d="M518 1266h-180v-557h137q150 0 241 81t91 216q0 127 -74 193.5t-215 66.5zM432 543h-94v-543h-193v1434h385q229 0 351.5 -105t122.5 -301q0 -155 -85 -261.5t-247 -156.5q60 -23 100 -64t94 -134l242 -412h-221l-211 371q-55 98 -108.5 135t-135.5 37zM281 1642h520
v-106h-520v106zM504 -84h151v-174h-151v174z" />
    <glyph glyph-name="uni1E5D" unicode="&#x1e5d;" horiz-adv-x="649" 
d="M305 743v-743h-178v1051h137l33 -166q125 180 311 180v-188q-166 -9 -303 -134zM147 1307h414v-105h-414v105zM141 -92h152v-174h-152v174z" />
    <glyph glyph-name="uni1E5E" unicode="&#x1e5e;" horiz-adv-x="1128" 
d="M518 1266h-180v-557h137q150 0 241 81t91 216q0 127 -74 193.5t-215 66.5zM432 543h-94v-543h-193v1434h385q229 0 351.5 -105t122.5 -301q0 -155 -85 -261.5t-247 -156.5q60 -23 100 -64t94 -134l242 -412h-221l-211 371q-55 98 -108.5 135t-135.5 37zM346 -102h463
v-105h-463v105z" />
    <glyph glyph-name="uni1E5F" unicode="&#x1e5f;" horiz-adv-x="649" 
d="M305 743v-743h-178v1051h137l33 -166q125 180 311 180v-188q-166 -9 -303 -134zM10 -102h414v-105h-414v105z" />
    <glyph glyph-name="uni1E62" unicode="&#x1e62;" horiz-adv-x="1015" 
d="M571 829q210 -104 285 -198q82 -94 82 -242q0 -186 -122 -295.5t-327 -109.5q-221 0 -426 112l52 168q188 -108 377 -108q115 0 187.5 60.5t72.5 154.5q0 85 -60 151q-56 62 -215 146q-198 92 -282 186q-78 93 -78 225q0 167 112 267q114 102 301 102q185 0 357 -84
l-49 -168q-163 82 -312 82q-98 0 -160.5 -52t-62.5 -134q0 -73 59 -131t209 -132zM434 -104h152v-175h-152v175z" />
    <glyph glyph-name="uni1E63" unicode="&#x1e63;" horiz-adv-x="821" 
d="M463 610q159 -67 223 -139.5t64 -185.5q0 -139 -93.5 -220t-253.5 -81q-181 0 -350 94l47 153q166 -94 306 -94q76 0 124 38t48 99q0 57 -43 97.5t-156 91.5q-163 70 -223 139q-62 71 -62 178q0 130 89 208.5t237 78.5q154 0 297 -76l-45 -153q-135 75 -254 75
q-68 0 -109 -34t-41 -91q0 -51 41.5 -89t153.5 -89zM340 -94h152v-174h-152v174z" />
    <glyph glyph-name="uni1E6C" unicode="&#x1e6c;" horiz-adv-x="1038" 
d="M995 1260h-381v-1260h-192v1260h-381v174h954v-174zM442 -92h152v-174h-152v174z" />
    <glyph glyph-name="uni1E6D" unicode="&#x1e6d;" horiz-adv-x="673" 
d="M463 -14q-146 0 -216.5 71t-70.5 219v621h-129v154h129v286h178v-286h256v-154h-256v-592q0 -80 39.5 -122t114.5 -42q38 0 104 17v-154q-63 -18 -149 -18zM326 -94h151v-174h-151v174z" />
    <glyph glyph-name="uni1E6E" unicode="&#x1e6e;" horiz-adv-x="1038" 
d="M995 1260h-381v-1260h-192v1260h-381v174h954v-174zM287 -102h463v-105h-463v105z" />
    <glyph glyph-name="uni1E6F" unicode="&#x1e6f;" horiz-adv-x="673" 
d="M463 -14q-146 0 -216.5 71t-70.5 219v621h-129v154h129v286h178v-286h256v-154h-256v-592q0 -80 39.5 -122t114.5 -42q38 0 104 17v-154q-63 -18 -149 -18zM195 -104h413v-105h-413v105z" />
    <glyph glyph-name="uni1E70" unicode="&#x1e70;" horiz-adv-x="1038" 
d="M995 1260h-381v-1260h-192v1260h-381v174h954v-174zM760 -330h-117l-125 133l-127 -133h-115l173 238h139z" />
    <glyph glyph-name="uni1E71" unicode="&#x1e71;" horiz-adv-x="673" 
d="M463 -14q-146 0 -216.5 71t-70.5 219v621h-129v154h129v286h178v-286h256v-154h-256v-592q0 -80 39.5 -122t114.5 -42q38 0 104 17v-154q-63 -18 -149 -18zM643 -332h-117l-125 133l-127 -133h-114l172 238h139z" />
    <glyph glyph-name="uni1E7E" unicode="&#x1e7e;" horiz-adv-x="1146" 
d="M897 1434h201l-418 -1448h-213l-418 1448h205l321 -1198zM498 -100h151v-174h-151v174z" />
    <glyph glyph-name="uni1E7F" unicode="&#x1e7f;" horiz-adv-x="884" 
d="M672 1051h176l-307 -1061h-195l-307 1061h180l227 -875zM367 -94h151v-174h-151v174z" />
    <glyph glyph-name="Wgrave" unicode="&#x1e80;" horiz-adv-x="1714" 
d="M1659 1434l-311 -1444h-213l-279 1163l-278 -1163h-211l-310 1444h199l227 -1162l273 1162h215l270 -1162l227 1162h191zM791 1722l178 -196h-146l-266 196h234z" />
    <glyph glyph-name="wgrave" unicode="&#x1e81;" horiz-adv-x="1370" 
d="M1327 1051l-250 -1059h-188l-205 819l-203 -819h-190l-246 1059h176l172 -844l203 844h182l203 -840l172 840h174zM614 1417l168 -235h-123l-266 235h221z" />
    <glyph glyph-name="Wacute" unicode="&#x1e82;" horiz-adv-x="1714" 
d="M1659 1434l-311 -1444h-213l-279 1163l-278 -1163h-211l-310 1444h199l227 -1162l273 1162h215l270 -1162l227 1162h191zM922 1722h233l-266 -196h-146z" />
    <glyph glyph-name="wacute" unicode="&#x1e83;" horiz-adv-x="1370" 
d="M1327 1051l-250 -1059h-188l-205 819l-203 -819h-190l-246 1059h176l172 -844l203 844h182l203 -840l172 840h174zM754 1417h221l-266 -235h-123z" />
    <glyph glyph-name="Wdieresis" unicode="&#x1e84;" horiz-adv-x="1714" 
d="M1659 1434l-311 -1444h-213l-279 1163l-278 -1163h-211l-310 1444h199l227 -1162l273 1162h215l270 -1162l227 1162h191zM631 1696h153v-170h-153v170zM928 1696h153v-170h-153v170z" />
    <glyph glyph-name="wdieresis" unicode="&#x1e85;" horiz-adv-x="1370" 
d="M1327 1051l-250 -1059h-188l-205 819l-203 -819h-190l-246 1059h176l172 -844l203 844h182l203 -840l172 840h174zM473 1364h143v-174h-143v174zM752 1364h143v-174h-143v174z" />
    <glyph glyph-name="uni1E8C" unicode="&#x1e8c;" horiz-adv-x="1091" 
d="M664 739l380 -739h-208l-293 586l-291 -586h-205l381 739l-362 695h208l275 -549l272 549h205zM322 1696h153v-170h-153v170zM618 1696h154v-170h-154v170z" />
    <glyph glyph-name="uni1E8D" unicode="&#x1e8d;" horiz-adv-x="864" 
d="M537 541l288 -541h-186l-209 412l-207 -412h-186l287 543l-273 508h189l192 -389l197 389h184zM221 1364h144v-174h-144v174zM500 1364h143v-174h-143v174z" />
    <glyph glyph-name="uni1E8E" unicode="&#x1e8e;" horiz-adv-x="1087" 
d="M1059 1434l-420 -871v-563h-193v563l-419 871h204l314 -682l313 682h201zM463 1688h160v-170h-160v170z" />
    <glyph glyph-name="uni1E8F" unicode="&#x1e8f;" horiz-adv-x="890" 
d="M125 -360l-47 145q188 71 272 215l-307 1051h182l228 -875l225 875h178l-276 -940q-61 -206 -158 -308q-90 -97 -297 -163zM373 1356h151v-174h-151v174z" />
    <glyph glyph-name="uni1E90" unicode="&#x1e90;" horiz-adv-x="1015" 
d="M291 172h651v-172h-870v158l651 1104h-619v172h838v-158zM760 1526h-127l-125 106l-123 -106h-125l170 203h160z" />
    <glyph glyph-name="uni1E91" unicode="&#x1e91;" horiz-adv-x="819" 
d="M264 152h486v-152h-687v143l488 756h-465v152h664v-142zM657 1182h-116l-125 133l-127 -133h-115l172 237h139z" />
    <glyph glyph-name="uni1E92" unicode="&#x1e92;" horiz-adv-x="1015" 
d="M291 172h651v-172h-870v158l651 1104h-619v172h838v-158zM446 -92h152v-174h-152v174z" />
    <glyph glyph-name="uni1E93" unicode="&#x1e93;" horiz-adv-x="819" 
d="M264 152h486v-152h-687v143l488 756h-465v152h664v-142zM344 -92h152v-174h-152v174z" />
    <glyph glyph-name="uni1E94" unicode="&#x1e94;" horiz-adv-x="1015" 
d="M291 172h651v-172h-870v158l651 1104h-619v172h838v-158zM291 -102h463v-105h-463v105z" />
    <glyph glyph-name="uni1E95" unicode="&#x1e95;" horiz-adv-x="819" 
d="M264 152h486v-152h-687v143l488 756h-465v152h664v-142zM188 -102h463v-105h-463v105z" />
    <glyph glyph-name="uni1E96" unicode="&#x1e96;" horiz-adv-x="976" 
d="M508 907q-102 0 -203 -82v-825h-178v1477h178v-514q136 102 273 102q135 0 207.5 -80.5t72.5 -232.5v-752h-180v711q0 196 -170 196zM260 -102h463v-105h-463v105z" />
    <glyph glyph-name="uni1E9E" unicode="&#x1e9e;" horiz-adv-x="1157" 
d="M1081 319q0 -151 -104 -245t-272 -94q-121 0 -211 34v172q85 -36 184 -36q92 0 149.5 51t57.5 133q0 90 -81 163.5t-255 141.5v119l295 442q-101 84 -230 84q-134 0 -211 -89t-77 -247v-948h-191v944q0 237 128 372.5t351 135.5q140 0 257.5 -57.5t199.5 -165.5v-10
l-315 -478q325 -157 325 -422z" />
    <glyph glyph-name="uni1EA0" unicode="&#x1ea0;" horiz-adv-x="1171" 
d="M586 1241l-207 -752h412zM698 1448l426 -1448h-200l-88 322h-502l-88 -322h-197l426 1448h223zM514 -84h152v-174h-152v174z" />
    <glyph glyph-name="uni1EA1" unicode="&#x1ea1;" horiz-adv-x="915" 
d="M240 322q0 -88 46 -136.5t130 -48.5q98 0 200 88v279q-68 10 -129 10q-141 0 -198 -57q-49 -49 -49 -135zM813 0h-151l-33 109q-135 -123 -277 -123q-134 0 -209 86.5t-75 240.5q0 162 86 248q51 51 123.5 73.5t181.5 22.5q79 0 157 -16v94q0 174 -184 174
q-119 0 -256 -61l-41 145q162 72 324 72q172 0 253 -78t81 -242v-559zM377 -94h151v-174h-151v174z" />
    <glyph glyph-name="uni1EA2" unicode="&#x1ea2;" horiz-adv-x="1171" 
d="M586 1241l-207 -752h412zM698 1448l426 -1448h-200l-88 322h-502l-88 -322h-197l426 1448h223zM385 1686l-23 98q103 28 224 28q105 0 163 -30.5t58 -85.5q0 -54 -58.5 -94.5t-195.5 -83.5l-27 79q88 31 119 48t31 34q0 33 -101 33q-105 0 -190 -26z" />
    <glyph glyph-name="uni1EA3" unicode="&#x1ea3;" horiz-adv-x="915" 
d="M240 322q0 -88 46 -136.5t130 -48.5q98 0 200 88v279q-68 10 -129 10q-141 0 -198 -57q-49 -49 -49 -135zM813 0h-151l-33 109q-135 -123 -277 -123q-134 0 -209 86.5t-75 240.5q0 162 86 248q51 51 123.5 73.5t181.5 22.5q79 0 157 -16v94q0 174 -184 174
q-119 0 -256 -61l-41 145q162 72 324 72q172 0 253 -78t81 -242v-559zM276 1348l-26 98q101 35 209 35q96 0 150.5 -32.5t54.5 -88.5q0 -55 -53 -98.5t-183 -94.5l-33 76q82 37 112 57t30 39q0 39 -91 39q-65 0 -170 -30z" />
    <glyph glyph-name="uni1EA4" unicode="&#x1ea4;" horiz-adv-x="1171" 
d="M586 1241l-207 -752h412zM698 1448l426 -1448h-200l-88 322h-502l-88 -322h-197l426 1448h223zM934 1870h219l-246 -168h-129zM840 1534h-127l-129 88l-127 -88h-125l174 182h160z" />
    <glyph glyph-name="uni1EA5" unicode="&#x1ea5;" horiz-adv-x="915" 
d="M240 322q0 -88 46 -136.5t130 -48.5q98 0 200 88v279q-68 10 -129 10q-141 0 -198 -57q-49 -49 -49 -135zM813 0h-151l-33 109q-135 -123 -277 -123q-134 0 -209 86.5t-75 240.5q0 162 86 248q51 51 123.5 73.5t181.5 22.5q79 0 157 -16v94q0 174 -184 174
q-119 0 -256 -61l-41 145q162 72 324 72q172 0 253 -78t81 -242v-559zM791 1565h204l-239 -197h-105zM705 1184h-115l-131 112l-131 -112h-115l176 213h139z" />
    <glyph glyph-name="uni1EA6" unicode="&#x1ea6;" horiz-adv-x="1171" 
d="M586 1241l-207 -752h412zM698 1448l426 -1448h-200l-88 322h-502l-88 -322h-197l426 1448h223zM616 1870h220l155 -168h-129zM840 1534h-127l-129 88l-127 -88h-125l174 182h160z" />
    <glyph glyph-name="uni1EA7" unicode="&#x1ea7;" horiz-adv-x="915" 
d="M240 322q0 -88 46 -136.5t130 -48.5q98 0 200 88v279q-68 10 -129 10q-141 0 -198 -57q-49 -49 -49 -135zM813 0h-151l-33 109q-135 -123 -277 -123q-134 0 -209 86.5t-75 240.5q0 162 86 248q51 51 123.5 73.5t181.5 22.5q79 0 157 -16v94q0 174 -184 174
q-119 0 -256 -61l-41 145q162 72 324 72q172 0 253 -78t81 -242v-559zM684 1565l141 -197h-104l-240 197h203zM705 1184h-115l-131 112l-131 -112h-115l176 213h139z" />
    <glyph glyph-name="uni1EA8" unicode="&#x1ea8;" horiz-adv-x="1171" 
d="M586 1241l-207 -752h412zM698 1448l426 -1448h-200l-88 322h-502l-88 -322h-197l426 1448h223zM688 1819l-20 88q82 24 172 24q85 0 130.5 -27t45.5 -77q0 -49 -47 -86t-156 -72l-25 72q68 26 92.5 40.5t24.5 28.5q0 29 -76 29q-68 0 -141 -20zM840 1534h-127l-129 88
l-127 -88h-125l174 182h160z" />
    <glyph glyph-name="uni1EA9" unicode="&#x1ea9;" horiz-adv-x="915" 
d="M240 322q0 -88 46 -136.5t130 -48.5q98 0 200 88v279q-68 10 -129 10q-141 0 -198 -57q-49 -49 -49 -135zM813 0h-151l-33 109q-135 -123 -277 -123q-134 0 -209 86.5t-75 240.5q0 162 86 248q51 51 123.5 73.5t181.5 22.5q79 0 157 -16v94q0 174 -184 174
q-119 0 -256 -61l-41 145q162 72 324 72q172 0 253 -78t81 -242v-559zM571 1499l-22 86q76 27 166 27q78 0 123 -29.5t45 -79.5q0 -49 -45 -89t-148 -81l-28 66q61 30 85.5 49t24.5 37q0 35 -74 35q-62 0 -127 -21zM705 1184h-115l-131 112l-131 -112h-115l176 213h139z" />
    <glyph glyph-name="uni1EAA" unicode="&#x1eaa;" horiz-adv-x="1171" 
d="M586 1241l-207 -752h412zM698 1448l426 -1448h-200l-88 322h-502l-88 -322h-197l426 1448h223zM494 1835q-23 0 -38 -18t-36 -66l-88 31q32 88 67 127t82 39q44 0 121 -43q62 -39 94 -39q20 0 35.5 17.5t38.5 66.5l88 -29q-36 -92 -69 -130t-80 -38q-24 0 -47 9t-72 36
q-66 37 -96 37zM844 1534h-129l-131 82l-131 -82h-125l178 174h160z" />
    <glyph glyph-name="uni1EAB" unicode="&#x1eab;" horiz-adv-x="915" 
d="M240 322q0 -88 46 -136.5t130 -48.5q98 0 200 88v279q-68 10 -129 10q-141 0 -198 -57q-49 -49 -49 -135zM813 0h-151l-33 109q-135 -123 -277 -123q-134 0 -209 86.5t-75 240.5q0 162 86 248q51 51 123.5 73.5t181.5 22.5q79 0 157 -16v94q0 174 -184 174
q-119 0 -256 -61l-41 145q162 72 324 72q172 0 253 -78t81 -242v-559zM373 1516q-20 0 -35.5 -17.5t-38.5 -66.5l-84 30q36 89 68.5 126.5t76.5 37.5q23 0 43.5 -8t71.5 -35q66 -37 90 -37q23 0 38 18t36 66l84 -31q-35 -91 -68 -128t-77 -37q-25 0 -45.5 8t-69.5 37
q-66 37 -90 37zM709 1184h-117l-133 102l-135 -102h-115l180 200h139z" />
    <glyph glyph-name="uni1EAC" unicode="&#x1eac;" horiz-adv-x="1171" 
d="M586 1241l-207 -752h412zM698 1448l426 -1448h-200l-88 322h-502l-88 -322h-197l426 1448h223zM836 1534h-127l-125 106l-123 -106h-125l170 203h160zM514 -84h152v-174h-152v174z" />
    <glyph glyph-name="uni1EAD" unicode="&#x1ead;" horiz-adv-x="915" 
d="M240 322q0 -88 46 -136.5t130 -48.5q98 0 200 88v279q-68 10 -129 10q-141 0 -198 -57q-49 -49 -49 -135zM813 0h-151l-33 109q-135 -123 -277 -123q-134 0 -209 86.5t-75 240.5q0 162 86 248q51 51 123.5 73.5t181.5 22.5q79 0 157 -16v94q0 174 -184 174
q-119 0 -256 -61l-41 145q162 72 324 72q172 0 253 -78t81 -242v-559zM700 1184h-116l-125 133l-127 -133h-115l172 237h139zM377 -94h151v-174h-151v174z" />
    <glyph glyph-name="uni1EAE" unicode="&#x1eae;" horiz-adv-x="1171" 
d="M586 1241l-207 -752h412zM698 1448l426 -1448h-200l-88 322h-502l-88 -322h-197l426 1448h223zM641 1927h233l-245 -168h-144zM586 1634q113 0 141 90h107q-12 -92 -78.5 -145t-169.5 -53q-104 0 -170 53t-78 145h106q12 -43 49.5 -66.5t92.5 -23.5z" />
    <glyph glyph-name="uni1EAF" unicode="&#x1eaf;" horiz-adv-x="915" 
d="M240 322q0 -88 46 -136.5t130 -48.5q98 0 200 88v279q-68 10 -129 10q-141 0 -198 -57q-49 -49 -49 -135zM813 0h-151l-33 109q-135 -123 -277 -123q-134 0 -209 86.5t-75 240.5q0 162 86 248q51 51 123.5 73.5t181.5 22.5q79 0 157 -16v94q0 174 -184 174
q-119 0 -256 -61l-41 145q162 72 324 72q172 0 253 -78t81 -242v-559zM514 1620h217l-239 -197h-119zM459 1284q114 0 139 107h96q-5 -98 -68.5 -157.5t-166.5 -59.5q-104 0 -167.5 59t-68.5 158h96q12 -51 48.5 -79t91.5 -28z" />
    <glyph glyph-name="uni1EB0" unicode="&#x1eb0;" horiz-adv-x="1171" 
d="M586 1241l-207 -752h412zM698 1448l426 -1448h-200l-88 322h-502l-88 -322h-197l426 1448h223zM297 1927h233l156 -168h-143zM586 1634q113 0 141 90h107q-12 -92 -78.5 -145t-169.5 -53q-104 0 -170 53t-78 145h106q12 -43 49.5 -66.5t92.5 -23.5z" />
    <glyph glyph-name="uni1EB1" unicode="&#x1eb1;" horiz-adv-x="915" 
d="M240 322q0 -88 46 -136.5t130 -48.5q98 0 200 88v279q-68 10 -129 10q-141 0 -198 -57q-49 -49 -49 -135zM813 0h-151l-33 109q-135 -123 -277 -123q-134 0 -209 86.5t-75 240.5q0 162 86 248q51 51 123.5 73.5t181.5 22.5q79 0 157 -16v94q0 174 -184 174
q-119 0 -256 -61l-41 145q162 72 324 72q172 0 253 -78t81 -242v-559zM403 1620l142 -197h-119l-240 197h217zM459 1284q114 0 139 107h96q-5 -98 -68.5 -157.5t-166.5 -59.5q-104 0 -167.5 59t-68.5 158h96q12 -51 48.5 -79t91.5 -28z" />
    <glyph glyph-name="uni1EB2" unicode="&#x1eb2;" horiz-adv-x="1171" 
d="M586 1241l-207 -752h412zM698 1448l426 -1448h-200l-88 322h-502l-88 -322h-197l426 1448h223zM414 1880l-23 92q103 25 197 25q93 0 144.5 -27.5t51.5 -77.5t-51.5 -87.5t-173.5 -75.5l-29 73q77 29 103 43.5t26 28.5q0 29 -81 29q-70 0 -164 -23zM586 1634
q113 0 141 90h107q-12 -92 -78.5 -145t-169.5 -53q-104 0 -170 53t-78 145h106q12 -43 49.5 -66.5t92.5 -23.5z" />
    <glyph glyph-name="uni1EB3" unicode="&#x1eb3;" horiz-adv-x="915" 
d="M240 322q0 -88 46 -136.5t130 -48.5q98 0 200 88v279q-68 10 -129 10q-141 0 -198 -57q-49 -49 -49 -135zM813 0h-151l-33 109q-135 -123 -277 -123q-134 0 -209 86.5t-75 240.5q0 162 86 248q51 51 123.5 73.5t181.5 22.5q79 0 157 -16v94q0 174 -184 174
q-119 0 -256 -61l-41 145q162 72 324 72q172 0 253 -78t81 -242v-559zM305 1550l-22 90q89 29 176 29q84 0 132 -29t48 -79q0 -49 -47 -88t-158 -84l-31 67q67 31 92 49.5t25 36.5q0 33 -71 33q-67 0 -144 -25zM459 1284q114 0 139 107h96q-5 -98 -68.5 -157.5t-166.5 -59.5
q-104 0 -167.5 59t-68.5 158h96q12 -51 48.5 -79t91.5 -28z" />
    <glyph glyph-name="uni1EB4" unicode="&#x1eb4;" horiz-adv-x="1171" 
d="M586 1241l-207 -752h412zM698 1448l426 -1448h-200l-88 322h-502l-88 -322h-197l426 1448h223zM489 1853q-23 0 -37.5 -17.5t-35.5 -66.5l-88 31q32 88 67 127t82 39q44 0 121 -43q62 -39 94 -39q20 0 35.5 17.5t38.5 66.5l88 -29q-36 -92 -69 -129.5t-80 -37.5
q-24 0 -47 9t-72 36q-64 36 -97 36zM586 1634q113 0 141 90h107q-12 -92 -78.5 -145t-169.5 -53q-104 0 -170 53t-78 145h106q12 -43 49.5 -66.5t92.5 -23.5z" />
    <glyph glyph-name="uni1EB5" unicode="&#x1eb5;" horiz-adv-x="915" 
d="M240 322q0 -88 46 -136.5t130 -48.5q98 0 200 88v279q-68 10 -129 10q-141 0 -198 -57q-49 -49 -49 -135zM813 0h-151l-33 109q-135 -123 -277 -123q-134 0 -209 86.5t-75 240.5q0 162 86 248q51 51 123.5 73.5t181.5 22.5q79 0 157 -16v94q0 174 -184 174
q-119 0 -256 -61l-41 145q162 72 324 72q172 0 253 -78t81 -242v-559zM369 1526q-23 0 -38.5 -17t-35.5 -65l-84 29q35 91 68 128t77 37q24 0 45.5 -8t69.5 -37q66 -37 90 -37q20 0 35.5 17.5t38.5 66.5l84 -28q-35 -91 -68.5 -128.5t-77.5 -37.5q-23 0 -44.5 8t-69.5 35
q-64 37 -90 37zM459 1284q114 0 139 107h96q-5 -98 -68.5 -157.5t-166.5 -59.5q-104 0 -167.5 59t-68.5 158h96q12 -51 48.5 -79t91.5 -28z" />
    <glyph glyph-name="uni1EB6" unicode="&#x1eb6;" horiz-adv-x="1171" 
d="M586 1241l-207 -752h412zM698 1448l426 -1448h-200l-88 322h-502l-88 -322h-197l426 1448h223zM586 1638q112 0 139 113h104q-11 -104 -75.5 -164.5t-167.5 -60.5t-168 60.5t-76 164.5h104q13 -55 49.5 -84t90.5 -29zM514 -84h152v-174h-152v174z" />
    <glyph glyph-name="uni1EB7" unicode="&#x1eb7;" horiz-adv-x="915" 
d="M240 322q0 -88 46 -136.5t130 -48.5q98 0 200 88v279q-68 10 -129 10q-141 0 -198 -57q-49 -49 -49 -135zM813 0h-151l-33 109q-135 -123 -277 -123q-134 0 -209 86.5t-75 240.5q0 162 86 248q51 51 123.5 73.5t181.5 22.5q79 0 157 -16v94q0 174 -184 174
q-119 0 -256 -61l-41 145q162 72 324 72q172 0 253 -78t81 -242v-559zM459 1286q110 0 137 133h96q-5 -113 -67.5 -179t-165.5 -66q-104 0 -166.5 66t-67.5 179h97q27 -133 137 -133zM377 -94h151v-174h-151v174z" />
    <glyph glyph-name="uni1EB8" unicode="&#x1eb8;" horiz-adv-x="1028" 
d="M338 172h608v-172h-801v1434h791v-172h-598v-441h530v-170h-530v-479zM477 -92h152v-174h-152v174z" />
    <glyph glyph-name="uni1EB9" unicode="&#x1eb9;" horiz-adv-x="897" 
d="M496 -16q-199 0 -310.5 140t-111.5 398q0 253 106 400q109 151 277 151q173 0 272.5 -147.5t99.5 -405.5v-74h-579q7 -145 77 -227t183 -82q123 0 242 68l45 -144q-148 -77 -301 -77zM455 922q-86 0 -142 -89t-67 -241h411q-8 155 -61 242.5t-141 87.5zM385 -94h152v-174
h-152v174z" />
    <glyph glyph-name="uni1EBA" unicode="&#x1eba;" horiz-adv-x="1028" 
d="M338 172h608v-172h-801v1434h791v-172h-598v-441h530v-170h-530v-479zM348 1677l-22 99q103 28 223 28q105 0 163 -30.5t58 -85.5q0 -54 -58.5 -95t-195.5 -84l-27 80q88 31 119 48t31 34q0 33 -100 33q-103 0 -191 -27z" />
    <glyph glyph-name="uni1EBB" unicode="&#x1ebb;" horiz-adv-x="897" 
d="M496 -16q-199 0 -310.5 140t-111.5 398q0 253 106 400q109 151 277 151q173 0 272.5 -147.5t99.5 -405.5v-74h-579q7 -145 77 -227t183 -82q123 0 242 68l45 -144q-148 -77 -301 -77zM455 922q-86 0 -142 -89t-67 -241h411q-8 155 -61 242.5t-141 87.5zM281 1348l-27 98
q101 35 209 35q96 0 150.5 -32.5t54.5 -88.5q0 -55 -53 -98.5t-183 -94.5l-33 76q82 37 112 57t30 39q0 39 -90 39q-65 0 -170 -30z" />
    <glyph glyph-name="uni1EBC" unicode="&#x1ebc;" horiz-adv-x="1028" 
d="M338 172h608v-172h-801v1434h791v-172h-598v-441h530v-170h-530v-479zM438 1616q-24 0 -41.5 -20.5t-42.5 -77.5l-92 30q37 100 75.5 142.5t92.5 42.5q29 0 56.5 -10.5t78.5 -41.5q73 -45 109 -45q24 0 41 21t43 78l92 -31q-37 -100 -75.5 -142t-92.5 -42
q-30 0 -57.5 10.5t-77.5 40.5q-73 45 -109 45z" />
    <glyph glyph-name="uni1EBD" unicode="&#x1ebd;" horiz-adv-x="897" 
d="M496 -16q-199 0 -310.5 140t-111.5 398q0 253 106 400q109 151 277 151q173 0 272.5 -147.5t99.5 -405.5v-74h-579q7 -145 77 -227t183 -82q123 0 242 68l45 -144q-148 -77 -301 -77zM455 922q-86 0 -142 -89t-67 -241h411q-8 155 -61 242.5t-141 87.5zM354 1276
q-24 0 -41 -21t-43 -79l-88 28q37 105 74.5 149t91.5 44q29 0 55.5 -10.5t77.5 -43.5q48 -29 67.5 -37t37.5 -8q24 0 41 21.5t43 79.5l88 -29q-37 -105 -74.5 -148.5t-91.5 -43.5q-48 0 -133 53q-48 29 -67.5 37t-37.5 8z" />
    <glyph glyph-name="uni1EBE" unicode="&#x1ebe;" horiz-adv-x="1028" 
d="M338 172h608v-172h-801v1434h791v-172h-598v-441h530v-170h-530v-479zM897 1862h219l-246 -168h-129zM803 1526h-127l-129 88l-127 -88h-125l174 182h160z" />
    <glyph glyph-name="uni1EBF" unicode="&#x1ebf;" horiz-adv-x="897" 
d="M496 -16q-199 0 -310.5 140t-111.5 398q0 253 106 400q109 151 277 151q173 0 272.5 -147.5t99.5 -405.5v-74h-579q7 -145 77 -227t183 -82q123 0 242 68l45 -144q-148 -77 -301 -77zM455 922q-86 0 -142 -89t-67 -241h411q-8 155 -61 242.5t-141 87.5zM795 1565h204
l-239 -197h-105zM709 1184h-115l-131 112l-131 -112h-115l176 213h139z" />
    <glyph glyph-name="uni1EC0" unicode="&#x1ec0;" horiz-adv-x="1028" 
d="M338 172h608v-172h-801v1434h791v-172h-598v-441h530v-170h-530v-479zM580 1862h219l155 -168h-129zM803 1526h-127l-129 88l-127 -88h-125l174 182h160z" />
    <glyph glyph-name="uni1EC1" unicode="&#x1ec1;" horiz-adv-x="897" 
d="M496 -16q-199 0 -310.5 140t-111.5 398q0 253 106 400q109 151 277 151q173 0 272.5 -147.5t99.5 -405.5v-74h-579q7 -145 77 -227t183 -82q123 0 242 68l45 -144q-148 -77 -301 -77zM455 922q-86 0 -142 -89t-67 -241h411q-8 155 -61 242.5t-141 87.5zM688 1565
l141 -197h-104l-240 197h203zM709 1184h-115l-131 112l-131 -112h-115l176 213h139z" />
    <glyph glyph-name="uni1EC2" unicode="&#x1ec2;" horiz-adv-x="1028" 
d="M338 172h608v-172h-801v1434h791v-172h-598v-441h530v-170h-530v-479zM651 1810l-20 88q86 25 172 25q85 0 130.5 -27t45.5 -77q0 -49 -47 -86t-156 -72l-24 72q67 26 91.5 40.5t24.5 28.5q0 29 -75 29q-65 0 -142 -21zM803 1526h-127l-129 88l-127 -88h-125l174 182h160
z" />
    <glyph glyph-name="uni1EC3" unicode="&#x1ec3;" horiz-adv-x="897" 
d="M496 -16q-199 0 -310.5 140t-111.5 398q0 253 106 400q109 151 277 151q173 0 272.5 -147.5t99.5 -405.5v-74h-579q7 -145 77 -227t183 -82q123 0 242 68l45 -144q-148 -77 -301 -77zM455 922q-86 0 -142 -89t-67 -241h411q-8 155 -61 242.5t-141 87.5zM575 1499l-22 86
q77 27 166 27q78 0 123 -29.5t45 -79.5q0 -49 -45 -89t-148 -81l-28 66q61 30 85.5 49t24.5 37q0 35 -74 35q-62 0 -127 -21zM709 1184h-115l-131 112l-131 -112h-115l176 213h139z" />
    <glyph glyph-name="uni1EC4" unicode="&#x1ec4;" horiz-adv-x="1028" 
d="M338 172h608v-172h-801v1434h791v-172h-598v-441h530v-170h-530v-479zM457 1827q-23 0 -38 -18t-36 -66l-88 31q32 88 67 126.5t82 38.5q44 0 121 -43q60 -38 94 -38q20 0 35.5 17.5t38.5 66.5l88 -29q-36 -92 -69 -130t-80 -38q-24 0 -47 9t-72 36q-66 37 -96 37z
M807 1526h-129l-131 82l-131 -82h-125l178 174h160z" />
    <glyph glyph-name="uni1EC5" unicode="&#x1ec5;" horiz-adv-x="897" 
d="M496 -16q-199 0 -310.5 140t-111.5 398q0 253 106 400q109 151 277 151q173 0 272.5 -147.5t99.5 -405.5v-74h-579q7 -145 77 -227t183 -82q123 0 242 68l45 -144q-148 -77 -301 -77zM455 922q-86 0 -142 -89t-67 -241h411q-8 155 -61 242.5t-141 87.5zM377 1516
q-20 0 -35.5 -17.5t-38.5 -66.5l-84 30q36 88 69 126t77 38q22 0 42 -7.5t72 -35.5q66 -37 90 -37q23 0 38 18t36 66l84 -31q-35 -91 -68 -128t-77 -37q-25 0 -45.5 8t-69.5 37q-66 37 -90 37zM713 1184h-117l-133 102l-135 -102h-115l180 200h139z" />
    <glyph glyph-name="uni1EC6" unicode="&#x1ec6;" horiz-adv-x="1028" 
d="M338 172h608v-172h-801v1434h791v-172h-598v-441h530v-170h-530v-479zM799 1526h-127l-125 106l-123 -106h-125l170 203h160zM477 -92h152v-174h-152v174z" />
    <glyph glyph-name="uni1EC7" unicode="&#x1ec7;" horiz-adv-x="897" 
d="M496 -16q-199 0 -310.5 140t-111.5 398q0 253 106 400q109 151 277 151q173 0 272.5 -147.5t99.5 -405.5v-74h-579q7 -145 77 -227t183 -82q123 0 242 68l45 -144q-148 -77 -301 -77zM455 922q-86 0 -142 -89t-67 -241h411q-8 155 -61 242.5t-141 87.5zM705 1184h-117
l-125 133l-127 -133h-115l172 237h139zM385 -94h152v-174h-152v174z" />
    <glyph glyph-name="uni1EC8" unicode="&#x1ec8;" horiz-adv-x="497" 
d="M154 1434h192v-1434h-192v1434zM49 1677l-22 99q103 28 223 28q105 0 163 -30.5t58 -85.5q0 -54 -58.5 -95t-195.5 -84l-27 80q88 31 119 48t31 34q0 33 -100 33q-102 0 -191 -27z" />
    <glyph glyph-name="uni1EC9" unicode="&#x1ec9;" horiz-adv-x="440" 
d="M131 1051h178v-1051h-178v1051zM37 1346l-27 98q101 35 209 35q96 0 150.5 -32.5t54.5 -88.5q0 -55 -53 -98.5t-183 -94.5l-32 76q82 37 111.5 57t29.5 39q0 39 -90 39q-65 0 -170 -30z" />
    <glyph glyph-name="uni1ECA" unicode="&#x1eca;" horiz-adv-x="497" 
d="M154 1434h192v-1434h-192v1434zM174 -92h152v-174h-152v174z" />
    <glyph glyph-name="uni1ECB" unicode="&#x1ecb;" horiz-adv-x="440" 
d="M125 1427h190v-180h-190v180zM131 1051h178v-1051h-178v1051zM145 -92h152v-174h-152v174z" />
    <glyph glyph-name="uni1ECC" unicode="&#x1ecc;" horiz-adv-x="1212" 
d="M606 1454q235 0 377 -201q143 -198 143 -534q0 -338 -143 -539q-144 -200 -377 -200t-377 200q-143 198 -143 535t141 536q144 203 379 203zM608 147q148 0 235 153t87 415q0 263 -88 415q-88 156 -236 156q-149 0 -236 -152.5t-87 -414.5q0 -263 88 -418
q89 -154 237 -154zM530 -104h152v-175h-152v175z" />
    <glyph glyph-name="uni1ECD" unicode="&#x1ecd;" horiz-adv-x="935" 
d="M469 1073q178 0 285 -149q110 -149 110 -396q0 -250 -110 -399t-287 -149q-175 0 -285 149q-108 150 -108 395q0 248 108 398q112 151 287 151zM469 133q97 0 156 106.5t59 284.5t-59.5 286t-157.5 108q-97 0 -155 -106t-58 -286q0 -178 59 -285.5t156 -107.5zM393 -94
h152v-174h-152v174z" />
    <glyph glyph-name="uni1ECE" unicode="&#x1ece;" horiz-adv-x="1212" 
d="M606 1454q235 0 377 -201q143 -198 143 -534q0 -338 -143 -539q-144 -200 -377 -200t-377 200q-143 198 -143 535t141 536q144 203 379 203zM608 147q148 0 235 153t87 415q0 263 -88 415q-88 156 -236 156q-149 0 -236 -152.5t-87 -414.5q0 -263 88 -418
q89 -154 237 -154zM406 1690l-23 98q106 29 223 29q104 0 162.5 -31t58.5 -86q0 -54 -58.5 -94.5t-195.5 -83.5l-26 80q88 31 118.5 47.5t30.5 33.5q0 33 -100 33q-105 0 -190 -26z" />
    <glyph glyph-name="uni1ECF" unicode="&#x1ecf;" horiz-adv-x="935" 
d="M469 1073q178 0 285 -149q110 -149 110 -396q0 -250 -110 -399t-287 -149q-175 0 -285 149q-108 150 -108 395q0 248 108 398q112 151 287 151zM469 133q97 0 156 106.5t59 284.5t-59.5 286t-157.5 108q-97 0 -155 -106t-58 -286q0 -178 59 -285.5t156 -107.5zM285 1348
l-27 98q101 35 209 35q96 0 150.5 -32.5t54.5 -88.5q0 -55 -53 -98.5t-183 -94.5l-33 76q82 37 112 57t30 39q0 39 -90 39q-65 0 -170 -30z" />
    <glyph glyph-name="uni1ED0" unicode="&#x1ed0;" horiz-adv-x="1212" 
d="M606 1454q235 0 377 -201q143 -198 143 -534q0 -338 -143 -539q-144 -200 -377 -200t-377 200q-143 198 -143 535t141 536q144 203 379 203zM608 147q148 0 235 153t87 415q0 263 -88 415q-88 156 -236 156q-149 0 -236 -152.5t-87 -414.5q0 -263 88 -418
q89 -154 237 -154zM954 1874h220l-246 -168h-129zM860 1538h-127l-129 88l-127 -88h-125l174 182h160z" />
    <glyph glyph-name="uni1ED1" unicode="&#x1ed1;" horiz-adv-x="935" 
d="M469 1073q178 0 285 -149q110 -149 110 -396q0 -250 -110 -399t-287 -149q-175 0 -285 149q-108 150 -108 395q0 248 108 398q112 151 287 151zM469 133q97 0 156 106.5t59 284.5t-59.5 286t-157.5 108q-97 0 -155 -106t-58 -286q0 -178 59 -285.5t156 -107.5zM801 1565
h205l-240 -197h-104zM715 1184h-115l-131 112l-131 -112h-115l176 213h140z" />
    <glyph glyph-name="uni1ED2" unicode="&#x1ed2;" horiz-adv-x="1212" 
d="M606 1454q235 0 377 -201q143 -198 143 -534q0 -338 -143 -539q-144 -200 -377 -200t-377 200q-143 198 -143 535t141 536q144 203 379 203zM608 147q148 0 235 153t87 415q0 263 -88 415q-88 156 -236 156q-149 0 -236 -152.5t-87 -414.5q0 -263 88 -418
q89 -154 237 -154zM637 1874h219l156 -168h-129zM860 1538h-127l-129 88l-127 -88h-125l174 182h160z" />
    <glyph glyph-name="uni1ED3" unicode="&#x1ed3;" horiz-adv-x="935" 
d="M469 1073q178 0 285 -149q110 -149 110 -396q0 -250 -110 -399t-287 -149q-175 0 -285 149q-108 150 -108 395q0 248 108 398q112 151 287 151zM469 133q97 0 156 106.5t59 284.5t-59.5 286t-157.5 108q-97 0 -155 -106t-58 -286q0 -178 59 -285.5t156 -107.5zM694 1565
l142 -197h-105l-239 197h202zM715 1184h-115l-131 112l-131 -112h-115l176 213h140z" />
    <glyph glyph-name="uni1ED4" unicode="&#x1ed4;" horiz-adv-x="1212" 
d="M606 1454q235 0 377 -201q143 -198 143 -534q0 -338 -143 -539q-144 -200 -377 -200t-377 200q-143 198 -143 535t141 536q144 203 379 203zM608 147q148 0 235 153t87 415q0 263 -88 415q-88 156 -236 156q-149 0 -236 -152.5t-87 -414.5q0 -263 88 -418
q89 -154 237 -154zM709 1823l-21 88q82 24 172 24q85 0 130.5 -27t45.5 -77t-46.5 -86.5t-155.5 -71.5l-25 72q67 26 92 41t25 29q0 28 -76 28q-68 0 -141 -20zM860 1538h-127l-129 88l-127 -88h-125l174 182h160z" />
    <glyph glyph-name="uni1ED5" unicode="&#x1ed5;" horiz-adv-x="935" 
d="M469 1073q178 0 285 -149q110 -149 110 -396q0 -250 -110 -399t-287 -149q-175 0 -285 149q-108 150 -108 395q0 248 108 398q112 151 287 151zM469 133q97 0 156 106.5t59 284.5t-59.5 286t-157.5 108q-97 0 -155 -106t-58 -286q0 -178 59 -285.5t156 -107.5zM582 1499
l-23 86q76 27 166 27q78 0 123 -29.5t45 -79.5q0 -49 -45 -89t-148 -81l-28 66q61 30 85.5 49t24.5 37q0 35 -73 35q-63 0 -127 -21zM715 1184h-115l-131 112l-131 -112h-115l176 213h140z" />
    <glyph glyph-name="uni1ED6" unicode="&#x1ed6;" horiz-adv-x="1212" 
d="M606 1454q235 0 377 -201q143 -198 143 -534q0 -338 -143 -539q-144 -200 -377 -200t-377 200q-143 198 -143 535t141 536q144 203 379 203zM608 147q148 0 235 153t87 415q0 263 -88 415q-88 156 -236 156q-149 0 -236 -152.5t-87 -414.5q0 -263 88 -418
q89 -154 237 -154zM514 1839q-23 0 -38 -18t-36 -66l-88 31q32 88 67.5 127t82.5 39q44 0 121 -43q62 -39 94 -39q20 0 35.5 17.5t38.5 66.5l88 -29q-36 -92 -69.5 -130t-80.5 -38q-24 0 -47 9t-72 36q-66 37 -96 37zM864 1538h-129l-131 82l-131 -82h-125l178 174h160z" />
    <glyph glyph-name="uni1ED7" unicode="&#x1ed7;" horiz-adv-x="935" 
d="M469 1073q178 0 285 -149q110 -149 110 -396q0 -250 -110 -399t-287 -149q-175 0 -285 149q-108 150 -108 395q0 248 108 398q112 151 287 151zM469 133q97 0 156 106.5t59 284.5t-59.5 286t-157.5 108q-97 0 -155 -106t-58 -286q0 -178 59 -285.5t156 -107.5zM383 1516
q-20 0 -35.5 -17.5t-38.5 -66.5l-84 30q36 88 69 126t77 38q22 0 42 -7.5t72 -35.5q66 -37 90 -37q23 0 38 18t36 66l84 -31q-35 -91 -68 -128t-77 -37q-25 0 -45.5 8t-69.5 37q-66 37 -90 37zM719 1184h-117l-133 102l-135 -102h-115l180 200h140z" />
    <glyph glyph-name="uni1ED8" unicode="&#x1ed8;" horiz-adv-x="1212" 
d="M606 1454q235 0 377 -201q143 -198 143 -534q0 -338 -143 -539q-144 -200 -377 -200t-377 200q-143 198 -143 535t141 536q144 203 379 203zM608 147q148 0 235 153t87 415q0 263 -88 415q-88 156 -236 156q-149 0 -236 -152.5t-87 -414.5q0 -263 88 -418
q89 -154 237 -154zM856 1538h-127l-125 107l-123 -107h-125l170 203h160zM530 -104h152v-175h-152v175z" />
    <glyph glyph-name="uni1ED9" unicode="&#x1ed9;" horiz-adv-x="935" 
d="M469 1073q178 0 285 -149q110 -149 110 -396q0 -250 -110 -399t-287 -149q-175 0 -285 149q-108 150 -108 395q0 248 108 398q112 151 287 151zM469 133q97 0 156 106.5t59 284.5t-59.5 286t-157.5 108q-97 0 -155 -106t-58 -286q0 -178 59 -285.5t156 -107.5zM711 1184
h-117l-125 133l-127 -133h-115l172 237h140zM393 -94h152v-174h-152v174z" />
    <glyph glyph-name="uni1EDA" unicode="&#x1eda;" horiz-adv-x="1212" 
d="M680 1737h217l-248 -197h-143zM1126 719q0 -338 -143 -539q-144 -200 -377 -200t-377 200q-143 198 -143 535q0 333 141 532q145 201 379 201q5 0 27.5 -1t46.5 -1q16 -1 32.5 -2t25.5 -1.5t16 -0.5q233 0 233 145q0 30 -16 80l127 37q26 -56 26 -123q0 -97 -65 -157
t-182 -72q121 -92 185 -254.5t64 -378.5zM608 147q148 0 235 153t87 415q0 263 -88 415q-89 154 -236 154q-149 0 -236 -151.5t-87 -413.5q0 -263 88 -418q89 -154 237 -154z" />
    <glyph glyph-name="uni1EDB" unicode="&#x1edb;" horiz-adv-x="935" 
d="M532 1419h199l-235 -235h-131zM864 526q0 -248 -110 -397t-287 -149q-175 0 -285 149q-108 150 -108 395q0 244 108 391q111 150 287 150q18 0 43 -2t43 -2q94 0 144.5 35t50.5 102q0 34 -15 72l119 37q27 -53 27 -113q0 -88 -52.5 -145t-146.5 -70q88 -68 135 -184
t47 -269zM469 133q97 0 156 106.5t59 284.5q0 177 -59.5 283t-157.5 106q-97 0 -155 -105t-58 -282q0 -178 59 -285.5t156 -107.5z" />
    <glyph glyph-name="uni1EDC" unicode="&#x1edc;" horiz-adv-x="1212" 
d="M1126 719q0 -338 -143 -539q-144 -200 -377 -200t-377 200q-143 198 -143 535q0 333 141 532q145 201 379 201q5 0 27.5 -1t46.5 -1q16 -1 32.5 -2t25.5 -1.5t16 -0.5q233 0 233 145q0 30 -16 80l127 37q26 -56 26 -123q0 -97 -65 -157t-182 -72q121 -92 185 -254.5
t64 -378.5zM608 147q148 0 235 153t87 415q0 263 -88 415q-89 154 -236 154q-149 0 -236 -151.5t-87 -413.5q0 -263 88 -418q89 -154 237 -154zM541 1735l178 -197h-146l-266 197h234z" />
    <glyph glyph-name="uni1EDD" unicode="&#x1edd;" horiz-adv-x="935" 
d="M864 526q0 -248 -110 -397t-287 -149q-175 0 -285 149q-108 150 -108 395q0 244 108 391q111 150 287 150q18 0 43 -2t43 -2q94 0 144.5 35t50.5 102q0 34 -15 72l119 37q27 -53 27 -113q0 -88 -52.5 -145t-146.5 -70q88 -68 135 -184t47 -269zM469 133q97 0 156 106.5
t59 284.5q0 177 -59.5 283t-157.5 106q-97 0 -155 -105t-58 -282q0 -178 59 -285.5t156 -107.5zM399 1419l168 -235h-123l-266 235h221z" />
    <glyph glyph-name="uni1EDE" unicode="&#x1ede;" horiz-adv-x="1212" 
d="M1126 719q0 -338 -143 -539q-144 -200 -377 -200t-377 200q-143 198 -143 535q0 333 141 532q145 201 379 201q5 0 27.5 -1t46.5 -1q16 -1 32.5 -2t25.5 -1.5t16 -0.5q233 0 233 145q0 30 -16 80l127 37q26 -56 26 -123q0 -97 -65 -157t-182 -72q121 -92 185 -254.5
t64 -378.5zM608 147q148 0 235 153t87 415q0 263 -88 415q-89 154 -236 154q-149 0 -236 -151.5t-87 -413.5q0 -263 88 -418q89 -154 237 -154zM406 1690l-23 98q106 29 223 29q104 0 162.5 -31t58.5 -86q0 -54 -58.5 -94.5t-195.5 -83.5l-26 80q88 31 118.5 47.5t30.5 33.5
q0 33 -100 33q-105 0 -190 -26z" />
    <glyph glyph-name="uni1EDF" unicode="&#x1edf;" horiz-adv-x="935" 
d="M279 1350l-27 98q90 33 207 33q96 0 149.5 -32t53.5 -89q0 -55 -52.5 -98.5t-181.5 -94.5l-33 78q83 37 111.5 56.5t28.5 39.5q0 37 -89 37q-81 0 -167 -28zM864 526q0 -248 -110 -397t-287 -149q-175 0 -285 149q-108 150 -108 395q0 244 108 391q111 150 287 150
q18 0 43 -2t43 -2q94 0 144.5 35t50.5 102q0 34 -15 72l119 37q27 -53 27 -113q0 -88 -52.5 -145t-146.5 -70q88 -68 135 -184t47 -269zM469 133q97 0 156 106.5t59 284.5q0 177 -59.5 283t-157.5 106q-97 0 -155 -105t-58 -282q0 -178 59 -285.5t156 -107.5z" />
    <glyph glyph-name="uni1EE0" unicode="&#x1ee0;" horiz-adv-x="1212" 
d="M477 1628q-24 0 -41 -20.5t-41 -75.5l-90 29q37 101 74 143.5t90 42.5q27 0 54 -10.5t77 -40.5q48 -28 66.5 -35.5t38.5 -7.5q23 0 39 20.5t40 75.5l90 -31q-35 -98 -72.5 -141t-88.5 -43q-29 0 -55.5 10t-75.5 41q-77 43 -105 43zM1126 719q0 -338 -143 -539
q-144 -200 -377 -200t-377 200q-143 198 -143 535q0 333 141 532q145 201 379 201q5 0 27.5 -1t46.5 -1q16 -1 32.5 -2t25.5 -1.5t16 -0.5q233 0 233 145q0 30 -16 80l127 37q26 -56 26 -123q0 -97 -65 -157t-182 -72q121 -92 185 -254.5t64 -378.5zM608 147q148 0 235 153
t87 415q0 263 -88 415q-89 154 -236 154q-149 0 -236 -151.5t-87 -413.5q0 -263 88 -418q89 -154 237 -154z" />
    <glyph glyph-name="uni1EE1" unicode="&#x1ee1;" horiz-adv-x="935" 
d="M334 1276q-20 0 -35 -21.5t-35 -78.5l-86 28q32 105 65.5 149t80.5 44q23 0 44.5 -10t69.5 -41q66 -46 88 -46q20 0 36 22t36 79l86 -29q-35 -108 -67.5 -151t-77.5 -43q-21 0 -41.5 9t-73.5 44q-42 29 -58.5 37t-31.5 8zM864 526q0 -248 -110 -397t-287 -149
q-175 0 -285 149q-108 150 -108 395q0 244 108 391q111 150 287 150q18 0 43 -2t43 -2q94 0 144.5 35t50.5 102q0 34 -15 72l119 37q27 -53 27 -113q0 -88 -52.5 -145t-146.5 -70q88 -68 135 -184t47 -269zM469 133q97 0 156 106.5t59 284.5q0 177 -59.5 283t-157.5 106
q-97 0 -155 -105t-58 -282q0 -178 59 -285.5t156 -107.5z" />
    <glyph glyph-name="uni1EE2" unicode="&#x1ee2;" horiz-adv-x="1212" 
d="M1126 719q0 -338 -143 -539q-144 -200 -377 -200t-377 200q-143 198 -143 535q0 333 141 532q145 201 379 201q5 0 27.5 -1t46.5 -1q16 -1 32.5 -2t25.5 -1.5t16 -0.5q233 0 233 145q0 30 -16 80l127 37q26 -56 26 -123q0 -97 -65 -157t-182 -72q121 -92 185 -254.5
t64 -378.5zM608 147q148 0 235 153t87 415q0 263 -88 415q-89 154 -236 154q-149 0 -236 -151.5t-87 -413.5q0 -263 88 -418q89 -154 237 -154zM530 -104h152v-175h-152v175z" />
    <glyph glyph-name="uni1EE3" unicode="&#x1ee3;" horiz-adv-x="935" 
d="M864 526q0 -248 -110 -397t-287 -149q-175 0 -285 149q-108 150 -108 395q0 244 108 391q111 150 287 150q18 0 43 -2t43 -2q94 0 144.5 35t50.5 102q0 34 -15 72l119 37q27 -53 27 -113q0 -88 -52.5 -145t-146.5 -70q88 -68 135 -184t47 -269zM469 133q97 0 156 106.5
t59 284.5q0 177 -59.5 283t-157.5 106q-97 0 -155 -105t-58 -282q0 -178 59 -285.5t156 -107.5zM393 -94h152v-174h-152v174z" />
    <glyph glyph-name="uni1EE4" unicode="&#x1ee4;" horiz-adv-x="1181" 
d="M856 1434h193v-949q0 -241 -119.5 -372t-339.5 -131q-217 0 -336 131t-119 372v949h193v-957q0 -155 69.5 -241t194.5 -86t194.5 85.5t69.5 239.5v959zM514 -104h152v-175h-152v175z" />
    <glyph glyph-name="uni1EE5" unicode="&#x1ee5;" horiz-adv-x="976" 
d="M850 0h-139l-31 96q-139 -110 -281 -110q-135 0 -207.5 80.5t-72.5 232.5v752h180v-711q0 -197 170 -197q94 0 203 82v826h178v-1051zM416 -94h151v-174h-151v174z" />
    <glyph glyph-name="uni1EE6" unicode="&#x1ee6;" horiz-adv-x="1181" 
d="M856 1434h193v-949q0 -241 -119.5 -372t-339.5 -131q-217 0 -336 131t-119 372v949h193v-957q0 -155 69.5 -241t194.5 -86t194.5 85.5t69.5 239.5v959zM389 1669l-22 98q106 29 223 29q104 0 162.5 -31t58.5 -86q0 -54 -58.5 -94.5t-195.5 -83.5l-27 80q88 31 119 48
t31 34q0 33 -100 33q-102 0 -191 -27z" />
    <glyph glyph-name="uni1EE7" unicode="&#x1ee7;" horiz-adv-x="976" 
d="M850 0h-139l-31 96q-139 -110 -281 -110q-135 0 -207.5 80.5t-72.5 232.5v752h180v-711q0 -197 170 -197q94 0 203 82v826h178v-1051zM303 1337l-27 99q98 34 209 34q96 0 150.5 -32t54.5 -88q0 -55 -53 -98.5t-182 -94.5l-33 76q82 37 111.5 57t29.5 39q0 39 -90 39
q-61 0 -170 -31z" />
    <glyph glyph-name="uni1EE8" unicode="&#x1ee8;" horiz-adv-x="1236" 
d="M590 -18q-217 0 -336 131t-119 372v949h193v-957q0 -155 69.5 -241t194.5 -86t194.5 85.5t69.5 239.5v959h29q243 0 243 153q0 40 -16 80l129 37q27 -64 27 -123q0 -86 -57 -146t-162 -85v-865q0 -241 -119.5 -372t-339.5 -131zM655 1714h234l-266 -196h-146z" />
    <glyph glyph-name="uni1EE9" unicode="&#x1ee9;" horiz-adv-x="1017" 
d="M573 1401h220l-263 -236h-124zM850 0h-139l-31 96q-134 -108 -281 -108q-135 0 -207.5 80.5t-72.5 232.5v750h180v-711q0 -195 170 -195q102 0 203 82v824h18q106 0 162.5 37.5t56.5 109.5q0 29 -16 72l121 37q26 -51 26 -113q0 -82 -49 -138.5t-141 -82.5v-973z" />
    <glyph glyph-name="uni1EEA" unicode="&#x1eea;" horiz-adv-x="1236" 
d="M590 -18q-217 0 -336 131t-119 372v949h193v-957q0 -155 69.5 -241t194.5 -86t194.5 85.5t69.5 239.5v959h29q243 0 243 153q0 40 -16 80l129 37q27 -64 27 -123q0 -86 -57 -146t-162 -85v-865q0 -241 -119.5 -372t-339.5 -131zM524 1714l178 -196h-145l-266 196h233z
" />
    <glyph glyph-name="uni1EEB" unicode="&#x1eeb;" horiz-adv-x="1017" 
d="M850 0h-139l-31 96q-134 -108 -281 -108q-135 0 -207.5 80.5t-72.5 232.5v750h180v-711q0 -195 170 -195q102 0 203 82v824h18q106 0 162.5 37.5t56.5 109.5q0 29 -16 72l121 37q26 -51 26 -113q0 -82 -49 -138.5t-141 -82.5v-973zM416 1409l168 -235h-123l-266 235h221z
" />
    <glyph glyph-name="uni1EEC" unicode="&#x1eec;" horiz-adv-x="1236" 
d="M590 -18q-217 0 -336 131t-119 372v949h193v-957q0 -155 69.5 -241t194.5 -86t194.5 85.5t69.5 239.5v959h29q243 0 243 153q0 40 -16 80l129 37q27 -64 27 -123q0 -86 -57 -146t-162 -85v-865q0 -241 -119.5 -372t-339.5 -131zM389 1669l-22 98q106 29 223 29
q104 0 162.5 -31t58.5 -86q0 -54 -58.5 -94.5t-195.5 -83.5l-27 80q88 31 119 48t31 34q0 33 -100 33q-102 0 -191 -27z" />
    <glyph glyph-name="uni1EED" unicode="&#x1eed;" horiz-adv-x="1017" 
d="M850 0h-139l-31 96q-134 -108 -281 -108q-135 0 -207.5 80.5t-72.5 232.5v750h180v-711q0 -195 170 -195q102 0 203 82v824h18q106 0 162.5 37.5t56.5 109.5q0 29 -16 72l121 37q26 -51 26 -113q0 -82 -49 -138.5t-141 -82.5v-973zM303 1337l-27 99q98 34 209 34
q96 0 150.5 -32t54.5 -88q0 -55 -53 -98.5t-182 -94.5l-33 76q82 37 111.5 57t29.5 39q0 39 -90 39q-61 0 -170 -31z" />
    <glyph glyph-name="uni1EEE" unicode="&#x1eee;" horiz-adv-x="1236" 
d="M590 -18q-217 0 -336 131t-119 372v949h193v-957q0 -155 69.5 -241t194.5 -86t194.5 85.5t69.5 239.5v959h29q243 0 243 153q0 40 -16 80l129 37q27 -64 27 -123q0 -86 -57 -146t-162 -85v-865q0 -241 -119.5 -372t-339.5 -131zM479 1616q-24 0 -41.5 -20.5t-42.5 -77.5
l-92 30q37 100 75.5 142.5t92.5 42.5q29 0 56.5 -10.5t78.5 -41.5q73 -45 109 -45q24 0 41 21t43 78l92 -31q-37 -100 -75.5 -142t-92.5 -42q-30 0 -57.5 10.5t-77.5 40.5q-73 45 -109 45z" />
    <glyph glyph-name="uni1EEF" unicode="&#x1eef;" horiz-adv-x="1017" 
d="M375 1266q-23 0 -40 -21.5t-42 -79.5l-86 29q35 104 72 148t88 44q26 0 52.5 -11t78.5 -42q48 -30 65 -37.5t35 -7.5q23 0 41 22t43 79l86 -27q-36 -106 -72.5 -150.5t-89.5 -44.5q-24 0 -49 10.5t-80 43.5q-46 28 -65 36.5t-37 8.5zM850 0h-139l-31 96
q-134 -108 -281 -108q-135 0 -207.5 80.5t-72.5 232.5v750h180v-711q0 -195 170 -195q102 0 203 82v824h18q106 0 162.5 37.5t56.5 109.5q0 29 -16 72l121 37q26 -51 26 -113q0 -82 -49 -138.5t-141 -82.5v-973z" />
    <glyph glyph-name="uni1EF0" unicode="&#x1ef0;" horiz-adv-x="1236" 
d="M590 -18q-217 0 -336 131t-119 372v949h193v-957q0 -155 69.5 -241t194.5 -86t194.5 85.5t69.5 239.5v959h29q243 0 243 153q0 40 -16 80l129 37q27 -64 27 -123q0 -86 -57 -146t-162 -85v-865q0 -241 -119.5 -372t-339.5 -131zM514 -104h152v-175h-152v175z" />
    <glyph glyph-name="uni1EF1" unicode="&#x1ef1;" horiz-adv-x="1017" 
d="M850 0h-139l-31 96q-134 -108 -281 -108q-135 0 -207.5 80.5t-72.5 232.5v750h180v-711q0 -195 170 -195q102 0 203 82v824h18q106 0 162.5 37.5t56.5 109.5q0 29 -16 72l121 37q26 -51 26 -113q0 -82 -49 -138.5t-141 -82.5v-973zM416 -94h151v-174h-151v174z" />
    <glyph glyph-name="Ygrave" unicode="&#x1ef2;" horiz-adv-x="1087" 
d="M1059 1434l-420 -871v-563h-193v563l-419 871h204l314 -682l313 682h201zM477 1714l178 -196h-145l-266 196h233z" />
    <glyph glyph-name="ygrave" unicode="&#x1ef3;" horiz-adv-x="890" 
d="M125 -360l-47 145q188 71 272 215l-307 1051h182l228 -875l225 875h178l-276 -940q-61 -206 -158 -308q-90 -97 -297 -163zM379 1409l168 -235h-123l-266 235h221z" />
    <glyph glyph-name="uni1EF4" unicode="&#x1ef4;" horiz-adv-x="1087" 
d="M1059 1434l-420 -871v-563h-193v563l-419 871h204l314 -682l313 682h201zM467 -92h151v-174h-151v174z" />
    <glyph glyph-name="uni1EF5" unicode="&#x1ef5;" horiz-adv-x="890" 
d="M125 -360l-47 145q188 71 272 215l-307 1051h182l228 -875l225 875h178l-276 -940q-61 -206 -158 -308q-90 -97 -297 -163zM555 -186h152v-174h-152v174z" />
    <glyph glyph-name="uni1EF6" unicode="&#x1ef6;" horiz-adv-x="1087" 
d="M1059 1434l-420 -871v-563h-193v563l-419 871h204l314 -682l313 682h201zM342 1669l-23 98q106 29 224 29q104 0 162.5 -31t58.5 -86q0 -54 -58.5 -94.5t-195.5 -83.5l-27 80q88 31 119 48t31 34q0 33 -101 33q-102 0 -190 -27z" />
    <glyph glyph-name="uni1EF7" unicode="&#x1ef7;" horiz-adv-x="890" 
d="M125 -360l-47 145q188 71 272 215l-307 1051h182l228 -875l225 875h178l-276 -940q-61 -206 -158 -308q-90 -97 -297 -163zM266 1337l-26 99q98 34 209 34q96 0 150 -32t54 -88q0 -55 -53 -98.5t-182 -94.5l-33 76q82 37 111.5 57t29.5 39q0 39 -90 39q-62 0 -170 -31z
" />
    <glyph glyph-name="uni1EF8" unicode="&#x1ef8;" horiz-adv-x="1087" 
d="M1059 1434l-420 -871v-563h-193v563l-419 871h204l314 -682l313 682h201zM432 1616q-24 0 -41.5 -20.5t-42.5 -77.5l-92 30q37 100 75.5 142.5t92.5 42.5q29 0 56.5 -10.5t78.5 -41.5q73 -45 109 -45q24 0 41 21t43 78l92 -31q-37 -100 -75.5 -142t-92.5 -42
q-30 0 -57.5 10.5t-77.5 40.5q-73 45 -109 45z" />
    <glyph glyph-name="uni1EF9" unicode="&#x1ef9;" horiz-adv-x="890" 
d="M125 -360l-47 145q188 71 272 215l-307 1051h182l228 -875l225 875h178l-276 -940q-61 -206 -158 -308q-90 -97 -297 -163zM340 1274q-24 0 -41 -21t-43 -79l-88 28q37 105 74.5 149t91.5 44q29 0 55.5 -10.5t77.5 -43.5q49 -29 68 -37t36 -8q24 0 41 21.5t43 79.5
l88 -29q-37 -105 -74 -148.5t-91 -43.5q-49 0 -134 53q-49 29 -67.5 37t-36.5 8z" />
    <glyph glyph-name="uni2002" unicode="&#x2002;" horiz-adv-x="1024" 
 />
    <glyph glyph-name="uni2003" unicode="&#x2003;" horiz-adv-x="2048" 
 />
    <glyph glyph-name="uni2004" unicode="&#x2004;" horiz-adv-x="681" 
 />
    <glyph glyph-name="uni2005" unicode="&#x2005;" horiz-adv-x="512" 
 />
    <glyph glyph-name="uni2007" unicode="&#x2007;" horiz-adv-x="999" 
 />
    <glyph glyph-name="uni2009" unicode="&#x2009;" horiz-adv-x="256" 
 />
    <glyph glyph-name="uni200A" unicode="&#x200a;" horiz-adv-x="86" 
 />
    <glyph glyph-name="uni2011" unicode="&#x2011;" horiz-adv-x="612" 
d="M74 707h465v-166h-465v166z" />
    <glyph glyph-name="uni2012" unicode="&#x2012;" horiz-adv-x="999" 
d="M127 815h745v-164h-745v164z" />
    <glyph glyph-name="endash" unicode="&#x2013;" horiz-adv-x="884" 
d="M74 705h737v-162h-737v162z" />
    <glyph glyph-name="emdash" unicode="&#x2014;" horiz-adv-x="1423" 
d="M74 705h1276v-162h-1276v162z" />
    <glyph glyph-name="uni2015" unicode="&#x2015;" horiz-adv-x="1423" 
d="M74 705h1276v-162h-1276v162z" />
    <glyph glyph-name="quoteleft" unicode="&#x2018;" horiz-adv-x="376" 
d="M236 965h-183v22q0 143 55 260t179 240l61 -45q-67 -113 -90 -209q-22 -104 -22 -268z" />
    <glyph glyph-name="quoteright" unicode="&#x2019;" horiz-adv-x="376" 
d="M143 1477h183v-23q0 -142 -55.5 -259.5t-180.5 -240.5l-61 45q70 116 90 211q24 102 24 267z" />
    <glyph glyph-name="quotesinglbase" unicode="&#x201a;" horiz-adv-x="331" 
d="M82 238h182v-25q0 -142 -54.5 -258.5t-178.5 -239.5l-62 45q69 115 88 209q25 103 25 269z" />
    <glyph glyph-name="uni201B" unicode="&#x201b;" horiz-adv-x="376" 
d="M53 1454v23h183q0 -164 22 -271q23 -95 90 -207l-61 -45q-124 123 -179 240t-55 260z" />
    <glyph glyph-name="quotedblleft" unicode="&#x201c;" horiz-adv-x="681" 
d="M221 965h-168v26q0 142 51.5 257.5t169.5 238.5l62 -45q-68 -109 -92 -211q-23 -112 -23 -266zM537 965h-168v26q0 139 52 255t171 241l59 -45q-68 -109 -92 -211q-22 -107 -22 -266z" />
    <glyph glyph-name="quotedblright" unicode="&#x201d;" horiz-adv-x="681" 
d="M461 1477h168v-27q0 -139 -52 -255t-171 -241l-60 45q70 112 90 209q25 106 25 269zM145 1477h168v-27q0 -139 -52 -255t-171 -241l-61 45q69 110 92 209q24 102 24 269z" />
    <glyph glyph-name="quotedblbase" unicode="&#x201e;" horiz-adv-x="636" 
d="M401 238h166v-27q0 -142 -51.5 -257.5t-169.5 -238.5l-61 43q68 112 92 213q24 102 24 267zM84 238h168v-27q0 -142 -51.5 -257.5t-169.5 -238.5l-62 43q70 115 90 213q25 106 25 267z" />
    <glyph glyph-name="uni201F" unicode="&#x201f;" horiz-adv-x="681" 
d="M53 1450v27h168q0 -157 23 -269q23 -99 92 -209l-62 -45q-118 123 -169.5 238.5t-51.5 257.5zM369 1450v27h168q0 -162 22 -269q23 -99 92 -209l-59 -45q-119 125 -171 241t-52 255z" />
    <glyph glyph-name="dagger" unicode="&#x2020;" horiz-adv-x="503" 
d="M299 1186h-27l27 -166l-31 -385h-32l-33 385l28 166h-26l-139 -27v92l139 -26h26l-30 213h102l-31 -213h27l139 26v-92z" />
    <glyph glyph-name="daggerdbl" unicode="&#x2021;" horiz-adv-x="503" 
d="M438 883v-95l-139 29h-27l31 -215h-102l30 215h-26l-139 -29v95l139 -29h26l-28 166l28 166h-26l-139 -27v92l139 -26h26l-30 213h102l-31 -213h27l139 26v-92l-139 27h-27l27 -166l-27 -166h27z" />
    <glyph glyph-name="bullet" unicode="&#x2022;" horiz-adv-x="835" 
d="M418 463q-109 0 -187 78q-77 77 -77 186t77 186q78 78 187 78q108 0 186 -78t78 -186t-78 -186t-186 -78z" />
    <glyph glyph-name="uni2025" unicode="&#x2025;" horiz-adv-x="999" 
d="M653 238h191v-238h-191v238zM156 238h188v-238h-188v238z" />
    <glyph glyph-name="ellipsis" unicode="&#x2026;" horiz-adv-x="972" 
d="M721 227h180v-227h-180v227zM395 227h183v-227h-183v227zM72 227h182v-227h-182v227z" />
    <glyph glyph-name="uni202F" unicode="&#x202f;" horiz-adv-x="256" 
 />
    <glyph glyph-name="guilsinglleft" unicode="&#x2039;" horiz-adv-x="550" 
d="M225 623l258 -375l-65 -53l-359 380v97l359 379l65 -52z" />
    <glyph glyph-name="guilsinglright" unicode="&#x203a;" horiz-adv-x="550" 
d="M492 672v-97l-359 -380l-67 53l260 375l-260 376l67 52z" />
    <glyph glyph-name="fraction" unicode="&#x2044;" horiz-adv-x="204" 
d="M135 698l-373 -698h-98l406 735l372 699h99z" />
    <glyph glyph-name="uni2070" unicode="&#x2070;" horiz-adv-x="833" 
d="M727 1278q0 -206 -84 -323t-227 -117q-144 0 -228 117t-84 323q0 203 84.5 320.5t227.5 117.5t227 -117.5t84 -320.5zM588 1276q0 153 -46 238t-126 85t-125 -83t-45 -236q0 -155 45 -240.5t125 -85.5q82 0 127 84t45 238z" />
    <glyph glyph-name="uni2074" unicode="&#x2074;" horiz-adv-x="802" 
d="M731 1034h-123v-184h-131v184h-393l-12 111l358 565h178v-567h123v-109zM479 1589l-278 -448h278v448z" />
    <glyph glyph-name="uni2075" unicode="&#x2075;" horiz-adv-x="755" 
d="M428 1386q103 0 165 -55.5t62 -148.5q0 -293 -528 -346l-16 114q405 47 405 221q0 50 -33.5 77.5t-93.5 27.5q-85 0 -174 -53l-88 37l27 444h495v-113h-379l-16 -248q81 43 174 43z" />
    <glyph glyph-name="uni2076" unicode="&#x2076;" horiz-adv-x="778" 
d="M684 1128q0 -131 -79.5 -210.5t-209.5 -79.5q-135 0 -214 91.5t-79 246.5q0 184 98.5 318.5t301.5 231.5l61 -104q-133 -63 -206.5 -132t-102.5 -157q85 49 184 49q111 0 178.5 -69.5t67.5 -184.5zM236 1163q0 -100 43 -157.5t118 -57.5q68 0 111 47.5t43 124.5
q0 75 -43 118.5t-117 43.5q-72 0 -149 -41q-6 -25 -6 -78z" />
    <glyph glyph-name="uni2077" unicode="&#x2077;" horiz-adv-x="720" 
d="M637 1704v-125l-367 -739l-127 49l351 694h-400v121h543z" />
    <glyph glyph-name="uni2078" unicode="&#x2078;" horiz-adv-x="792" 
d="M696 1079q0 -106 -83 -172.5t-218 -66.5q-133 0 -216 66.5t-83 172.5q0 153 164 215q-143 61 -143 199q0 97 77.5 159t200.5 62t202 -62t79 -159q0 -135 -144 -199q164 -62 164 -215zM248 1479q0 -60 42 -98t105 -38q66 0 108 38t42 98q0 57 -42 94t-108 37t-106.5 -35.5
t-40.5 -95.5zM229 1094q0 -66 46.5 -108t119.5 -42q74 0 121 41.5t47 108.5t-47 109t-121 42t-120 -42t-46 -109z" />
    <glyph glyph-name="uni2079" unicode="&#x2079;" horiz-adv-x="778" 
d="M94 1425q0 131 79.5 211t209.5 80q135 0 214 -91.5t79 -246.5q0 -184 -98.5 -319t-301.5 -232l-61 105q133 63 206.5 132t102.5 157q-86 -50 -184 -50q-111 0 -178.5 69.5t-67.5 184.5zM543 1391q0 100 -43.5 157.5t-118.5 57.5q-68 0 -111 -47.5t-43 -124.5
q0 -75 43 -118.5t117 -43.5q73 0 150 41q6 25 6 78z" />
    <glyph glyph-name="uni2080" unicode="&#x2080;" horiz-adv-x="833" 
d="M727 115q0 -206 -84 -323.5t-227 -117.5t-227.5 117.5t-84.5 323.5q0 203 84.5 320.5t227.5 117.5t227 -117.5t84 -320.5zM588 113q0 153 -46 238t-126 85t-125 -83t-45 -236q0 -155 45 -240.5t125 -85.5q82 0 127 84t45 238z" />
    <glyph glyph-name="uni2081" unicode="&#x2081;" horiz-adv-x="618" 
d="M358 547h91v-860h-138v710l-205 -71l-24 114z" />
    <glyph glyph-name="uni2082" unicode="&#x2082;" horiz-adv-x="739" 
d="M266 -195h385v-118h-547l-20 102l311 348q101 112 101 182q0 49 -33.5 79t-87.5 30q-103 0 -217 -117l-56 101q130 139 287 139q109 0 177.5 -60.5t68.5 -158.5q0 -65 -32 -125t-111 -146z" />
    <glyph glyph-name="uni2083" unicode="&#x2083;" horiz-adv-x="741" 
d="M647 -49q0 -124 -141 -195t-408 -78v115q406 15 406 162q0 57 -68 85.5t-211 33.5l-14 92q146 38 214.5 82t68.5 100q0 41 -34.5 64.5t-94.5 23.5q-104 0 -232 -67l-35 106q140 76 291 76q115 0 181.5 -49t66.5 -131q0 -75 -59 -132t-183 -100q252 -24 252 -188z" />
    <glyph glyph-name="uni2084" unicode="&#x2084;" horiz-adv-x="802" 
d="M731 -129h-123v-184h-131v184h-393l-12 111l358 565h178v-567h123v-109zM479 426l-278 -449h278v449z" />
    <glyph glyph-name="uni2085" unicode="&#x2085;" horiz-adv-x="755" 
d="M428 223q103 0 165 -55.5t62 -149.5q0 -293 -528 -346l-16 115q405 47 405 221q0 50 -33.5 77.5t-93.5 27.5q-83 0 -174 -54l-88 37l27 445h495v-113h-379l-16 -248q81 43 174 43z" />
    <glyph glyph-name="uni2086" unicode="&#x2086;" horiz-adv-x="778" 
d="M684 -35q0 -131 -79.5 -211t-209.5 -80q-135 0 -214 91.5t-79 246.5q0 184 98.5 319t301.5 232l61 -104q-133 -63 -206.5 -132t-102.5 -157q85 49 184 49q111 0 178.5 -69.5t67.5 -184.5zM236 0q0 -100 43 -157.5t118 -57.5q68 0 111 47.5t43 124.5q0 75 -43 118.5
t-117 43.5q-72 0 -149 -41q-6 -25 -6 -78z" />
    <glyph glyph-name="uni2087" unicode="&#x2087;" horiz-adv-x="720" 
d="M637 541v-125l-367 -740l-127 50l351 694h-400v121h543z" />
    <glyph glyph-name="uni2088" unicode="&#x2088;" horiz-adv-x="792" 
d="M696 -84q0 -106 -83.5 -173t-217.5 -67q-133 0 -216 67t-83 173q0 153 164 215q-143 61 -143 199q0 97 77.5 159t200.5 62t202 -62t79 -159q0 -134 -144 -199q164 -62 164 -215zM248 315q0 -59 41.5 -97t105.5 -38q66 0 108 37.5t42 97.5q0 57 -42 94t-108 37
t-106.5 -35.5t-40.5 -95.5zM229 -70q0 -66 46 -107.5t120 -41.5t121 41t47 108t-47 109.5t-121 42.5t-120 -42.5t-46 -109.5z" />
    <glyph glyph-name="uni2089" unicode="&#x2089;" horiz-adv-x="778" 
d="M94 262q0 131 79.5 211t209.5 80q135 0 214 -91.5t79 -246.5q0 -184 -98.5 -319t-301.5 -232l-61 105q133 63 206.5 131.5t102.5 156.5q-85 -49 -184 -49q-111 0 -178.5 69.5t-67.5 184.5zM543 227q0 100 -43.5 157.5t-118.5 57.5q-68 0 -111 -47.5t-43 -124.5
q0 -75 43 -118t117 -43q73 0 150 41q6 25 6 77z" />
    <glyph glyph-name="uni20A6" unicode="&#x20a6;" horiz-adv-x="1312" 
d="M371 1198l2 -233h98zM678 862l119 -272h145l-2 272h-262zM373 862l2 -272h258l-117 272h-143zM942 485h-100l102 -237zM1100 479v-479h-211l-213 485h-299v-485h-164v479h-141v117h141v258h-141v117h141v463h219l205 -469h301v469h162v-463h143v-117h-143v-258h143v-117
h-143z" />
    <glyph glyph-name="uni20A9" unicode="&#x20a9;" horiz-adv-x="1720" 
d="M860 1190l-49 -219h96zM1083 868l60 -286h141l51 286h-252zM788 868l-63 -286h268l-63 286h-142zM393 868l51 -286h142l61 286h-254zM1266 477h-101l56 -260zM1421 471l-96 -481h-203l-106 487h-314l-108 -487h-199l-96 481h-227v117h204l-55 272h-149v119h125l-91 455
h191l80 -463h291l98 463h199l100 -463h285l84 463h180l-90 -455h125v-119h-150l-55 -272h205v-117h-228zM563 477h-100l45 -258z" />
    <glyph glyph-name="dong" unicode="&#x20ab;" horiz-adv-x="1032" 
d="M504 870q-110 0 -172 -97.5t-62 -270.5t62 -270t172 -97q91 0 170 76v588q-74 71 -170 71zM854 0h-139l-31 88q-108 -102 -235 -102q-162 0 -256.5 137.5t-94.5 376.5q0 244 97 382t268 138q108 0 211 -74v219h-246v103h246v166h180v-166h119v-103h-119v-1165zM164 -139
h690v-103h-690v103z" />
    <glyph glyph-name="Euro" unicode="&#x20ac;" horiz-adv-x="1034" 
d="M930 186l22 -168q-98 -30 -211 -30q-223 0 -364 131.5t-182 378.5h-138v116h125q-1 22 -2 43.5t-1.5 34t-0.5 23.5q0 73 2 96h-123v119h138q41 252 181.5 384t366.5 132q101 0 209 -31l-22 -168q-95 29 -180 29q-148 0 -240.5 -88t-124.5 -258h457v-119h-471
q-1 -20 -2 -40.5t-1.5 -32t-0.5 -21.5q0 -11 0.5 -24t1.5 -35.5t2 -43.5h471v-116h-455q35 -167 127 -253.5t234 -86.5q79 0 182 28z" />
    <glyph glyph-name="uni20B1" unicode="&#x20b1;" horiz-adv-x="1191" 
d="M535 1272h-132v-289h443q-10 142 -89 215.5t-222 73.5zM844 879h-441v-291h121q140 0 223.5 75t96.5 216zM528 430h-125v-430h-190v872h-141v117h141v445h324q232 0 360 -115t139 -330h135v-117h-137q-20 -213 -152 -327.5t-354 -114.5z" />
    <glyph glyph-name="uni20B9" unicode="&#x20b9;" horiz-adv-x="1040" 
d="M659 389l297 -385v-4h-233l-256 338q-62 85 -121.5 118t-146.5 33h-95v136h117q159 0 266.5 73.5t133.5 200.5h-517v125h521q-13 129 -112 200.5t-261 71.5h-148v138h848v-138h-315q160 -87 184 -266h131v-137h-133q-23 -125 -111.5 -215.5t-230.5 -134.5
q87 -35 182 -154z" />
    <glyph glyph-name="uni20BA" unicode="&#x20ba;" horiz-adv-x="1067" 
d="M377 0h-164v477l-141 -80v131l141 82v205l-141 -80v131l141 80v488h190v-385l379 225v-133l-379 -223v-205l379 223v-131l-379 -225v-404h21q188 0 306.5 114t141.5 316h119q-17 -288 -177.5 -447t-436.5 -159z" />
    <glyph glyph-name="uni20BD" unicode="&#x20bd;" horiz-adv-x="1134" 
d="M868 975q0 146 -83.5 221.5t-243.5 75.5h-138v-615h125q162 0 251 83t89 235zM403 352h486v-116h-486v-236h-190v236h-141v116h141v189h-141v116h141v777h332q246 0 381 -114t135 -321q0 -219 -137.5 -338.5t-388.5 -119.5h-132v-189z" />
    <glyph glyph-name="uni2117" unicode="&#x2117;" horiz-adv-x="1341" 
d="M1245 717q0 -344 -160 -557q-159 -211 -413 -211q-253 0 -416 211q-160 213 -160 557t160 557q163 211 416 211q254 0 413 -211q160 -213 160 -557zM1186 717q0 323 -144 516q-144 197 -370 197q-229 0 -373 -197q-143 -192 -143 -516q0 -323 143 -518q145 -195 373 -195
q225 0 370 195q144 197 144 518zM664 580h-76v-248h-123v778h201q141 0 219 -67.5t78 -190.5q0 -129 -79 -200.5t-220 -71.5zM664 1008h-76v-326h71q86 0 131.5 43t45.5 125q0 158 -172 158z" />
    <glyph glyph-name="uni2120" unicode="&#x2120;" horiz-adv-x="978" 
d="M825 1327l-112 -344h-72l-111 344l-14 -344h-70l21 451h100l111 -342l113 342h100l18 -451h-69zM246 1247q72 -31 100.5 -62.5t28.5 -78.5q0 -60 -43 -94.5t-115 -34.5q-78 0 -151 39l20 65q74 -41 133 -41q38 0 60 16.5t22 45.5q0 25 -18 41t-72 41q-72 31 -98.5 60.5
t-26.5 76.5q0 54 38.5 86.5t104.5 32.5q68 0 131 -29l-20 -65q-53 30 -111 30q-32 0 -50.5 -14t-18.5 -37q0 -24 18.5 -41t67.5 -37z" />
    <glyph glyph-name="trademark" unicode="&#x2122;" horiz-adv-x="958" 
d="M367 1366h-127v-383h-74v383h-127v68h328v-68zM805 1327l-113 -344h-69l-113 344l-14 -344h-70l20 451h101l110 -342l111 342h102l19 -451h-72z" />
    <glyph glyph-name="onethird" unicode="&#x2153;" horiz-adv-x="1572" 
d="M328 1440h90v-860h-137v710l-205 -71l-25 114zM752 698l-373 -698h-98l405 735l373 699h98zM1509 264q0 -124 -140.5 -194.5t-407.5 -77.5v114q405 15 405 162q0 57 -68 85.5t-211 33.5l-14 92q146 38 214.5 82.5t68.5 100.5q0 41 -34.5 64.5t-94.5 23.5q-102 0 -232 -68
l-34 106q140 76 290 76q115 0 181.5 -49t66.5 -131q0 -75 -59 -131.5t-183 -99.5q252 -24 252 -189z" />
    <glyph glyph-name="twothirds" unicode="&#x2154;" horiz-adv-x="1742" 
d="M236 698h385v-118h-547l-21 102l312 348q100 111 100 182q0 49 -33.5 79t-87.5 30q-103 0 -217 -117l-55 101q130 139 286 139q109 0 177.5 -60.5t68.5 -158.5q0 -65 -32 -125t-111 -146zM924 698l-373 -698h-98l405 735l373 699h98zM1679 264q0 -124 -141 -194.5
t-408 -77.5v114q406 15 406 162q0 57 -68 85.5t-211 33.5l-14 92q146 38 214.5 82.5t68.5 100.5q0 41 -34.5 64.5t-94.5 23.5q-102 0 -232 -68l-35 106q140 76 291 76q115 0 181.5 -49t66.5 -131q0 -75 -59 -131.5t-183 -99.5q252 -24 252 -189z" />
    <glyph glyph-name="uni2155" unicode="&#x2155;" horiz-adv-x="1572" 
d="M328 1440h90v-860h-137v710l-205 -71l-25 114zM752 698l-373 -698h-98l405 735l373 699h98zM1278 537q103 0 165 -55.5t62 -149.5q0 -293 -528 -346l-16 114q405 47 405 222q0 49 -33.5 76.5t-93.5 27.5q-85 0 -174 -53l-88 37l27 444h495v-113h-379l-16 -247
q81 43 174 43z" />
    <glyph glyph-name="uni2156" unicode="&#x2156;" horiz-adv-x="1744" 
d="M236 698h385v-118h-547l-21 102l312 348q100 111 100 182q0 49 -33.5 79t-87.5 30q-103 0 -217 -117l-55 101q130 139 286 139q109 0 177.5 -60.5t68.5 -158.5q0 -65 -32 -125t-111 -146zM924 698l-373 -698h-98l405 735l373 699h98zM1448 537q103 0 165 -55.5t62 -149.5
q0 -293 -528 -346l-17 114q406 47 406 222q0 49 -33.5 76.5t-93.5 27.5q-85 0 -174 -53l-88 37l27 444h495v-113h-379l-16 -247q81 43 174 43z" />
    <glyph glyph-name="uni2157" unicode="&#x2157;" horiz-adv-x="1656" 
d="M616 844q0 -124 -140.5 -195t-407.5 -78v115q405 15 405 162q0 57 -67.5 85.5t-210.5 33.5l-15 92q146 38 214.5 82t68.5 100q0 41 -34.5 64.5t-94.5 23.5q-104 0 -232 -67l-34 106q140 76 290 76q115 0 181.5 -49t66.5 -131q0 -76 -58.5 -133t-182.5 -99
q251 -24 251 -188zM836 698l-373 -698h-98l405 735l373 699h98zM1360 537q103 0 165 -55.5t62 -149.5q0 -293 -528 -346l-17 114q406 47 406 222q0 49 -33.5 76.5t-93.5 27.5q-85 0 -174 -53l-88 37l26 444h496v-113h-379l-16 -247q81 43 174 43z" />
    <glyph glyph-name="uni2158" unicode="&#x2158;" horiz-adv-x="1755" 
d="M700 764h-122v-184h-132v184h-393l-12 110l358 566h179v-568h122v-108zM449 1319l-279 -449h279v449zM934 698l-373 -698h-98l405 735l373 699h98zM1458 537q103 0 165.5 -56t62.5 -149q0 -293 -529 -346l-16 114q405 47 405 222q0 49 -33.5 76.5t-93.5 27.5
q-85 0 -174 -53l-88 37l27 444h495v-113h-379l-16 -247q81 43 174 43z" />
    <glyph glyph-name="uni2159" unicode="&#x2159;" horiz-adv-x="1503" 
d="M328 1440h90v-860h-137v710l-205 -71l-25 114zM752 698l-373 -698h-98l405 735l373 699h98zM1440 279q0 -131 -79.5 -211t-209.5 -80q-135 0 -214 91.5t-79 246.5q0 184 98 319t301 232l62 -105q-133 -63 -206.5 -132t-102.5 -157q85 49 184 49q111 0 178.5 -69
t67.5 -184zM991 313q0 -100 43.5 -157.5t118.5 -57.5q68 0 111 47.5t43 124.5q0 75 -43 118.5t-117 43.5q-73 0 -150 -41q-6 -25 -6 -78z" />
    <glyph glyph-name="uni215A" unicode="&#x215a;" horiz-adv-x="1579" 
d="M397 1116q103 0 165.5 -56t62.5 -149q0 -293 -529 -346l-16 115q405 47 405 221q0 50 -33.5 77.5t-93.5 27.5q-83 0 -174 -54l-88 37l27 445h495v-113h-378l-17 -248q81 43 174 43zM829 698l-372 -698h-99l406 735l373 699h98zM1516 279q0 -131 -79.5 -211t-209.5 -80
q-135 0 -214 91.5t-79 246.5q0 184 98 319t301 232l62 -105q-133 -63 -207 -132t-103 -157q85 49 185 49q111 0 178.5 -69t67.5 -184zM1067 313q0 -100 43.5 -157.5t118.5 -57.5q68 0 110.5 47t42.5 125q0 75 -42.5 118.5t-116.5 43.5q-73 0 -150 -41q-6 -25 -6 -78z" />
    <glyph glyph-name="uni215B" unicode="&#x215b;" horiz-adv-x="1576" 
d="M328 1440h90v-860h-137v710l-205 -71l-25 114zM752 698l-373 -698h-98l405 735l373 699h98zM1511 229q0 -106 -83 -172.5t-218 -66.5q-133 0 -216 66.5t-83 172.5q0 153 164 215q-143 61 -143 199q0 97 77.5 159t200.5 62t202 -62t79 -159q0 -135 -143 -199
q163 -61 163 -215zM1063 629q0 -59 41.5 -97t105.5 -38q66 0 108 37.5t42 97.5q0 57 -42 94t-108 37t-106.5 -35.5t-40.5 -95.5zM1044 244q0 -66 46.5 -108t119.5 -42q74 0 121 41.5t47 108.5t-47 109t-121 42t-120 -42t-46 -109z" />
    <glyph glyph-name="uni215C" unicode="&#x215c;" horiz-adv-x="1660" 
d="M616 844q0 -124 -140.5 -195t-407.5 -78v115q405 15 405 162q0 57 -67.5 85.5t-210.5 33.5l-15 92q146 38 214.5 82t68.5 100q0 41 -34.5 64.5t-94.5 23.5q-104 0 -232 -67l-34 106q140 76 290 76q115 0 181.5 -49t66.5 -131q0 -76 -58.5 -133t-182.5 -99
q251 -24 251 -188zM836 698l-373 -698h-98l405 735l373 699h98zM1595 229q0 -106 -83 -172.5t-218 -66.5q-133 0 -216 66.5t-83 172.5q0 153 164 215q-143 61 -143 199q0 97 77.5 159t200.5 62t202 -62t79 -159q0 -135 -143 -199q163 -61 163 -215zM1147 629q0 -59 41.5 -97
t105.5 -38q66 0 108 37.5t42 97.5q0 57 -42 94t-108 37t-106.5 -35.5t-40.5 -95.5zM1128 244q0 -66 46.5 -108t119.5 -42q74 0 121 41.5t47 108.5t-47 109t-121 42t-120 -42t-46 -109z" />
    <glyph glyph-name="uni215D" unicode="&#x215d;" horiz-adv-x="1652" 
d="M397 1116q103 0 165.5 -56t62.5 -149q0 -293 -529 -346l-16 115q405 47 405 221q0 50 -33.5 77.5t-93.5 27.5q-83 0 -174 -54l-88 37l27 445h495v-113h-378l-17 -248q81 43 174 43zM829 698l-372 -698h-99l406 735l373 699h98zM1589 229q0 -106 -83 -172.5t-218 -66.5
q-133 0 -216 66.5t-83 172.5q0 153 164 215q-143 61 -143 199q0 97 77.5 159t200.5 62t202 -62t79 -159q0 -135 -144 -199q164 -62 164 -215zM1141 629q0 -59 41.5 -97t105.5 -38q66 0 108 37.5t42 97.5q0 57 -42 94t-108 37t-106.5 -35.5t-40.5 -95.5zM1122 244
q0 -66 46.5 -108t119.5 -42q74 0 121 41.5t47 108.5t-47 109t-121 42t-120 -42t-46 -109z" />
    <glyph glyph-name="uni215E" unicode="&#x215e;" horiz-adv-x="1529" 
d="M606 1434v-125l-366 -740l-127 49l350 695h-400v121h543zM707 698l-373 -698h-98l405 735l373 699h98zM1464 229q0 -106 -83 -172.5t-218 -66.5q-133 0 -216 66.5t-83 172.5q0 153 164 215q-143 61 -143 199q0 97 77.5 159t200.5 62t202 -62t79 -159q0 -135 -144 -199
q164 -62 164 -215zM1016 629q0 -59 41.5 -97t105.5 -38q66 0 108 37.5t42 97.5q0 57 -42 94t-108 37t-106.5 -35.5t-40.5 -95.5zM997 244q0 -66 46.5 -108t119.5 -42q74 0 121 41.5t47 108.5t-47 109t-121 42t-120 -42t-46 -109z" />
    <glyph glyph-name="uni2190" unicode="&#x2190;" horiz-adv-x="1898" 
d="M993 657l-663 19l461 -369l-101 -117l-571 498v96l571 500l101 -119l-463 -368l665 20h783v-160h-783z" />
    <glyph glyph-name="uni2191" unicode="&#x2191;" horiz-adv-x="999" 
d="M834 866l-273 375l19 -666v-581h-160v581l18 668l-272 -377l-115 88l402 502h94l399 -502z" />
    <glyph glyph-name="uni2192" unicode="&#x2192;" horiz-adv-x="1898" 
d="M1780 784v-96l-572 -498l-102 117l461 369l-662 -19h-782v160h782l664 -20l-463 368l102 119z" />
    <glyph glyph-name="uni2193" unicode="&#x2193;" horiz-adv-x="999" 
d="M834 567l112 -88l-399 -502h-94l-402 502l115 88l272 -377l-18 668v582h160v-582l-19 -665z" />
    <glyph glyph-name="minus" unicode="&#x2212;" horiz-adv-x="999" 
d="M90 805h819v-156h-819v156z" />
    <glyph glyph-name="approxequal" unicode="&#x2248;" horiz-adv-x="999" 
d="M662 928q32 0 60 30.5t69 112.5l110 -45q-55 -135 -104.5 -192.5t-114.5 -57.5q-36 0 -76 15.5t-119 60.5q-67 39 -98 52.5t-59 13.5q-31 0 -58 -29.5t-65 -106.5l-109 43q55 133 102.5 189.5t108.5 56.5q38 0 76.5 -15t118.5 -61q65 -40 98 -53.5t60 -13.5zM670 543
q31 0 58 30t65 107l108 -45q-55 -133 -102.5 -189.5t-108.5 -56.5q-39 0 -80 16t-114 62q-70 39 -101.5 52t-56.5 13q-35 0 -63 -30.5t-66 -112.5l-111 45q55 137 104.5 194.5t114.5 57.5q37 0 77 -15.5t118 -62.5q70 -39 101.5 -52t56.5 -13z" />
    <glyph glyph-name="notequal" unicode="&#x2260;" horiz-adv-x="999" 
d="M498 606h395v-135h-461l-110 -213h-134l113 213h-197v135h273l125 242h-398v135h463l111 213h131l-111 -213h195v-135h-270z" />
    <glyph glyph-name="uni237F" unicode="&#x237f;" horiz-adv-x="860" 
d="M498 475v-708h-136v708q-91 17 -149.5 88.5t-58.5 163.5t58.5 163.5t149.5 88.5v682h136v-682q91 -19 149 -89.5t58 -162.5t-58 -162.5t-149 -89.5z" />
    <glyph glyph-name="triagup" unicode="&#x25b2;" horiz-adv-x="1335" 
d="M686 1458l565 -1438v-20h-1169v20l567 1438h37z" />
    <glyph glyph-name="uni25B6" unicode="&#x25b6;" horiz-adv-x="1591" 
d="M233 -25l-16 9v1466l16 8l1233 -723v-37z" />
    <glyph glyph-name="triagdn" unicode="&#x25bc;" horiz-adv-x="1335" 
d="M649 -25l-567 1438v21h1169v-21l-565 -1438h-37z" />
    <glyph glyph-name="uni25C0" unicode="&#x25c0;" horiz-adv-x="1591" 
d="M1360 1458l16 -8v-1466l-16 -9l-1233 723v37z" />
    <glyph glyph-name="uniA788" unicode="&#xa788;" horiz-adv-x="1024" 
d="M754 -330h-117l-125 133l-127 -133h-115l172 238h140z" />
    <glyph glyph-name="guillemotleft.cap" horiz-adv-x="911" 
d="M586 737l258 -375l-66 -53l-358 381v96l358 379l66 -51zM225 737l258 -375l-65 -53l-359 381v96l359 379l65 -51z" />
    <glyph glyph-name="guillemotright.cap" horiz-adv-x="911" 
d="M492 786v-96l-359 -381l-67 53l260 375l-260 377l67 51zM852 786v-96l-358 -381l-66 53l258 375l-258 377l66 51z" />
    <glyph glyph-name="guilsinglleft.cap" horiz-adv-x="550" 
d="M225 737l258 -375l-65 -53l-359 381v96l359 379l65 -51z" />
    <glyph glyph-name="guilsinglright.cap" horiz-adv-x="550" 
d="M492 786v-96l-359 -381l-67 53l260 375l-260 377l67 51z" />
    <glyph glyph-name="parenleft.cap" horiz-adv-x="692" 
d="M274 715q0 -232 89 -418.5t280 -353.5l-80 -97q-463 340 -463 869q0 528 463 868l80 -96q-191 -167 -280 -353.5t-89 -418.5z" />
    <glyph glyph-name="parenright.cap" horiz-adv-x="692" 
d="M129 -154l-80 97q191 167 280 353.5t89 418.5t-89 418.5t-280 353.5l80 96q463 -340 463 -868q0 -529 -463 -869z" />
    <glyph glyph-name="bracketleft.cap" horiz-adv-x="724" 
d="M309 0l348 18v-114l-503 -33v1688l503 -33v-115l-348 19v-1430z" />
    <glyph glyph-name="bracketright.cap" horiz-adv-x="724" 
d="M66 1526l505 33v-1688l-505 33v114l348 -18v1430l-348 -19v115z" />
    <glyph glyph-name="braceleft.cap" horiz-adv-x="937" 
d="M881 -20l-21 -127q-315 43 -569 159l-17 105q172 109 172 254q0 125 -101.5 202t-283.5 89v106q182 12 283.5 89t101.5 202q0 145 -172 254l17 104q257 118 569 160l21 -127q-223 -25 -414 -104q158 -110 158 -279q0 -122 -84.5 -213t-239.5 -139q155 -48 239.5 -139.5
t84.5 -213.5q0 -168 -158 -278q191 -79 414 -104z" />
    <glyph glyph-name="braceright.cap" horiz-adv-x="937" 
d="M80 -147l-21 127q227 26 414 104q-160 112 -160 278q0 122 85 214t241 139q-156 48 -241 139t-85 213q0 167 160 279q-187 78 -414 104l21 127q308 -42 567 -160l19 -104q-174 -106 -174 -254q0 -125 102 -202t285 -89v-106q-183 -12 -285 -89t-102 -202q0 -148 174 -254
l-19 -105q-256 -117 -567 -159z" />
    <glyph glyph-name="slash.cap" horiz-adv-x="684" 
d="M-18 -233l575 1894h143l-575 -1894h-143z" />
    <glyph glyph-name="bar.cap" horiz-adv-x="534" 
d="M199 1661h135v-1894h-135v1894z" />
    <glyph glyph-name="backslash.cap" horiz-adv-x="684" 
d="M127 1661l573 -1894h-141l-575 1894h143z" />
    <glyph glyph-name="hyphen.cap" horiz-adv-x="612" 
d="M74 821h465v-166h-465v166z" />
    <glyph glyph-name="endash.cap" horiz-adv-x="884" 
d="M74 819h737v-162h-737v162z" />
    <glyph glyph-name="emdash.cap" horiz-adv-x="1423" 
d="M74 819h1276v-162h-1276v162z" />
    <glyph glyph-name="uni00B7.cap" horiz-adv-x="378" 
d="M94 856h191v-238h-191v238z" />
    <glyph glyph-name="colon.fig" horiz-adv-x="356" 
d="M82 1120h192v-223h-192v223zM82 571h192v-223h-192v223z" />
    <glyph glyph-name="zero.tab" horiz-adv-x="999" 
d="M500 1454q203 0 309 -188.5t106 -548.5t-106 -548.5t-309 -188.5t-309.5 188.5t-106.5 548.5t106.5 548.5t309.5 188.5zM500 143q109 0 166 145.5t57 426.5q0 283 -57.5 429t-167.5 146q-109 0 -166.5 -145.5t-57.5 -425.5q0 -282 58 -429t168 -147z" />
    <glyph glyph-name="one.tab" horiz-adv-x="999" 
d="M618 158h285v-158h-778v158h305v1075l-278 -100l-31 159l371 150h126v-1284z" />
    <glyph glyph-name="two.tab" horiz-adv-x="999" 
d="M174 1100l-74 155q187 193 418 193q172 0 271.5 -96t99.5 -262q0 -106 -47 -209q-45 -99 -160 -244l-356 -469h583v-168h-803l-26 143l467 611q80 105 113.5 176.5t33.5 140.5q0 91 -54 146t-144 55q-156 0 -322 -172z" />
    <glyph glyph-name="three.tab" horiz-adv-x="999" 
d="M131 1171l-49 154q216 125 432 125q168 0 269.5 -81t101.5 -216q0 -121 -86 -215t-267 -172q365 -59 365 -326q0 -204 -213.5 -322t-601.5 -130v168q303 12 461.5 85.5t158.5 202.5q0 100 -104.5 153t-323.5 60l-20 146q222 72 329 151t107 172q0 72 -57 114t-154 42
q-149 0 -348 -111z" />
    <glyph glyph-name="four.tab" horiz-adv-x="999" 
d="M944 326h-149v-326h-187v326h-532l-25 155l496 959h248v-953h149v-161zM610 1227l-368 -742h368v742z" />
    <glyph glyph-name="five.tab" horiz-adv-x="999" 
d="M559 897q158 0 251 -92t93 -250q0 -485 -776 -580l-27 166q611 83 611 400q0 88 -51 138t-142 50q-119 0 -250 -96l-141 61l37 740h729v-166h-557l-23 -437q126 66 246 66z" />
    <glyph glyph-name="six.tab" horiz-adv-x="999" 
d="M920 469q0 -222 -113 -356q-115 -133 -297 -133q-197 0 -308.5 149.5t-111.5 413.5q0 313 136 538t425 389l99 -139q-183 -104 -290.5 -227t-148.5 -275q131 76 260 76q160 0 254.5 -117.5t94.5 -318.5zM283 520q0 -179 60.5 -278t170.5 -99q97 0 156 84.5t59 225.5
q0 143 -56 216.5t-165 73.5q-91 0 -219 -67q-6 -147 -6 -156z" />
    <glyph glyph-name="seven.tab" horiz-adv-x="999" 
d="M920 1434v-174l-553 -1278l-181 59l545 1225h-643v168h832z" />
    <glyph glyph-name="eight.tab" horiz-adv-x="999" 
d="M920 383q0 -175 -117 -289q-116 -110 -303 -110q-189 0 -305 110q-117 111 -117 289q0 260 235 367q-204 101 -204 333q0 161 108 263q107 104 283 104q173 0 280 -104q109 -103 109 -263q0 -226 -203 -333q234 -102 234 -367zM500 829q88 0 143 63.5t55 166.5t-54 165
t-144 62q-91 0 -145 -61.5t-54 -165.5q0 -102 55.5 -166t143.5 -64zM500 147q104 0 166.5 71t62.5 190q0 115 -64.5 187.5t-164.5 72.5q-103 0 -167.5 -72.5t-64.5 -187.5q0 -118 63.5 -189.5t168.5 -71.5z" />
    <glyph glyph-name="nine.tab" horiz-adv-x="999" 
d="M80 965q0 223 113 354q114 135 296 135q197 0 308.5 -149.5t111.5 -413.5q0 -313 -136 -538.5t-425 -389.5l-98 139q183 104 290 227t148 275q-131 -76 -260 -76q-160 0 -254 118t-94 319zM717 913q0 179 -61 278t-171 99q-97 0 -156 -84t-59 -225q0 -143 56.5 -217
t165.5 -74q89 0 219 68q6 147 6 155z" />
    <glyph glyph-name="period.tab" horiz-adv-x="499" 
d="M154 238h192v-238h-192v238z" />
    <glyph glyph-name="comma.tab" horiz-adv-x="499" 
d="M166 238h182v-25q0 -142 -54.5 -258.5t-178.5 -239.5l-62 45q71 119 90 213q23 108 23 265z" />
    <glyph glyph-name="colon.tab" horiz-adv-x="499" 
d="M154 1051h192v-236h-192v236zM154 238h192v-238h-192v238z" />
    <glyph glyph-name="colon.figtab" horiz-adv-x="499" 
d="M152 1120h194v-223h-194v223zM152 571h194v-223h-194v223z" />
    <glyph glyph-name="slash.tab" horiz-adv-x="999" 
d="M4 -231l840 1894h149l-839 -1894h-150z" />
    <glyph glyph-name="uni00B7.tab" horiz-adv-x="499" 
d="M154 850h192v-238h-192v238z" />
    <glyph glyph-name="quotedbl.tab" horiz-adv-x="999" 
d="M688 1434h201v-2l-281 -521l-76 27zM285 1434h202v-2l-280 -521l-76 27z" />
    <glyph glyph-name="quotesingle.tab" horiz-adv-x="499" 
d="M223 1434h205v-2l-258 -521l-76 25z" />
    <glyph glyph-name="dollar.tab" horiz-adv-x="999" 
d="M281 1071q0 -78 47.5 -133.5t152.5 -99.5l58 446h-7q-115 0 -183 -58t-68 -155zM748 387q0 82 -48 139.5t-157 104.5l-60 -481q123 5 194 68t71 169zM477 0l-26 -201h-115l29 207q-165 22 -316 111l43 151q153 -92 305 -114l64 510q-180 68 -262 161t-82 232
q0 170 114 272q117 105 310 105h2l22 159h115l-23 -170q118 -14 242 -84l-45 -149q-122 72 -231 86l-58 -469q180 -69 263 -166.5t83 -239.5q0 -183 -115.5 -289.5t-318.5 -111.5z" />
    <glyph glyph-name="sterling.tab" horiz-adv-x="999" 
d="M289 164h624v-164h-804l-29 135q68 68 104.5 155.5t48.5 207.5l15 131h-156v153h170l25 240q20 210 127 317q109 109 297 109q112 0 215 -41l-33 -170q-75 37 -170 37q-108 0 -172 -64q-71 -74 -86 -219l-21 -209h353v-153h-369l-14 -148q-11 -107 -39.5 -180.5
t-85.5 -136.5z" />
    <glyph glyph-name="yen.tab" horiz-adv-x="999" 
d="M590 354h284v-116h-284v-238h-182v238h-285v116h285v170h-285v117h262l-348 793h190l275 -699l272 699h189l-351 -793h262v-117h-284v-170z" />
    <glyph glyph-name="Euro.tab" horiz-adv-x="999" 
d="M897 188l27 -168q-95 -32 -205 -32q-215 0 -349.5 131t-172.5 379h-136v116h123q-1 22 -2 43.5t-1.5 34t-0.5 23.5q0 73 2 96h-121v119h136q38 250 173.5 383t350.5 133q99 0 201 -31l-25 -168q-89 29 -166 29q-139 0 -227 -88t-119 -258h428v-119h-444v-45
q-2 -27 -2 -49q0 -11 0.5 -24t1.5 -35.5t2 -43.5h442v-116h-428q32 -167 120.5 -253.5t223.5 -86.5q96 0 168 30z" />
    <glyph glyph-name="triagup.tab" horiz-adv-x="999" 
d="M475 1460h47l357 -1460h-758z" />
    <glyph glyph-name="triagdn.tab" horiz-adv-x="999" 
d="M522 -27h-47l-354 1461h758z" />
    <glyph glyph-name="uni25C0.tab" horiz-adv-x="999" 
d="M811 1116l16 -8v-741l-16 -9l-698 363v33z" />
    <glyph glyph-name="uni25B6.tab" horiz-adv-x="999" 
d="M188 358l-16 9v741l16 8l697 -362v-33z" />
    <glyph glyph-name="i.dot" horiz-adv-x="440" 
d="M131 1051h178v-1051h-178v1051zM143 1364h152v-174h-152v174z" />
    <glyph glyph-name="f.lig" horiz-adv-x="622" 
d="M489 1485q61 0 138 -15v-153q-53 16 -111 16q-156 0 -156 -174v-108h236v-154h-236v-897h-178v897h-137v154h137v108q0 161 77.5 243.5t229.5 82.5z" />
    <glyph glyph-name="space.cap" horiz-adv-x="356" 
 />
    <glyph glyph-name="middotcat" horiz-adv-x="157" 
d="M2 856h154v-203h-154v203z" />
    <glyph glyph-name="middotcat.cap" horiz-adv-x="299" 
d="M0 872h170v-215h-170v215z" />
    <glyph glyph-name="macron.nrw" 
d="M-207 1307h414v-105h-414v105z" />
    <glyph glyph-name="uni0331.nrw" 
d="M-207 -102h414v-105h-414v105z" />
    <glyph glyph-name="ringacute" 
d="M-96 1575l137 154h217l-223 -154h-131zM0 1169q-79 0 -131.5 50t-52.5 124q0 75 52.5 126t131.5 51t131.5 -51t52.5 -126q0 -74 -52.5 -124t-131.5 -50zM0 1460q-51 0 -84 -33t-33 -84q0 -50 33 -82t84 -32t84 32t33 82q0 51 -33 84t-84 33z" />
    <glyph glyph-name="uni00A80301" 
d="M51 1626h219l-239 -196h-119zM-211 1362h143v-172h-143v172zM68 1362h143v-172h-143v172z" />
    <glyph glyph-name="uni00A80300" 
d="M-51 1626l139 -196h-119l-239 196h219zM-211 1362h143v-172h-143v172zM68 1362h143v-172h-143v172z" />
    <glyph glyph-name="uni00A8030C" 
d="M129 1628h117l-176 -198h-140l-176 198h119l127 -100zM-211 1362h143v-172h-143v172zM68 1362h143v-172h-143v172z" />
    <glyph glyph-name="uni00A80304" 
d="M-225 1542h450v-102h-450v102zM-211 1362h143v-172h-143v172zM68 1362h143v-172h-143v172z" />
    <glyph glyph-name="uni02D80301" 
d="M55 1618h217l-239 -197h-119zM0 1282q114 0 139 107h97q-5 -98 -69 -158t-167 -60q-104 0 -167.5 59.5t-68.5 158.5h97q12 -51 48 -79t91 -28z" />
    <glyph glyph-name="uni02D80300" 
d="M-55 1618l141 -197h-119l-239 197h217zM0 1282q114 0 139 107h97q-5 -98 -69 -158t-167 -60q-104 0 -167.5 59.5t-68.5 158.5h97q12 -51 48 -79t91 -28z" />
    <glyph glyph-name="uni02D80309" 
d="M-154 1548l-22 90q89 29 176 29q84 0 132 -29t48 -79q0 -49 -47 -89t-158 -84l-30 68q67 31 91.5 49t24.5 37q0 33 -71 33q-67 0 -144 -25zM0 1282q114 0 139 107h97q-5 -98 -69 -158t-167 -60q-104 0 -167.5 59.5t-68.5 158.5h97q12 -51 48 -79t91 -28z" />
    <glyph glyph-name="uni02D80303" 
d="M-90 1524q-23 0 -38.5 -17t-35.5 -65l-84 28q35 91 68.5 128.5t77.5 37.5q24 0 44.5 -8t69.5 -37q66 -37 90 -37q20 0 35.5 17.5t38.5 66.5l84 -28q-35 -91 -68 -128.5t-77 -37.5q-23 0 -45.5 8.5t-69.5 34.5q-64 37 -90 37zM0 1282q114 0 139 107h97q-5 -98 -69 -158
t-167 -60q-104 0 -167.5 59.5t-68.5 158.5h97q12 -51 48 -79t91 -28z" />
    <glyph glyph-name="uni02C60301" 
d="M332 1563h205l-240 -197h-104zM246 1182h-115l-131 112l-131 -112h-115l176 213h140z" />
    <glyph glyph-name="uni02C60300" 
d="M225 1563l142 -197h-105l-239 197h202zM246 1182h-115l-131 112l-131 -112h-115l176 213h140z" />
    <glyph glyph-name="uni02C60309" 
d="M113 1497l-23 86q76 27 166 27q78 0 123 -29.5t45 -79.5q0 -49 -45 -89t-148 -81l-28 66q61 30 85.5 49t24.5 37q0 35 -73 35q-62 0 -127 -21zM246 1182h-115l-131 112l-131 -112h-115l176 213h140z" />
    <glyph glyph-name="uni02C60303" 
d="M-86 1513q-20 0 -35.5 -17t-38.5 -66l-84 30q36 88 69 126t77 38q22 0 42 -7.5t72 -35.5q66 -37 90 -37q23 0 38 18t36 66l84 -31q-35 -91 -68 -128t-77 -37q-25 0 -45.5 8t-69.5 37q-64 36 -90 36zM250 1182h-117l-133 102l-135 -102h-115l180 200h140z" />
    <glyph glyph-name="acute.cap" 
d="M66 1722h233l-266 -196h-146z" />
    <glyph glyph-name="hungarumlaut.cap" 
d="M-39 1722h197l-250 -196h-131zM221 1722h197l-250 -196h-131z" />
    <glyph glyph-name="grave.cap" 
d="M-66 1722l179 -196h-146l-266 196h233z" />
    <glyph glyph-name="circumflex.cap" 
d="M250 1526h-127l-125 106l-123 -106h-125l170 203h160z" />
    <glyph glyph-name="caron.cap" 
d="M-250 1729h127l125 -107l123 107h125l-170 -203h-160z" />
    <glyph glyph-name="breve.cap" 
d="M0 1630q112 0 139 113h105q-11 -104 -76 -164.5t-168 -60.5t-168 60.5t-76 164.5h105q27 -113 139 -113z" />
    <glyph glyph-name="tilde.cap" 
d="M-111 1616q-24 0 -41.5 -20.5t-42.5 -77.5l-92 30q37 100 75.5 142.5t92.5 42.5q29 0 56.5 -10.5t78.5 -41.5q73 -45 109 -45q24 0 41 21t43 78l92 -31q-37 -100 -75.5 -142t-92.5 -42q-30 0 -57.5 10.5t-77.5 40.5q-73 45 -109 45z" />
    <glyph glyph-name="macron.cap" 
d="M-260 1642h520v-106h-520v106z" />
    <glyph glyph-name="macron.capnrw" 
d="M-227 1642h454v-106h-454v106z" />
    <glyph glyph-name="dieresis.cap" 
d="M-225 1696h153v-170h-153v170zM72 1696h153v-170h-153v170z" />
    <glyph glyph-name="dotaccent.cap" 
d="M-80 1696h160v-170h-160v170z" />
    <glyph glyph-name="ring.cap" 
d="M0 1513q-86 0 -142.5 52.5t-56.5 132.5t56.5 132t142.5 52t142.5 -52t56.5 -132t-56.5 -132.5t-142.5 -52.5zM0 1819q-56 0 -91.5 -33.5t-35.5 -87.5t35.5 -88.5t91.5 -34.5t91.5 34.5t35.5 88.5t-35.5 87.5t-91.5 33.5z" />
    <glyph glyph-name="uni00200309.cap" 
d="M-201 1677l-22 99q103 28 223 28q105 0 163 -30.5t58 -85.5q0 -54 -58.5 -95t-195.5 -84l-26 80q87 31 118 48t31 34q0 33 -100 33q-102 0 -191 -27z" />
    <glyph glyph-name="uni00A80301.cap" 
d="M55 1925h232l-244 -170h-143zM-225 1694h153v-168h-153v168zM72 1694h153v-168h-153v168z" />
    <glyph glyph-name="uni00A80300.cap" 
d="M-287 1925h232l155 -170h-143zM-225 1694h153v-168h-153v168zM72 1694h153v-168h-153v168z" />
    <glyph glyph-name="uni00A8030C.cap" 
d="M127 1931h127l-174 -176h-160l-174 176h129l127 -82zM-225 1694h153v-168h-153v168zM72 1694h153v-168h-153v168z" />
    <glyph glyph-name="uni00A80304.cap" 
d="M-242 1870h484v-105h-484v105zM-225 1694h153v-168h-153v168zM72 1694h153v-168h-153v168z" />
    <glyph glyph-name="uni02D80301.cap" 
d="M55 1919h234l-246 -168h-143zM0 1626q113 0 141 90h107q-12 -92 -78.5 -145t-169.5 -53q-104 0 -170 53t-78 145h107q12 -43 49 -66.5t92 -23.5z" />
    <glyph glyph-name="uni02D80300.cap" 
d="M-289 1919h234l155 -168h-143zM0 1626q113 0 141 90h107q-12 -92 -78.5 -145t-169.5 -53q-104 0 -170 53t-78 145h107q12 -43 49 -66.5t92 -23.5z" />
    <glyph glyph-name="uni02D80309.cap" 
d="M-172 1872l-23 92q103 25 197 25t145.5 -27.5t51.5 -77.5t-52 -88t-174 -76l-28 74q77 29 103 43.5t26 28.5q0 28 -82 28q-74 0 -164 -22zM0 1626q113 0 141 90h107q-12 -92 -78.5 -145t-169.5 -53q-104 0 -170 53t-78 145h107q12 -43 49 -66.5t92 -23.5z" />
    <glyph glyph-name="uni02D80303.cap" 
d="M-96 1845q-23 0 -38 -18t-36 -66l-88 31q32 88 67 127t82 39q44 0 121 -43q62 -39 94 -39q20 0 35.5 17.5t38.5 66.5l88 -29q-36 -92 -69 -130t-80 -38q-24 0 -47 9t-72 36q-66 37 -96 37zM0 1626q113 0 141 90h107q-12 -92 -78.5 -145t-169.5 -53q-104 0 -170 53
t-78 145h107q12 -43 49 -66.5t92 -23.5z" />
    <glyph glyph-name="uni02C60301.cap" 
d="M348 1862h219l-245 -168h-129zM254 1526h-127l-129 88l-127 -88h-125l174 182h160z" />
    <glyph glyph-name="uni02C60300.cap" 
d="M31 1862h219l156 -168h-130zM254 1526h-127l-129 88l-127 -88h-125l174 182h160z" />
    <glyph glyph-name="uni02C60309.cap" 
d="M102 1810l-20 88q86 25 172 25q85 0 130.5 -27t45.5 -77q0 -49 -47 -86t-156 -72l-24 72q67 26 91.5 40.5t24.5 28.5q0 29 -75 29q-66 0 -142 -21zM254 1526h-127l-129 88l-127 -88h-125l174 182h160z" />
    <glyph glyph-name="uni02C60303.cap" 
d="M-92 1827q-23 0 -38 -18t-36 -66l-88 31q32 88 67.5 126.5t82.5 38.5q43 0 120 -43q60 -38 95 -38q20 0 35 17t38 67l88 -29q-36 -92 -69 -130t-80 -38q-24 0 -47 9t-72 36q-66 37 -96 37zM258 1526h-129l-131 82l-131 -82h-125l178 174h160z" />
    <glyph glyph-name="zero.num" horiz-adv-x="772" 
d="M696 1008q0 -206 -84 -323.5t-227 -117.5t-227 117.5t-84 323.5q0 203 84 320.5t227 117.5t227 -117.5t84 -320.5zM557 1006q0 153 -46 238t-126 85t-125 -83t-45 -236q0 -155 45 -240.5t125 -85.5q82 0 127 84t45 238z" />
    <glyph glyph-name="one.num" horiz-adv-x="557" 
d="M328 1440h90v-860h-137v710l-205 -71l-25 114z" />
    <glyph glyph-name="two.num" horiz-adv-x="677" 
d="M236 698h385v-118h-547l-21 102l312 348q100 111 100 182q0 49 -33.5 79t-87.5 30q-103 0 -217 -117l-55 101q130 139 286 139q109 0 177.5 -60.5t68.5 -158.5q0 -65 -32 -125t-111 -146z" />
    <glyph glyph-name="three.num" horiz-adv-x="679" 
d="M616 844q0 -124 -140.5 -195t-407.5 -78v115q405 15 405 162q0 57 -67.5 85.5t-210.5 33.5l-15 92q146 38 214.5 82t68.5 100q0 41 -34.5 64.5t-94.5 23.5q-104 0 -232 -67l-34 106q140 76 290 76q115 0 181.5 -49t66.5 -131q0 -76 -58.5 -133t-182.5 -99
q251 -24 251 -188z" />
    <glyph glyph-name="four.num" horiz-adv-x="741" 
d="M700 764h-122v-184h-132v184h-393l-12 110l358 566h179v-568h122v-108zM449 1319l-279 -449h279v449z" />
    <glyph glyph-name="five.num" horiz-adv-x="694" 
d="M397 1116q103 0 165.5 -56t62.5 -149q0 -293 -529 -346l-16 115q405 47 405 221q0 50 -33.5 77.5t-93.5 27.5q-83 0 -174 -54l-88 37l27 445h495v-113h-378l-17 -248q81 43 174 43z" />
    <glyph glyph-name="six.num" horiz-adv-x="716" 
d="M653 858q0 -131 -79 -211t-209 -80q-135 0 -214 91.5t-79 246.5q0 184 98 319t301 232l61 -104q-133 -63 -206.5 -132t-102.5 -157q85 49 185 49q111 0 178 -69.5t67 -184.5zM205 893q0 -100 43.5 -157.5t118.5 -57.5q68 0 110.5 47t42.5 125q0 75 -43 118.5t-117 43.5
q-72 0 -149 -41q-6 -25 -6 -78z" />
    <glyph glyph-name="seven.num" horiz-adv-x="659" 
d="M606 1434v-125l-366 -740l-127 49l350 695h-400v121h543z" />
    <glyph glyph-name="eight.num" horiz-adv-x="731" 
d="M666 809q0 -106 -83.5 -173t-217.5 -67q-133 0 -216 67t-83 173q0 154 163 215q-143 61 -143 199q0 97 78 159t201 62t201.5 -62t78.5 -159q0 -135 -143 -199q164 -62 164 -215zM217 1208q0 -59 42 -97t106 -38q66 0 107.5 37.5t41.5 97.5q0 57 -41.5 94t-107.5 37
t-107 -35.5t-41 -95.5zM199 823q0 -66 46 -107.5t120 -41.5t120.5 41t46.5 108t-46.5 109.5t-120.5 42.5t-120 -42.5t-46 -109.5z" />
    <glyph glyph-name="nine.num" horiz-adv-x="716" 
d="M63 1155q0 131 79.5 211t209.5 80q135 0 214 -91.5t79 -246.5q0 -184 -98 -319t-301 -232l-62 105q133 63 207 131.5t103 156.5q-85 -49 -185 -49q-111 0 -178.5 69.5t-67.5 184.5zM512 1120q0 100 -43.5 157.5t-118.5 57.5q-68 0 -110.5 -47.5t-42.5 -124.5
q0 -75 42.5 -118.5t116.5 -43.5q73 0 150 41q6 25 6 78z" />
    </font>
</defs>
</svg>
